<svg width="93" height="92" viewBox="0 0 93 92" fill="none" xmlns="http://www.w3.org/2000/svg">
<path d="M55.4939 89.2545C55.4939 88.8233 55.4939 88.4711 55.4939 88.1154C55.4939 82.3045 55.4939 76.4972 55.4939 70.6864C55.4939 70.3558 55.4832 70.0251 55.5191 69.6981C55.6053 68.9614 56.0796 68.5661 56.7766 68.5302C57.4377 68.4979 57.9335 68.8464 58.0988 69.5148C58.185 69.8562 58.1886 70.2264 58.1886 70.5821C58.1922 76.4218 58.1922 82.2614 58.1922 88.101C58.1922 88.4568 58.1922 88.8161 58.1922 89.2977C58.6521 89.2977 59.0581 89.2977 59.4677 89.2977C61.2929 89.2977 63.1217 89.3048 64.9469 89.2941C65.9601 89.2905 66.2942 88.9635 66.2978 87.9537C66.3086 85.2585 66.3014 82.5632 66.3014 79.868C66.3014 79.6273 66.2942 79.3901 66.305 79.1493C66.3481 78.2868 66.8475 77.7622 67.62 77.7514C68.3817 77.7406 68.9781 78.2689 68.9853 79.1098C69.0105 82.2542 69.05 85.3986 68.9674 88.543C68.9171 90.48 67.3146 91.9246 65.3816 91.9965C65.1409 92.0037 64.9038 92.0001 64.6631 92.0001C44.5751 92.0001 24.4872 92.0001 4.39561 92.0001C1.39913 92.0001 0.023044 90.6165 0.023044 87.6015C0.023044 81.0144 0.0949022 74.4237 0.00148658 67.8402C-0.0883361 61.6341 3.90338 56.5635 8.96939 54.7523C14.427 52.801 19.7804 50.5621 25.1914 48.4779C25.7986 48.2443 25.9351 47.9172 25.9926 47.2991C26.1471 45.6245 25.7483 44.3811 24.3542 43.2096C22.2236 41.4164 21.0559 38.9224 20.4847 36.1805C20.4344 35.9469 20.3733 35.7169 20.3122 35.4726C19.7122 35.3971 19.1158 35.3684 18.5409 35.2462C16.1157 34.7323 14.4593 33.2877 13.6689 30.9554C12.8749 28.6088 13.3491 26.4454 14.9947 24.6091C15.4618 24.088 15.5947 23.5921 15.6199 22.9345C15.7169 20.2788 15.5767 17.5692 16.0618 14.9782C17.7073 6.24575 25.7016 -0.0682184 34.7198 6.01702e-05C43.5942 0.0683388 51.4699 6.51887 52.9969 15.2046C53.4424 17.7453 53.3095 20.3866 53.3957 22.9848C53.4173 23.6101 53.5502 24.0772 53.9921 24.5732C55.7814 26.5892 56.2197 28.925 55.167 31.4118C54.1322 33.8626 52.1813 35.1456 49.5369 35.3791C49.2746 35.4043 49.0052 35.3827 48.7034 35.3827C48.556 35.9865 48.4411 36.5399 48.283 37.0789C47.471 39.8568 45.9727 42.1962 43.7487 44.0433C43.217 44.4854 42.9834 44.9238 42.9942 45.6245C43.0373 48.1832 43.0122 48.1832 45.3799 49.1067C47.1045 49.7787 48.8327 50.4436 50.7837 50.9862C50.5537 50.4939 50.4028 49.9369 50.0758 49.5236C49.4291 48.715 49.5189 47.8633 50.3705 47.3063C50.6759 47.1087 50.9884 46.8428 51.1645 46.5301C52.2496 44.6363 53.2879 42.7137 54.3694 40.8163C54.6029 40.403 54.6245 40.1479 54.3083 39.7346C53.6652 38.8901 54.1574 37.812 55.2137 37.6395C55.5658 37.582 55.9287 37.6072 56.288 37.6072C59.5468 37.6036 62.8055 37.6072 66.1074 37.6072C66.3877 35.663 67.4224 34.5131 69.4811 34.2723C69.4811 33.3811 69.4704 32.4971 69.4847 31.613C69.4991 30.5278 69.959 29.942 70.7926 29.9205C71.6584 29.8989 72.1686 30.517 72.1866 31.6346C72.201 32.4971 72.1902 33.3595 72.1902 34.2579C74.1627 34.5203 75.2801 35.584 75.5208 37.6036C75.8909 37.6036 76.243 37.6036 76.5951 37.6036C79.7102 37.6036 82.8216 37.6108 85.9367 37.6C86.6696 37.5964 87.4421 37.6898 87.6074 38.4804C87.7223 39.0267 87.4313 39.6591 87.3199 40.2557C87.2085 40.2521 87.0972 40.2521 86.9858 40.2485C88.2182 42.4622 89.4469 44.683 90.6973 46.8859C90.8015 47.0692 91.053 47.177 91.2506 47.2956C92.1272 47.8238 92.2566 48.715 91.5955 49.4913C91.3799 49.7464 91.2434 50.077 91.1033 50.3861C90.6146 51.439 90.2374 52.553 89.6374 53.5341C88.8254 54.8709 87.5355 55.5501 85.9546 55.5788C84.5785 55.604 83.2025 55.5932 81.8228 55.5896C79.9293 55.5824 78.582 54.6409 77.6658 53.0561C77.267 52.3625 77.0119 51.5863 76.6741 50.8568C76.4334 50.3322 76.2035 49.7967 75.8909 49.3116C75.4562 48.6324 75.5963 47.8058 76.2861 47.3531C76.5268 47.1949 76.8358 47.062 76.9688 46.832C78.1688 44.7297 79.3401 42.6131 80.576 40.3886C78.8514 40.3886 77.231 40.3886 75.5388 40.3886C75.2981 42.2753 74.2094 43.4109 72.2369 43.666C72.2369 48.7977 72.2369 53.879 72.2369 59.0934C73.5375 59.0934 74.813 59.0898 76.0921 59.0934C78.2622 59.1006 79.358 60.1786 79.376 62.3348C79.3832 63.2332 79.4048 64.1316 79.3688 65.03C79.297 66.8017 78.1508 67.9193 76.3831 67.9337C73.9651 67.9516 71.5471 67.9372 69.0141 67.9372C69.0141 69.4142 69.0177 70.8121 69.0105 72.2065C69.0069 72.5335 69.0141 72.8785 68.9171 73.1803C68.6943 73.8595 68.1805 74.2009 67.4655 74.0931C66.7541 73.9889 66.3409 73.5325 66.3266 72.8066C66.3014 71.5488 66.3158 70.2911 66.3158 69.0333C66.3158 68.7099 66.3158 68.3865 66.3158 67.9229C65.8056 67.9229 65.3673 67.948 64.9325 67.9193C63.5888 67.8294 62.4498 66.8053 62.3672 65.4792C62.2845 64.1676 62.2846 62.8415 62.3816 61.5334C62.4247 60.9477 62.7983 60.3835 63.0355 59.769C61.8606 58.3136 56.561 55.8016 52.8388 55.0003C52.9969 56.8977 53.1514 58.7664 53.3023 60.6314C53.4065 61.9144 53.5107 63.1973 53.6149 64.4802C53.7191 65.7919 53.3598 66.9634 52.5693 68.0127C51.9406 68.85 51.3585 69.7269 50.6938 70.5354C49.8351 71.5776 49.6734 72.6521 50.3058 73.8559C50.5429 74.3051 50.6902 74.7974 50.9166 75.2502C51.8507 77.1261 51.3226 78.9373 50.6471 80.7197C50.4064 81.3486 49.8028 81.5534 49.1453 81.3989C48.477 81.2408 48.1465 80.7772 48.1501 80.0908C48.1501 79.8824 48.1608 79.656 48.2471 79.4763C48.9872 77.9167 48.6351 76.4829 47.8806 75.0274C46.7416 72.8353 47.0255 70.7582 48.5884 68.8428C49.0231 68.311 49.3645 67.6965 49.8279 67.1934C50.7693 66.1656 51.0136 64.9977 50.8735 63.6321C50.5717 60.7141 50.3453 57.7889 50.1297 54.8637C50.0723 54.0983 49.8567 53.5988 49.0411 53.3903C48.3261 53.2106 47.6506 52.8836 46.8243 52.5746C45.2721 64.8396 43.7344 77.0111 42.1858 89.2438C43.332 89.2438 44.3703 89.2438 45.459 89.2438C45.7572 88.2232 46.0554 87.1918 46.3572 86.164C46.6626 85.1291 47.2806 84.6583 48.0566 84.856C48.9046 85.0716 49.2351 85.8083 48.9513 86.8648C48.7573 87.5871 48.5596 88.3058 48.3692 89.0281C48.3548 89.082 48.3836 89.1431 48.398 89.2474C50.7082 89.2545 53.0328 89.2545 55.4939 89.2545ZM22.8775 28.3321C22.8811 28.3321 22.8847 28.3321 22.8883 28.3321C22.8883 30.0965 22.8344 31.8646 22.8991 33.6291C23.1254 39.7454 28.0405 44.5249 34.2455 44.7153C40.2816 44.8986 45.5883 40.3599 46.0123 34.337C46.2817 30.4954 46.2278 26.6215 46.0949 22.7656C45.9692 19.2043 42.5056 17.1452 39.2576 18.6473C36.0491 20.1279 32.9736 20.1243 29.7615 18.6437C26.3375 17.0625 22.9206 19.3948 22.8811 23.2184C22.8632 24.9217 22.8775 26.6251 22.8775 28.3321ZM16.1732 54.8853C13.7803 55.8196 11.506 56.6353 9.28915 57.5877C5.25432 59.3198 2.92252 62.4678 2.80036 66.8053C2.59916 73.8955 2.73928 80.9964 2.73569 88.0938C2.73569 88.1836 2.70335 88.3094 2.75006 88.3561C3.05187 88.676 3.36086 89.2366 3.68422 89.2474C6.03757 89.3228 8.39452 89.2869 10.8377 89.2869C10.8377 88.8485 10.8377 88.4963 10.8377 88.1477C10.8377 82.2793 10.8377 76.411 10.8413 70.5426C10.8413 70.2156 10.8269 69.8742 10.906 69.5616C11.0856 68.868 11.5778 68.4799 12.2892 68.5338C12.9934 68.5877 13.4426 69.0046 13.5216 69.7341C13.5539 70.0287 13.5396 70.3306 13.5396 70.6325C13.5396 76.5008 13.5396 82.3692 13.5396 88.2375C13.5396 88.5574 13.5396 88.8808 13.5396 89.233C15.972 89.233 18.3074 89.233 20.7074 89.233C19.7266 85.7687 18.7708 82.38 17.8079 78.9876C17.4522 77.7298 17.5241 76.5044 18.0523 75.3077C18.3181 74.704 18.5876 74.1039 18.8499 73.5037C19.2559 72.573 19.1661 71.7069 18.5481 70.884C17.8259 69.9281 17.1253 68.9614 16.4139 67.9948C15.5624 66.834 15.2498 65.5475 15.3899 64.1029C15.6738 61.1058 15.9037 58.0944 16.1732 54.8853ZM50.6902 22.5212C50.6902 20.9436 50.7118 19.4523 50.6795 17.9609C50.6651 17.3069 50.5789 16.6457 50.4567 16.0024C48.7932 7.03635 40.2097 1.20033 31.231 3.06541C22.9494 4.78675 17.0786 12.2435 18.4403 22.5068C19.0008 22.4709 19.5613 22.435 20.1002 22.399C20.1469 22.3092 20.1864 22.2589 20.1972 22.205C20.2403 22.0325 20.2763 21.8564 20.3086 21.6767C20.6679 19.5529 21.7458 17.8855 23.5494 16.7211C25.9531 15.1723 28.4932 15.0034 31.0622 16.236C33.3832 17.35 35.6575 17.4111 37.9534 16.2288C38.2193 16.0922 38.4995 15.9844 38.7797 15.8874C42.9906 14.3853 47.6003 16.8828 48.6351 21.2347C48.7249 21.6084 48.7788 21.9894 48.8543 22.3918C49.4686 22.435 50.0327 22.4745 50.6902 22.5212ZM26.8154 89.2941C25.2596 77.0111 23.7183 64.8252 22.1661 52.5458C21.2571 52.9016 20.4954 53.2502 19.705 53.4981C19.1229 53.6778 18.9397 53.9904 18.893 54.587C18.6523 57.8392 18.3217 61.0878 18.1205 64.3436C18.0774 65.0336 18.3792 65.7775 18.6523 66.4423C18.8499 66.9239 19.2271 67.3587 19.5936 67.7468C22.0476 70.3414 22.4105 73.1444 20.6176 76.2708C20.323 76.7847 20.2475 77.5861 20.402 78.1683C21.3434 81.7223 22.3781 85.2513 23.4021 88.7838C23.4596 88.985 23.7147 89.2653 23.8907 89.2725C24.8429 89.3228 25.795 89.2941 26.8154 89.2941ZM33.0562 66.0039C31.9856 73.7733 30.9185 81.4923 29.8514 89.2474C32.9988 89.2474 36.0671 89.2474 39.1786 89.2474C38.1043 81.4708 37.0408 73.7481 35.9701 66.0039C34.982 66.0039 34.091 66.0039 33.0562 66.0039ZM61.0594 40.3491C62.2342 42.4622 63.3193 44.4494 64.4439 46.4115C64.6523 46.7709 64.9936 47.0871 65.3385 47.3279C66.111 47.8597 66.2439 48.7617 65.6116 49.4877C65.4427 49.6817 65.2271 49.8937 65.1732 50.1273C64.6595 52.3194 63.6894 54.1989 61.6127 55.3273C62.4211 55.8663 63.2043 56.3083 63.8906 56.8689C64.6056 57.4511 65.2164 58.159 65.8918 58.7915C66.0499 58.9389 66.2906 59.0754 66.4954 59.0826C67.4476 59.1149 68.4033 59.097 69.4201 59.097C69.4201 53.933 69.4201 48.8336 69.4201 43.6732C67.4835 43.4288 66.3661 42.3148 66.1218 40.3491C64.4619 40.3491 62.8558 40.3491 61.0594 40.3491ZM40.1379 46.3361C36.3905 47.8382 32.5784 47.734 28.7771 46.2786C28.6801 47.3315 28.6945 48.2694 28.4789 49.1535C28.3531 49.6602 28.4465 49.9045 28.7699 50.2208C29.7328 51.1587 30.7209 52.0787 31.6155 53.0813C32.3305 53.8791 32.9233 54.7882 33.7102 55.834C34.1521 55.834 34.9174 55.834 35.3629 55.834C36.0348 54.8817 36.5018 54.0623 37.1198 53.3759C38.1186 52.2691 39.2217 51.2521 40.2708 50.1884C40.4325 50.0267 40.6768 49.7967 40.6552 49.6278C40.5259 48.5533 40.3283 47.4824 40.1379 46.3361ZM26.007 61.3681C26.7687 67.409 27.5303 73.4355 28.3244 79.7279C28.4501 79.2823 28.5292 79.0918 28.5579 78.8978C29.0537 75.3185 29.4166 71.7141 30.0741 68.1636C30.4909 65.914 30.3436 63.9376 28.8633 62.1443C28.7879 62.0545 28.7627 61.9144 28.6765 61.8425C28.5507 61.7383 28.3962 61.6233 28.2453 61.6017C27.5447 61.5119 26.8405 61.4508 26.007 61.3681ZM40.5223 79.1817C40.5906 79.1745 40.6624 79.1673 40.7307 79.1601C41.4816 73.2127 42.2361 67.2652 42.9727 61.4328C40.7702 61.095 39.7103 62.3851 39.0169 64.1316C38.8193 64.6311 38.636 65.2061 38.6863 65.72C38.8588 67.4737 39.139 69.2166 39.3834 70.9595C39.7606 73.7014 40.1415 76.4433 40.5223 79.1817ZM76.6059 61.8497C72.7363 61.8497 68.9242 61.8497 65.0691 61.8497C65.0691 62.9853 65.0691 64.0669 65.0691 65.1953C68.9386 65.1953 72.7471 65.1953 76.6059 65.1953C76.6059 64.0562 76.6059 62.9673 76.6059 61.8497ZM38.3558 59.8696C38.0504 59.6001 37.7809 59.3126 37.4647 59.097C37.1234 58.8634 36.7462 58.5507 36.3653 58.5256C35.1509 58.4429 33.9293 58.4681 32.7113 58.4789C32.467 58.4825 32.1832 58.5436 31.9927 58.6801C31.5149 59.0287 31.0765 59.4348 30.6813 59.7654C32.4311 63.3698 32.4311 63.3698 35.7833 63.2656C35.8443 63.262 35.9126 63.2871 35.9593 63.262C36.1749 63.1434 36.4659 63.0643 36.5809 62.881C37.1773 61.9251 37.7306 60.9405 38.3558 59.8696ZM79.9688 47.044C82.5773 47.044 85.0672 47.044 87.6684 47.044C86.3678 44.7153 85.1426 42.5161 83.8168 40.1407C82.4731 42.5484 81.2335 44.7728 79.9688 47.044ZM57.8365 40.1335C56.4928 42.552 55.2568 44.7692 53.9777 47.0692C56.6293 47.0692 59.1048 47.0692 61.7025 47.0692C60.4126 44.7585 59.1875 42.5592 57.8365 40.1335ZM25.7878 51.1623C25.2129 51.3384 24.7027 51.3995 24.8213 52.1541C25.0441 53.5664 25.1806 54.9931 25.3854 56.4125C25.4213 56.6533 25.5758 56.9085 25.7447 57.0953C26.2082 57.602 26.7219 58.062 27.1854 58.5651C27.5375 58.946 27.8429 59.0071 28.2274 58.6046C28.8849 57.9147 29.5603 57.2355 30.2538 56.5814C30.6921 56.1646 30.5987 55.8483 30.2035 55.4638C28.8813 54.1701 27.5842 52.8477 26.2728 51.5432C26.1183 51.3815 25.9207 51.2629 25.7878 51.1623ZM20.1326 25.1517C18.4008 25.0835 17.1828 25.777 16.4462 27.2037C15.7205 28.6052 15.8821 30.0031 16.8558 31.2393C17.6714 32.2779 18.7672 32.763 20.1326 32.6516C20.1326 30.1145 20.1326 27.678 20.1326 25.1517ZM44.2122 51.6043C43.7056 51.4067 43.314 50.9395 42.7571 51.5145C41.4529 52.8657 40.1127 54.1881 38.7726 55.507C38.3989 55.8771 38.363 56.1897 38.7546 56.5635C39.4408 57.2283 40.0947 57.9219 40.7954 58.5759C40.9642 58.734 41.3882 58.9065 41.4565 58.8382C42.1966 58.0872 43.2314 57.3936 43.5188 56.4772C44.0038 54.9392 44.0038 53.2502 44.2122 51.6043ZM48.9261 25.2092C48.9261 27.7319 48.9261 30.1936 48.9261 32.648C51.2507 32.7522 53.0759 30.9985 53.0041 28.7992C52.9322 26.6359 51.0998 25.0008 48.9261 25.2092ZM88.5559 49.9153C85.3043 49.9153 82.3114 49.9153 79.3077 49.9153C79.588 51.6654 80.5617 52.8333 81.83 52.8764C83.1701 52.9231 84.5211 52.9663 85.854 52.8441C86.4001 52.7938 87.0253 52.4057 87.399 51.9816C87.8696 51.4498 88.1247 50.7203 88.5559 49.9153ZM53.2663 49.9081C53.8879 52.2979 54.6496 52.898 56.9132 52.9016C57.7503 52.9016 58.5982 52.8189 59.4246 52.9196C60.9372 53.1064 62.1336 51.633 62.2881 49.9117C59.3096 49.9081 56.3311 49.9081 53.2663 49.9081ZM70.8788 37.025C68.7446 37.0322 68.8632 36.7807 68.8704 39.0734C68.8739 40.9205 68.8703 40.9169 70.7279 40.9205C73.0058 40.9241 72.7687 41.0499 72.7758 38.9081C72.7866 36.8561 72.8872 37.0178 70.8788 37.025Z" fill="black"/>
<path d="M22.8775 28.3321C22.8775 26.6251 22.8631 24.9217 22.8811 23.2148C22.9206 19.3912 26.3338 17.0589 29.7615 18.6401C32.9699 20.1207 36.0491 20.1279 39.2575 18.6437C42.5055 17.1416 45.9727 19.2007 46.0948 22.762C46.2314 26.6143 46.2817 30.4918 46.0122 34.3334C45.5882 40.3563 40.2815 44.895 34.2454 44.7118C28.0405 44.5213 23.129 39.7418 22.899 33.6255C22.8343 31.861 22.8882 30.0965 22.8882 28.3285C22.8846 28.3321 22.8811 28.3321 22.8775 28.3321Z" fill="white"/>
<path d="M50.6904 22.5212C50.0293 22.4745 49.4688 22.4349 48.858 22.3918C48.7826 21.9893 48.7251 21.6084 48.6388 21.2347C47.6005 16.8828 42.9944 14.3852 38.7835 15.8874C38.5032 15.988 38.2194 16.0958 37.9571 16.2288C35.6577 17.4111 33.3869 17.35 31.0659 16.2359C28.4934 15.0033 25.9532 15.1722 23.5532 16.7211C21.7495 17.8818 20.6716 19.5528 20.3124 21.6767C20.2836 21.8528 20.2441 22.0288 20.201 22.2049C20.1866 22.2624 20.1471 22.3127 20.104 22.399C19.565 22.4349 19.0045 22.4709 18.444 22.5068C17.0787 12.2434 22.9495 4.78671 31.2312 3.06177C40.2099 1.1931 48.7969 7.03271 50.4569 15.9988C50.5754 16.6456 50.6652 17.3032 50.6796 17.9573C50.7155 19.4522 50.6904 20.9436 50.6904 22.5212Z" fill="#3A3838"/>
<path d="M33.0564 66.0039C34.0912 66.0039 34.9822 66.0039 35.9703 66.0039C37.0374 73.7481 38.1045 81.4708 39.1788 89.2474C36.0673 89.2474 32.9989 89.2474 29.8516 89.2474C30.9222 81.4924 31.9858 73.7733 33.0564 66.0039Z" fill="#BE202E"/>
<path d="M40.138 46.3361C40.3284 47.4788 40.526 48.5497 40.6589 49.6278C40.6805 49.7967 40.4362 50.0267 40.2745 50.1884C39.2254 51.2521 38.1223 52.2691 37.1235 53.3759C36.5055 54.0623 36.0349 54.8817 35.3666 55.834C34.9211 55.834 34.1558 55.834 33.7138 55.834C32.9234 54.7846 32.3306 53.8791 31.6192 53.0813C30.7245 52.0787 29.7401 51.1587 28.7736 50.2208C28.4502 49.9045 28.3568 49.6602 28.4826 49.1535C28.7017 48.273 28.6874 47.3315 28.7808 46.2786C32.5785 47.734 36.3942 47.8418 40.138 46.3361Z" fill="white"/>
<path d="M26.0068 61.3682C26.8404 61.4508 27.5446 61.5119 28.2452 61.6017C28.3997 61.6233 28.5506 61.7383 28.6764 61.8425C28.7626 61.9144 28.7877 62.0545 28.8632 62.1444C30.3435 63.9376 30.4908 65.9141 30.074 68.1637C29.4165 71.7142 29.05 75.3186 28.5578 78.8978C28.5291 79.0954 28.4536 79.2823 28.3243 79.7279C27.5302 73.4355 26.7721 67.409 26.0068 61.3682Z" fill="white"/>
<path d="M40.5221 79.1817C40.1413 76.4433 39.764 73.7014 39.3832 70.9631C39.1425 69.2166 38.8622 67.4737 38.6862 65.7236C38.6359 65.2097 38.8191 64.6347 39.0167 64.1352C39.7101 62.3887 40.77 61.095 42.9725 61.4364C42.2359 67.2688 41.4814 73.2163 40.7305 79.1637C40.6587 79.1673 40.5904 79.1745 40.5221 79.1817Z" fill="white"/>
<path d="M76.6057 61.8497C76.6057 62.9673 76.6057 64.0561 76.6057 65.1953C72.7469 65.1953 68.9384 65.1953 65.0688 65.1953C65.0688 64.0705 65.0688 62.9853 65.0688 61.8497C68.924 61.8497 72.7361 61.8497 76.6057 61.8497Z" fill="#F5CF6D"/>
<path d="M38.3556 59.8696C37.7304 60.9405 37.1807 61.9251 36.5807 62.881C36.4657 63.0679 36.1747 63.1434 35.9591 63.262C35.9124 63.2871 35.8406 63.2656 35.7831 63.2656C32.4309 63.3698 32.4309 63.3698 30.6812 59.7654C31.0764 59.4312 31.5147 59.0251 31.9926 58.6801C32.183 58.5436 32.4668 58.4789 32.7111 58.4789C33.9291 58.4681 35.1507 58.4465 36.3651 58.5256C36.746 58.5507 37.1232 58.8634 37.4646 59.097C37.7807 59.3126 38.0502 59.5965 38.3556 59.8696Z" fill="#BE202E"/>
<path d="M79.9688 47.044C81.2335 44.7729 82.473 42.5484 83.8132 40.1407C85.1389 42.5161 86.3677 44.7189 87.6648 47.044C85.0707 47.044 82.5772 47.044 79.9688 47.044Z" fill="white"/>
<path d="M57.8363 40.1335C59.1873 42.5556 60.4124 44.7585 61.7023 47.0691C59.1082 47.0691 56.6327 47.0691 53.9775 47.0691C55.2566 44.7692 56.4926 42.552 57.8363 40.1335Z" fill="white"/>
<path d="M25.7878 51.1623C25.9207 51.2629 26.1183 51.3815 26.2764 51.5396C27.5878 52.8441 28.8885 54.163 30.2071 55.4603C30.5987 55.8448 30.6957 56.161 30.2574 56.5779C29.5639 57.2355 28.8885 57.9111 28.231 58.6011C27.8465 59.0071 27.5411 58.9425 27.189 58.5615C26.7219 58.0584 26.2082 57.5984 25.7483 57.0917C25.5794 56.9049 25.4213 56.6497 25.389 56.409C25.1842 54.9931 25.0476 53.5664 24.8249 52.1505C24.7027 51.3995 25.2129 51.3384 25.7878 51.1623Z" fill="white"/>
<path d="M20.1327 25.1517C20.1327 27.6744 20.1327 30.1145 20.1327 32.648C18.7674 32.763 17.6716 32.2779 16.856 31.2357C15.8859 29.9995 15.7242 28.6016 16.4464 27.2001C17.1829 25.7806 18.4009 25.0834 20.1327 25.1517Z" fill="white"/>
<path d="M44.2121 51.6043C44.0037 53.2502 44.0001 54.9392 43.5187 56.4736C43.2277 57.39 42.1965 58.0836 41.4564 58.8346C41.3881 58.9029 40.9641 58.7304 40.7953 58.5723C40.0983 57.9219 39.4443 57.2247 38.7545 56.5599C38.3665 56.1825 38.3988 55.8699 38.7725 55.5034C40.1126 54.1845 41.4528 52.8656 42.757 51.5109C43.3139 50.9359 43.7091 51.4066 44.2121 51.6043Z" fill="white"/>
<path d="M48.9263 25.2092C51.0964 25.0008 52.9324 26.6395 53.0042 28.7992C53.0761 30.9949 51.2545 32.7522 48.9263 32.648C48.9263 30.19 48.9263 27.7319 48.9263 25.2092Z" fill="white"/>
<path d="M88.5558 49.9153C88.1246 50.7167 87.8731 51.4462 87.3988 51.9816C87.0252 52.4057 86.4 52.7902 85.8539 52.8441C84.5245 52.9663 83.17 52.9231 81.8298 52.8764C80.5615 52.8333 79.5879 51.6654 79.3076 49.9153C82.3077 49.9153 85.3042 49.9153 88.5558 49.9153Z" fill="#F5CF6D"/>
<path d="M53.2661 49.9081C56.3309 49.9081 59.3094 49.9081 62.2879 49.9081C62.1334 51.6294 60.937 53.1028 59.4244 52.9159C58.598 52.8153 57.7501 52.898 56.9129 52.898C54.6494 52.898 53.8877 52.2942 53.2661 49.9081Z" fill="#F5CF6D"/>
<path d="M70.8789 37.025C72.8838 37.0178 72.7868 36.8597 72.776 38.908C72.7652 41.0498 73.0059 40.9241 70.728 40.9205C68.8705 40.9169 68.8741 40.9205 68.8705 39.0734C68.8669 36.7806 68.7447 37.0322 70.8789 37.025Z" fill="white"/>
</svg>
