<svg width="231" height="231" viewBox="0 0 231 231" fill="none" xmlns="http://www.w3.org/2000/svg">
<rect x="13.8735" y="13.443" width="203.139" height="203.139" fill="white"/>
<rect x="1.17701" y="0.746835" width="228.532" height="228.532" stroke="#CCCCCC" stroke-width="1.49367"/>
<path d="M161.766 164.665C161.766 165.894 161.766 166.982 161.766 168.07C161.762 169.907 161.399 170.279 159.603 170.279C145.809 170.279 132.02 170.279 118.226 170.279C116.503 170.279 116.153 169.938 116.149 168.238C116.144 161.513 116.122 154.784 116.172 148.059C116.181 146.989 115.85 146.753 114.834 146.753C96.7321 146.781 78.6348 146.776 60.533 146.776C60.1567 146.776 59.7758 146.785 59.3994 146.772C58.0708 146.717 57.5765 146.1 57.8078 144.785C58.8961 138.578 60.1068 132.388 61.0364 126.158C61.4853 123.129 62.5146 120.589 65.1492 118.98C66.7453 118.005 68.4684 117.143 70.246 116.585C76.4628 114.617 82.725 112.803 89.2229 110.858C89.2229 110.187 89.2638 109.14 89.1957 108.101C89.1776 107.852 88.8375 107.571 88.579 107.403C85.2688 105.267 82.8882 102.379 81.3964 98.7283C81.2558 98.3883 80.757 98.0074 80.3988 97.9801C77.5284 97.7534 75.4607 96.0076 75.0299 93.3504C74.6172 90.8111 76.1136 88.4577 78.7663 87.4646C78.9386 87.4011 79.1064 87.315 79.3558 87.2061C77.6146 84.9525 76.49 82.4812 76.0003 79.7151C74.3316 70.2697 81.7818 61.1644 91.3814 61.0147C95.6892 60.9513 99.997 60.9059 104.305 61.0193C110.703 61.187 115.55 64.1481 118.448 69.8344C121.332 75.4844 120.783 81.0755 117.278 86.3627C117.092 86.6393 116.897 86.9114 116.702 87.1925C120.071 88.7161 121.413 90.7068 120.969 93.4683C120.529 96.1981 118.552 97.6899 114.965 98.0164C114.394 99.1727 113.886 100.356 113.242 101.458C111.868 103.812 110.014 105.743 107.71 107.194C107.016 107.63 106.749 108.092 106.767 108.913C106.821 111.153 106.803 111.071 108.98 111.647C112.553 112.586 116.095 113.642 119.65 114.649C120.194 114.803 120.729 114.966 121.259 115.121C121.327 115.03 121.395 114.98 121.4 114.926C121.554 112.563 121.64 112.482 124.007 112.482C137.611 112.482 151.214 112.482 164.818 112.482C166.704 112.482 167.026 112.813 167.026 114.735C167.026 130.642 167.026 146.549 167.026 162.461C167.026 164.397 166.745 164.674 164.795 164.678C163.825 164.665 162.85 164.665 161.766 164.665ZM118.978 120.861C118.978 136.478 118.978 151.977 118.978 167.485C132.351 167.485 145.632 167.485 158.964 167.485C158.964 151.923 158.964 136.419 158.964 120.861C145.61 120.861 132.333 120.861 118.978 120.861ZM77.6781 144.037C81.6866 144.037 85.5364 144.055 89.3862 144.001C89.6447 143.996 90.0664 143.48 90.1253 143.153C90.8372 139.104 91.463 135.036 92.184 130.991C92.515 129.137 92.6964 127.341 91.599 125.668C89.2547 126.706 89.2547 126.711 87.8036 124.503C86.0397 121.823 84.2667 119.147 82.5345 116.449C82.1899 115.914 81.8816 115.774 81.2513 115.973C78.127 116.971 74.9573 117.832 71.8603 118.907C70.0601 119.533 68.2916 120.344 66.641 121.306C65.1809 122.158 64.2287 123.478 63.9838 125.301C63.621 127.99 63.0633 130.651 62.5962 133.327C61.9841 136.846 61.3765 140.369 60.7552 143.969C65.5165 143.969 70.1734 143.969 74.9528 143.969C74.9528 143.493 74.9528 143.085 74.9528 142.677C74.9528 139.884 74.9619 137.086 74.9483 134.293C74.9437 133.399 75.3382 132.832 76.2315 132.728C77.0251 132.633 77.6191 133.3 77.6735 134.265C77.6962 134.642 77.6781 135.023 77.6781 135.399C77.6781 138.219 77.6781 141.049 77.6781 144.037ZM82.9517 84.5897C82.9517 87.4238 82.8837 90.0991 82.9653 92.77C83.192 100.098 88.8284 106.364 95.8932 107.222C103.534 108.151 110.44 103.662 112.485 96.384C113.569 92.5342 112.857 88.5937 113.097 84.4899C107.025 85.0205 101.425 84.5761 98.029 78.5815C95.2765 83.0797 91.3088 84.889 86.28 84.5988C85.228 84.5353 84.1715 84.5897 82.9517 84.5897ZM115.872 83.4153C116.058 83.0797 116.153 82.921 116.235 82.7532C120.352 74.0515 114.004 63.8488 104.368 63.7264C100.138 63.672 95.9023 63.6357 91.6761 63.7581C90.1208 63.8035 88.511 64.1345 87.0464 64.6696C79.6778 67.3585 76.2179 76.6724 80.0723 83.2067C80.7751 81.9189 80.8704 81.8645 82.3622 81.8599C84.2894 81.8554 86.2166 81.8871 88.1437 81.8463C91.9119 81.7692 95.2539 79.1982 96.265 75.5751C96.4963 74.7453 96.4238 73.8202 96.7185 73.0267C96.8999 72.5324 97.4531 71.9747 97.9474 71.8432C98.7001 71.6437 99.1989 72.2059 99.344 72.9813C99.3939 73.2398 99.4029 73.5073 99.4211 73.7703C99.743 78.2731 103.421 81.7738 107.951 81.8509C109.914 81.8871 111.882 81.8871 113.845 81.8509C114.879 81.8282 115.623 82.132 115.872 83.4153ZM104.142 125.455C103.928 126.842 103.452 128.089 103.611 129.246C104.25 133.88 105.098 138.487 105.833 143.108C105.955 143.874 106.295 144.064 107.025 144.055C109.746 144.015 112.467 144.042 115.188 144.033C115.473 144.033 115.763 143.974 116.153 143.928C116.153 143.343 116.153 142.822 116.153 142.296C116.153 134.85 116.149 127.409 116.158 119.964C116.158 118.454 116.539 118.091 118.031 118.073C118.956 118.064 119.881 118.073 120.806 118.073C118.92 117.261 116.974 116.712 115.07 116.041C114.231 115.742 113.8 115.914 113.333 116.649C111.469 119.578 109.547 122.476 107.633 125.373C106.885 126.511 106.35 126.634 105.171 126.013C104.94 125.895 104.713 125.768 104.142 125.455ZM164.247 115.279C150.843 115.279 137.534 115.279 124.257 115.279C124.257 116.245 124.257 117.129 124.257 118.077C124.801 118.077 125.25 118.077 125.699 118.077C136.958 118.077 148.213 118.077 159.472 118.077C161.467 118.077 161.771 118.381 161.771 120.363C161.771 133.735 161.771 147.107 161.771 160.479C161.771 160.924 161.771 161.364 161.771 161.862C162.664 161.862 163.43 161.862 164.251 161.862C164.247 146.318 164.247 130.842 164.247 115.279ZM92.7825 143.974C96.3467 143.974 99.7249 143.974 103.23 143.974C102.468 139.33 101.729 134.764 100.954 130.207C100.913 129.976 100.537 129.636 100.31 129.627C98.623 129.577 96.9316 129.599 95.1632 129.599C94.3605 134.415 93.5806 139.126 92.7825 143.974ZM98.0018 118.354C99.6614 116.581 101.194 114.753 102.931 113.139C104.214 111.946 104.155 110.636 103.942 109.085C99.9335 110.436 95.9794 110.4 91.7124 108.972C91.9799 110.278 91.8756 111.547 92.4561 112.282C94.1157 114.377 96.0474 116.254 98.0018 118.354ZM111.234 114.917C109.497 114.563 107.919 114.232 106.336 113.933C106.15 113.896 105.86 113.973 105.738 114.105C103.901 116.041 102.087 118 100.192 120.032C102.133 121.133 103.947 122.163 105.801 123.21C107.629 120.417 109.374 117.751 111.234 114.917ZM95.8252 120.032C93.9479 118.014 92.1568 116.077 90.3475 114.159C90.2115 114.019 89.9439 113.883 89.7671 113.919C88.1573 114.223 86.5521 114.563 84.7882 114.926C86.6791 117.805 88.443 120.494 90.2296 123.219C92.1296 122.136 93.898 121.129 95.8252 120.032ZM98.0517 126.861C98.8044 126.861 99.5571 126.883 100.305 126.847C100.568 126.833 100.99 126.738 101.063 126.566C101.362 125.845 101.738 125.069 101.711 124.33C101.697 123.967 100.854 123.641 100.387 123.296C100.355 123.274 100.319 123.265 100.292 123.237C98.7817 121.936 97.3533 122.018 95.7209 123.192C93.9162 124.489 94.0613 123.741 94.6689 125.926C94.8866 126.702 95.2629 126.942 96.0202 126.879C96.6958 126.811 97.376 126.861 98.0517 126.861ZM115.723 95.1234C117.264 95.0644 118.294 94.0487 118.285 92.5523C118.276 91.124 117.246 90.0855 115.723 90.1037C115.723 91.7679 115.723 93.4456 115.723 95.1234ZM80.2854 90.0719C78.7255 90.1445 77.7461 91.1376 77.7143 92.5161C77.678 93.9762 78.7573 95.0554 80.2854 95.1279C80.2854 93.4774 80.2854 91.8268 80.2854 90.0719Z" fill="black"/>
<path d="M118.979 120.861C132.329 120.861 145.61 120.861 158.964 120.861C158.964 136.419 158.964 151.918 158.964 167.485C145.633 167.485 132.356 167.485 118.979 167.485C118.979 151.977 118.979 136.478 118.979 120.861ZM138.963 150.104C142.776 150.104 146.585 150.104 150.399 150.104C151.002 150.104 151.609 150.132 152.208 150.091C153.002 150.036 153.464 149.578 153.487 148.785C153.509 147.987 153.038 147.529 152.271 147.402C151.977 147.352 151.668 147.379 151.369 147.379C143.066 147.379 134.764 147.379 126.456 147.384C126.08 147.384 125.586 147.293 125.359 147.488C124.946 147.837 124.43 148.39 124.452 148.83C124.475 149.266 125.069 149.733 125.504 150.059C125.726 150.222 126.162 150.109 126.502 150.109C130.66 150.104 134.814 150.104 138.963 150.104ZM138.886 164.361C142.096 164.361 145.302 164.361 148.512 164.361C149.719 164.361 150.929 164.388 152.135 164.343C152.965 164.311 153.496 163.844 153.491 162.982C153.487 162.13 152.974 161.686 152.131 161.636C151.904 161.622 151.677 161.627 151.451 161.627C143.107 161.627 134.768 161.627 126.425 161.627C126.121 161.627 125.731 161.527 125.536 161.672C125.101 162.003 124.452 162.47 124.461 162.869C124.47 163.354 125.014 163.885 125.441 164.279C125.631 164.456 126.094 164.352 126.429 164.352C130.583 164.361 134.736 164.361 138.886 164.361ZM138.895 157.224C143.044 157.224 147.197 157.224 151.346 157.224C152.884 157.224 153.514 156.82 153.505 155.859C153.496 154.906 152.852 154.498 151.328 154.494C151.292 154.494 151.251 154.494 151.215 154.494C143.026 154.494 134.836 154.494 126.647 154.494C126.307 154.494 125.967 154.485 125.631 154.535C124.86 154.639 124.38 155.074 124.384 155.881C124.389 156.689 124.865 157.119 125.649 157.201C125.985 157.237 126.329 157.228 126.665 157.228C130.746 157.224 134.823 157.224 138.895 157.224Z" fill="white"/>
<path d="M77.6777 144.037C77.6777 141.049 77.6777 138.224 77.6777 135.399C77.6777 135.023 77.6913 134.642 77.6732 134.265C77.6188 133.299 77.0247 132.633 76.2312 132.728C75.3379 132.832 74.9434 133.399 74.9479 134.292C74.957 137.086 74.9525 139.884 74.9525 142.677C74.9525 143.085 74.9525 143.493 74.9525 143.969C70.1776 143.969 65.5161 143.969 60.7549 143.969C61.3761 140.369 61.9837 136.845 62.5959 133.327C63.063 130.651 63.6207 127.989 63.9835 125.301C64.2283 123.478 65.1806 122.158 66.6407 121.306C68.2867 120.344 70.0552 119.533 71.8599 118.907C74.957 117.832 78.1266 116.971 81.2509 115.973C81.8812 115.773 82.1896 115.914 82.5342 116.449C84.2709 119.147 86.0439 121.823 87.8033 124.502C89.2498 126.706 89.2498 126.706 91.5987 125.668C92.7006 127.346 92.5192 129.137 92.1836 130.991C91.4581 135.041 90.8369 139.104 90.125 143.153C90.066 143.479 89.6443 143.996 89.3858 144.001C85.536 144.051 81.6862 144.037 77.6777 144.037Z" fill="white"/>
<path d="M82.952 84.5896C84.1718 84.5896 85.2284 84.5398 86.2758 84.5987C91.3091 84.8889 95.2723 83.0842 98.0248 78.5814C101.421 84.576 107.021 85.0159 113.093 84.4899C112.853 88.5936 113.565 92.5341 112.481 96.3839C110.436 103.662 103.534 108.146 95.889 107.221C88.8242 106.364 83.1878 100.098 82.9611 92.7699C82.884 90.0991 82.952 87.4192 82.952 84.5896Z" fill="white"/>
<path d="M115.872 83.4152C115.623 82.1319 114.883 81.8326 113.845 81.8507C111.882 81.887 109.914 81.887 107.95 81.8507C103.42 81.7691 99.7426 78.2685 99.4207 73.7702C99.4025 73.5072 99.3935 73.2397 99.3436 72.9812C99.1985 72.2058 98.6951 71.6435 97.947 71.8431C97.4527 71.9746 96.8995 72.5323 96.7181 73.0266C96.4234 73.8201 96.4959 74.7452 96.2646 75.575C95.2534 79.1981 91.9115 81.7691 88.1433 81.8462C86.2162 81.887 84.289 81.8553 82.3618 81.8598C80.87 81.8643 80.7747 81.9188 80.0719 83.2066C76.2175 76.6723 79.6819 67.3584 87.046 64.6694C88.5106 64.1344 90.1204 63.8034 91.6757 63.758C95.9019 63.6356 100.137 63.6719 104.368 63.7263C114.004 63.8487 120.352 74.0514 116.235 82.7531C116.153 82.9164 116.053 83.0751 115.872 83.4152Z" fill="#3A3838"/>
<path d="M104.141 125.455C104.713 125.768 104.94 125.895 105.171 126.017C106.35 126.638 106.88 126.511 107.633 125.378C109.547 122.48 111.469 119.583 113.333 116.653C113.8 115.919 114.231 115.746 115.07 116.046C116.97 116.721 118.915 117.27 120.806 118.077C119.881 118.077 118.956 118.068 118.031 118.077C116.539 118.091 116.158 118.458 116.158 119.968C116.149 127.414 116.153 134.855 116.153 142.3C116.153 142.822 116.153 143.343 116.153 143.933C115.763 143.978 115.478 144.037 115.188 144.037C112.467 144.046 109.746 144.019 107.025 144.06C106.291 144.069 105.951 143.878 105.833 143.112C105.098 138.491 104.25 133.884 103.611 129.25C103.452 128.085 103.928 126.842 104.141 125.455Z" fill="white"/>
<path d="M164.246 115.279C164.246 130.842 164.246 146.318 164.246 161.862C163.43 161.862 162.659 161.862 161.766 161.862C161.766 161.364 161.766 160.919 161.766 160.479C161.766 147.107 161.766 133.735 161.766 120.362C161.766 118.381 161.462 118.077 159.467 118.077C148.208 118.077 136.953 118.077 125.694 118.077C125.245 118.077 124.796 118.077 124.252 118.077C124.252 117.129 124.252 116.25 124.252 115.279C137.534 115.279 150.842 115.279 164.246 115.279Z" fill="white"/>
<path d="M92.7827 143.974C93.5853 139.126 94.3607 134.415 95.1588 129.599C96.9318 129.599 98.6186 129.577 100.305 129.627C100.532 129.631 100.909 129.976 100.949 130.207C101.729 134.764 102.468 139.326 103.226 143.974C99.7251 143.974 96.3468 143.974 92.7827 143.974Z" fill="#BE202E"/>
<path d="M98.0023 118.354C96.0479 116.254 94.1162 114.377 92.4566 112.282C91.8761 111.547 91.9804 110.278 91.7129 108.972C95.9799 110.405 99.934 110.441 103.942 109.085C104.156 110.636 104.215 111.946 102.931 113.139C101.195 114.753 99.6619 116.581 98.0023 118.354Z" fill="white"/>
<path d="M111.234 114.916C109.374 117.751 107.629 120.417 105.797 123.21C103.942 122.158 102.128 121.129 100.188 120.031C102.083 118 103.897 116.041 105.733 114.105C105.86 113.973 106.146 113.896 106.332 113.932C107.919 114.232 109.497 114.563 111.234 114.916Z" fill="white"/>
<path d="M95.8256 120.031C93.8984 121.129 92.13 122.135 90.23 123.219C88.4434 120.499 86.6749 117.805 84.7886 114.926C86.548 114.563 88.1532 114.223 89.7675 113.919C89.9443 113.887 90.2119 114.019 90.3479 114.159C92.1526 116.077 93.9438 118.009 95.8256 120.031Z" fill="white"/>
<path d="M98.0515 126.86C97.3759 126.86 96.6957 126.815 96.0201 126.874C95.2628 126.942 94.8819 126.702 94.6688 125.922C94.0612 123.736 93.9161 124.484 95.7208 123.187C97.3532 122.013 98.7816 121.931 100.292 123.233C100.319 123.256 100.36 123.269 100.387 123.292C100.854 123.636 101.697 123.963 101.711 124.326C101.738 125.065 101.362 125.84 101.062 126.561C100.99 126.733 100.573 126.829 100.305 126.842C99.557 126.883 98.8043 126.86 98.0515 126.86Z" fill="#BE202E"/>
<path d="M115.723 95.1233C115.723 93.4455 115.723 91.7723 115.723 90.099C117.247 90.0854 118.276 91.1193 118.285 92.5477C118.294 94.0486 117.265 95.0598 115.723 95.1233Z" fill="white"/>
<path d="M80.2858 90.0719C80.2858 91.8313 80.2858 93.4773 80.2858 95.1279C78.7577 95.0508 77.6785 93.9761 77.7148 92.516C77.7465 91.1375 78.726 90.1444 80.2858 90.0719Z" fill="white"/>
<path d="M138.962 150.104C134.809 150.104 130.66 150.104 126.506 150.104C126.166 150.104 125.73 150.218 125.508 150.054C125.068 149.733 124.479 149.261 124.456 148.826C124.434 148.386 124.951 147.833 125.363 147.483C125.594 147.288 126.089 147.379 126.461 147.379C134.763 147.375 143.066 147.375 151.373 147.375C151.677 147.375 151.981 147.347 152.276 147.397C153.042 147.524 153.513 147.982 153.491 148.78C153.468 149.574 153.006 150.036 152.212 150.086C151.609 150.127 151.006 150.1 150.403 150.1C146.589 150.104 142.776 150.104 138.962 150.104Z" fill="black"/>
<path d="M138.885 164.361C134.731 164.361 130.582 164.361 126.429 164.361C126.088 164.361 125.63 164.465 125.44 164.288C125.014 163.898 124.474 163.368 124.461 162.878C124.451 162.479 125.1 162.012 125.535 161.681C125.73 161.531 126.12 161.636 126.424 161.636C134.768 161.636 143.106 161.636 151.45 161.636C151.677 161.636 151.903 161.631 152.13 161.645C152.978 161.695 153.486 162.139 153.491 162.992C153.495 163.849 152.965 164.32 152.135 164.352C150.929 164.397 149.718 164.37 148.512 164.37C145.306 164.361 142.095 164.361 138.885 164.361Z" fill="black"/>
<path d="M138.894 157.224C134.818 157.224 130.741 157.224 126.669 157.224C126.329 157.224 125.989 157.233 125.653 157.196C124.869 157.115 124.393 156.684 124.388 155.877C124.384 155.07 124.86 154.634 125.635 154.53C125.971 154.485 126.311 154.494 126.651 154.489C134.84 154.489 143.03 154.489 151.219 154.489C151.255 154.489 151.296 154.489 151.332 154.489C152.86 154.498 153.504 154.902 153.509 155.854C153.518 156.82 152.888 157.219 151.35 157.219C147.197 157.228 143.048 157.224 138.894 157.224Z" fill="black"/>
<path d="M137.443 133.884C136.944 133.241 136.577 132.66 136.105 132.179C135.52 131.576 134.813 131.545 134.201 132.148C133.593 132.746 133.62 133.454 134.187 134.061C134.981 134.914 135.81 135.744 136.667 136.537C137.284 137.108 137.982 137.09 138.586 136.496C140.304 134.805 142.036 133.123 143.669 131.35C143.973 131.019 144.031 130.189 143.841 129.74C143.456 128.838 142.431 128.838 141.583 129.672C140.277 130.964 139.003 132.293 137.443 133.884Z" fill="white"/>
<path d="M136.598 136.174C139.574 133.142 142.007 130.602 144.507 128.141C146.119 126.551 148.077 126.557 148.812 128.271C149.174 129.12 149.067 130.709 148.484 131.343C145.373 134.726 142.058 137.934 138.782 141.164C137.634 142.295 136.299 142.335 135.116 141.243C133.481 139.727 131.903 138.148 130.387 136.519C129.306 135.359 129.255 134.007 130.409 132.865C131.575 131.716 132.921 131.778 134.041 132.927C134.941 133.838 135.648 134.947 136.598 136.174Z" fill="#258814"/>
<path d="M162.791 50.7848C165.335 51.7416 165.888 52.5533 165.888 55.3601C165.888 63.1867 165.893 71.0088 165.884 78.8353C165.879 81.4926 164.555 82.8076 161.907 82.8076C155.595 82.8121 149.283 82.7894 142.971 82.8393C142.318 82.8439 141.556 83.1114 141.03 83.5014C138.214 85.6008 135.466 87.791 132.669 89.9177C131.263 90.9879 129.649 90.9833 128.365 89.9993C127.132 89.0562 126.756 87.4237 127.409 85.7958C127.576 85.3741 127.776 84.966 127.953 84.5488C128.51 83.2474 128.225 82.7078 126.828 82.8303C124.33 83.0434 122.588 81.3293 122.62 78.5678C122.711 70.8183 122.652 63.0688 122.652 55.3239C122.652 52.5487 123.223 51.7235 125.794 50.7848C138.124 50.7848 150.457 50.7848 162.791 50.7848ZM126.864 53.4692C125.368 53.4692 125.268 53.569 125.268 55.0971C125.264 62.9283 125.264 70.7594 125.268 78.5859C125.268 80.0642 125.441 80.3499 126.883 80.2048C129.748 79.9191 131.852 82.7486 130.329 85.5782C130.116 85.9772 129.893 86.3944 129.803 86.8252C129.735 87.1517 129.753 87.7003 129.943 87.8228C130.215 87.9996 130.755 88.0177 131.05 87.859C131.644 87.5416 132.152 87.0655 132.687 86.6483C134.99 84.8663 137.312 83.1069 139.584 81.2885C140.522 80.5403 141.524 80.2229 142.717 80.2274C148.997 80.2547 155.273 80.241 161.553 80.241C163.168 80.241 163.267 80.1368 163.267 78.4862C163.267 70.6959 163.267 62.901 163.267 55.1107C163.267 53.5237 163.204 53.4602 161.581 53.4602C155.795 53.4602 150.004 53.4602 144.218 53.4602C138.436 53.4692 132.65 53.4647 126.864 53.4692Z" fill="black"/>
<path d="M161.59 53.4692C163.213 53.4692 163.277 53.5327 163.277 55.1198C163.277 62.9101 163.277 70.7049 163.277 78.4952C163.277 80.1458 163.177 80.2501 161.563 80.2501C155.282 80.2501 149.006 80.2682 142.726 80.2365C141.534 80.232 140.531 80.5449 139.593 81.2976C137.316 83.1159 134.999 84.8753 132.696 86.6574C132.156 87.0746 131.648 87.5507 131.059 87.8681C130.764 88.0268 130.224 88.0087 129.952 87.8318C129.762 87.7049 129.744 87.1562 129.812 86.8342C129.903 86.3989 130.125 85.9817 130.338 85.5872C131.857 82.7577 129.753 79.9282 126.892 80.2138C125.45 80.3589 125.282 80.0687 125.277 78.595C125.273 70.7639 125.273 62.9328 125.277 55.1062C125.277 53.5781 125.377 53.4783 126.873 53.4783C132.66 53.4738 138.45 53.4783 144.236 53.4783C150.013 53.4692 155.799 53.4647 161.59 53.4692ZM130.107 71.2355C129.73 71.2355 129.25 71.1493 129.005 71.3398C128.606 71.6527 128.116 72.1696 128.13 72.5868C128.143 72.9949 128.678 73.471 129.095 73.7521C129.363 73.9335 129.83 73.8383 130.206 73.8383C139.588 73.8428 148.966 73.8428 158.348 73.8428C158.461 73.8428 158.574 73.8428 158.688 73.8428C159.939 73.8202 160.588 73.3576 160.506 72.4915C160.402 71.4033 159.617 71.2309 158.701 71.2309C153.899 71.24 149.093 71.2355 144.291 71.2355C139.566 71.2309 134.836 71.2309 130.107 71.2355ZM158.361 62.4158C158.701 62.4158 159.132 62.5292 159.363 62.3705C159.808 62.0621 160.47 61.5543 160.429 61.2006C160.379 60.7245 159.78 60.2665 159.336 59.8992C159.155 59.7495 158.751 59.8629 158.447 59.8629C148.993 59.8629 139.543 59.8629 130.088 59.8629C129.785 59.8629 129.476 59.8312 129.182 59.8856C128.451 60.0125 127.921 60.4932 128.107 61.2006C128.229 61.6631 128.778 62.0712 129.222 62.3705C129.458 62.5292 129.884 62.4113 130.224 62.4113C134.949 62.4113 139.679 62.4113 144.404 62.4113C149.061 62.4158 153.713 62.4204 158.361 62.4158ZM158.234 68.1112C158.611 68.1112 159.073 68.2291 159.35 68.0522C159.803 67.7666 160.465 67.2496 160.429 66.8914C160.384 66.4153 159.794 65.9482 159.35 65.5764C159.168 65.4268 158.765 65.5356 158.461 65.5356C149.006 65.5356 139.552 65.5356 130.102 65.5356C129.798 65.5356 129.49 65.5084 129.195 65.5583C128.47 65.6852 127.925 66.1568 128.107 66.8687C128.225 67.3358 128.769 67.7484 129.209 68.0522C129.445 68.2155 129.871 68.1021 130.211 68.1021C134.9 68.1021 139.588 68.1021 144.277 68.1021C148.934 68.1112 153.586 68.1112 158.234 68.1112Z" fill="#F5CF6D"/>
<path d="M144.29 71.231C139.561 71.231 134.836 71.231 130.106 71.2355C129.73 71.2355 129.249 71.1494 129.004 71.3398C128.605 71.6527 128.116 72.1696 128.129 72.5868C128.143 72.9949 128.678 73.471 129.095 73.7522C129.363 73.9336 129.83 73.8383 130.206 73.8383C139.588 73.8429 148.965 73.8429 158.347 73.8429C158.461 73.8429 158.574 73.8429 158.687 73.8429C159.939 73.8202 160.587 73.3577 160.506 72.4916C160.401 71.4033 159.617 71.231 158.701 71.231C153.899 71.2355 149.097 71.231 144.29 71.231Z" fill="black"/>
<path d="M144.408 62.4159C149.061 62.4159 153.709 62.4159 158.361 62.4159C158.701 62.4159 159.132 62.5292 159.363 62.3705C159.808 62.0622 160.47 61.5543 160.429 61.2006C160.379 60.7245 159.78 60.2665 159.336 59.8992C159.155 59.7496 158.751 59.8629 158.447 59.8629C148.993 59.8629 139.543 59.8629 130.088 59.8629C129.785 59.8629 129.476 59.8312 129.181 59.8856C128.451 60.0126 127.921 60.4932 128.107 61.2006C128.229 61.6631 128.778 62.0712 129.222 62.3705C129.458 62.5292 129.884 62.4113 130.224 62.4113C134.958 62.4204 139.683 62.4159 144.408 62.4159Z" fill="black"/>
<path d="M144.281 68.1112C148.933 68.1112 153.581 68.1112 158.234 68.1112C158.61 68.1112 159.073 68.2291 159.349 68.0523C159.803 67.7666 160.465 67.2497 160.429 66.8914C160.383 66.4153 159.794 65.9483 159.349 65.5764C159.168 65.4268 158.764 65.5356 158.461 65.5356C149.006 65.5356 139.552 65.5356 130.102 65.5356C129.798 65.5356 129.489 65.5084 129.195 65.5583C128.469 65.6853 127.925 66.1569 128.106 66.8688C128.224 67.3358 128.768 67.7485 129.208 68.0523C129.444 68.2155 129.87 68.1022 130.21 68.1022C134.904 68.1112 139.592 68.1112 144.281 68.1112Z" fill="black"/>
</svg>
