<svg width="96" height="92" viewBox="0 0 96 92" fill="none" xmlns="http://www.w3.org/2000/svg">
<path d="M95.3228 91.0755C94.9861 91.7071 94.4668 91.8783 93.7553 91.8764C76.6094 91.8574 59.4635 91.8612 42.3156 91.8631C41.0734 91.8631 40.7633 91.5245 40.7671 90.3013C40.7842 84.4382 40.7557 78.5733 40.7919 72.7102C40.8261 67.123 43.1184 62.6658 47.7031 59.4546C50.3417 57.6055 53.3151 56.7266 56.5433 56.7266C57.6125 56.7266 58.6797 56.7266 59.842 56.7266C59.842 55.18 59.8649 53.7589 59.8211 52.3398C59.8135 52.0697 59.5909 51.7577 59.3836 51.5465C56.511 48.634 55.1927 45.0424 54.8008 41.0569C54.6943 39.9726 54.4527 39.0024 53.8762 38.0341C50.7012 32.7056 51.2206 26.7398 55.4381 21.7157C59.4007 16.996 64.4438 14.2737 70.7425 14.3802C75.6335 14.4639 79.3202 17.4278 80.8383 22.2978C80.9487 22.6497 81.0552 23.0721 81.3082 23.3004C84.1161 25.8267 84.5993 29.0588 83.9981 32.5287C83.6995 34.2617 83.2372 36.0157 82.52 37.6118C81.8047 39.2021 81.7324 40.8496 81.4528 42.4875C80.8269 46.1457 79.3868 49.3816 76.6246 51.9536C76.4191 52.1458 76.2422 52.4806 76.2346 52.7564C76.1928 54.0215 76.2156 55.2865 76.2156 56.7285C76.7597 56.7285 77.2505 56.7475 77.7394 56.7247C80.3589 56.6049 82.9423 56.8027 85.3697 57.8604C91.0635 60.3411 94.3621 64.6575 95.1592 70.8459C95.1878 71.0609 95.2658 71.2701 95.3209 71.4813C95.3228 78.0121 95.3228 84.5447 95.3228 91.0755ZM84.9531 89.6469C84.9531 89.2455 84.9531 88.8745 84.9531 88.5054C84.9531 83.371 84.9531 78.2346 84.955 73.1002C84.955 72.7521 84.8675 72.3335 85.0273 72.0748C85.248 71.721 85.6589 71.2739 85.9994 71.2644C86.3494 71.2549 86.7851 71.6658 87.0457 72.0006C87.2055 72.2061 87.1256 72.6113 87.1256 72.9252C87.1294 78.1547 87.1275 83.3862 87.1275 88.6158C87.1275 88.9544 87.1275 89.2911 87.1275 89.6602C89.1573 89.6602 91.0711 89.6602 93.002 89.6602C93.0305 89.4833 93.0685 89.3615 93.0685 89.2398C93.0628 83.312 93.1599 77.3824 93.0153 71.4585C92.8707 65.5098 87.8751 60.0805 81.9626 59.097C81.2682 58.9809 80.8973 59.1103 80.5377 59.7533C78.7286 62.9854 76.8624 66.187 75.0171 69.4001C74.026 71.1255 73.8167 71.1712 72.2207 70.0127C72.1788 69.9822 72.1027 70.0013 71.8839 69.986C71.7241 71.1484 71.3132 72.3507 71.4426 73.4921C72.0247 78.6532 72.7704 83.7933 73.421 88.9468C73.4971 89.5536 73.6931 89.7382 74.2961 89.7344C77.6233 89.7096 80.9525 89.723 84.2816 89.7191C84.4661 89.7172 84.6487 89.6792 84.9531 89.6469ZM48.9244 89.6754C48.9244 89.2493 48.9244 88.9049 48.9244 88.5606C48.9244 83.3615 48.9244 78.1623 48.9263 72.9613C48.9263 72.676 48.8312 72.3069 48.972 72.1243C49.2497 71.7628 49.6587 71.272 50.0183 71.2682C50.3664 71.2644 50.7868 71.759 51.0436 72.1281C51.1958 72.3469 51.1064 72.7425 51.1064 73.0583C51.1083 78.227 51.1064 83.3938 51.1102 88.5625C51.1102 88.9278 51.1483 89.2911 51.1711 89.7172C54.8541 89.7172 58.4324 89.7287 62.0088 89.6849C62.2086 89.683 62.5396 89.2264 62.5795 88.9487C63.1673 84.7141 63.7171 80.4718 64.2764 76.2334C64.5523 74.1446 64.9594 72.0501 63.9435 70.0108C63.8826 70.0355 63.7875 70.0526 63.7171 70.104C62.2923 71.1484 61.9536 71.0799 61.0843 69.5694C59.2542 66.3849 57.3671 63.2289 55.6264 59.9968C55.1109 59.0399 54.5535 58.979 53.6708 59.1769C47.4197 60.5827 43.029 65.9549 42.9872 72.3602C42.951 77.8447 42.9777 83.3291 42.9815 88.8155C42.9815 89.0895 43.0195 89.3653 43.0423 89.6773C44.9961 89.6754 46.8851 89.6754 48.9244 89.6754ZM77.1382 29.1368C76.8719 29.2528 76.636 29.3403 76.4153 29.4545C73.7806 30.8089 70.9879 31.4576 68.0564 30.9307C66.2625 30.6092 64.5256 29.9795 62.7659 29.4754C61.8566 29.2148 60.9625 28.8933 60.0456 28.665C59.5148 28.5337 59.1629 28.7049 59.1382 29.3879C59.0259 32.5857 58.2479 35.639 57.0722 38.6048C56.9466 38.9187 56.861 39.2782 56.8725 39.613C56.9809 42.6416 57.6733 45.5141 59.3779 48.0576C61.3354 50.9777 64.0234 52.8173 67.5979 53.0151C72.1959 53.27 76.1642 50.6106 78.1579 46.0734C79.8986 42.1127 79.8548 38.0132 79.0387 33.866C78.7077 32.1863 78.2226 30.5578 77.1382 29.1368ZM55.5047 36.535C56.4368 33.9611 56.9105 31.4957 56.9752 28.9446C57.0056 27.7081 57.6848 26.7893 58.8966 26.5933C59.6803 26.4678 60.5497 26.5153 61.3145 26.7265C62.8363 27.1469 64.303 27.7557 65.8078 28.2446C69.2663 29.3651 72.6106 29.1235 75.8123 27.341C77.4845 26.4107 77.9201 26.4792 79.0178 28.0372C79.5238 28.7544 79.9613 29.5477 80.2733 30.3676C80.7204 31.5394 81.0228 32.7665 81.4661 34.2294C81.6525 33.2972 81.8504 32.5762 81.9303 31.8438C82.1985 29.4107 82.0558 27.0385 80.1344 25.235C79.402 24.5483 79.0025 23.8007 78.7153 22.8647C77.4312 18.6814 74.2733 16.4329 69.8941 16.4899C63.8503 16.5679 57.1597 21.1164 54.894 26.7094C53.5662 29.9909 53.7963 33.1983 55.5047 36.535ZM66.7571 73.8478C66.0608 79.1687 65.3779 84.3945 64.6892 89.6602C66.9492 89.6602 69.116 89.6602 71.3475 89.6602C70.6531 84.364 69.9683 79.1345 69.2815 73.8992C68.9581 73.8763 68.7393 73.8516 68.5187 73.8497C67.9841 73.844 67.4476 73.8478 66.7571 73.8478ZM74.0317 53.7894C69.9264 55.7869 65.9828 55.6575 62.0202 53.5972C62.0202 54.8224 62.0069 55.8953 62.0316 56.9701C62.0373 57.2022 62.1115 57.499 62.2675 57.6493C64.2174 59.5421 66.1883 61.414 67.9384 63.0843C69.778 61.3588 71.766 59.506 73.7311 57.6302C73.908 57.4609 74.0108 57.1375 74.0203 56.8807C74.0526 55.901 74.0317 54.9232 74.0317 53.7894ZM66.6201 64.8059C64.8738 63.1661 63.116 61.7679 61.6816 60.0938C60.4698 58.6803 59.1058 58.8744 57.4869 58.9638C59.2618 62.0551 60.9701 65.0323 62.7203 68.0818C63.9701 67.0317 65.1496 66.0405 66.6201 64.8059ZM78.5593 58.9029C77.6652 58.9029 76.9689 58.8763 76.2765 58.9143C75.9493 58.9314 75.5288 58.9714 75.3234 59.175C73.421 61.064 71.5567 62.9911 69.6353 64.9562C70.8757 65.993 72.0589 66.9803 73.3164 68.0304C75.0647 64.9847 76.7578 62.0361 78.5593 58.9029ZM69.3709 71.6316C69.5935 70.65 69.8294 69.7064 70.0063 68.7495C70.0501 68.5117 69.9854 68.1522 69.8256 67.9962C69.2701 67.4559 68.6499 66.9822 68.18 66.5884C66.0703 67.4217 65.6499 68.8294 66.4299 70.7013C66.5478 70.9848 66.5954 71.2987 66.6829 71.6297C67.5808 71.6316 68.454 71.6316 69.3709 71.6316Z" fill="black"/>
<path d="M47.5734 0.333252C49.7288 1.12273 50.2063 1.81328 50.2082 4.13796C50.2082 10.6326 50.1587 17.1272 50.2348 23.62C50.2615 25.9332 48.8004 27.3714 46.7079 27.1907C45.5379 27.0899 45.3001 27.5407 45.7662 28.6308C45.9146 28.9808 46.0801 29.3232 46.2209 29.6752C46.7668 31.0373 46.451 32.4069 45.4181 33.1964C44.3432 34.0201 42.9926 34.0239 41.8131 33.1279C39.4694 31.3454 37.1656 29.5078 34.8048 27.7481C34.3635 27.419 33.7281 27.1964 33.1802 27.1926C27.8898 27.1526 22.5993 27.1698 17.3089 27.166C15.0907 27.1641 13.9779 26.0645 13.9759 23.8368C13.9683 17.2794 13.9721 10.722 13.9721 4.16459C13.9702 1.81519 14.4325 1.13414 16.5651 0.333252C26.9005 0.333252 37.2379 0.333252 47.5734 0.333252ZM32.1244 2.58183C27.2734 2.58183 22.4243 2.57993 17.5733 2.58183C16.2131 2.58183 16.1598 2.6351 16.1598 3.96485C16.1579 10.4956 16.1579 17.0264 16.1598 23.5572C16.1598 24.9402 16.2455 25.0296 17.598 25.0296C22.8599 25.0315 28.1238 25.0429 33.3857 25.0182C34.3863 25.0144 35.2252 25.2769 36.0109 25.9066C37.9171 27.4304 39.8613 28.9047 41.7922 30.3981C42.243 30.7462 42.6692 31.1476 43.1657 31.412C43.413 31.5433 43.8657 31.53 44.094 31.3816C44.2538 31.2769 44.2709 30.8166 44.2139 30.5445C44.1378 30.1812 43.9532 29.8312 43.7744 29.4982C42.4998 27.126 44.2633 24.7557 46.6641 24.9954C47.8721 25.1152 48.0148 24.8755 48.0148 23.6371C48.0167 17.074 48.0167 10.5127 48.0148 3.94963C48.0148 2.66934 47.9311 2.58564 46.6755 2.58374C41.8245 2.57993 36.9754 2.58183 32.1244 2.58183Z" fill="#212121"/>
<path d="M35.0466 87.0673C35.0466 88.1459 35.058 89.3101 35.0428 90.4744C35.0295 91.5055 34.6966 91.8536 33.6788 91.8555C24.1043 91.8612 14.5297 91.8612 4.95706 91.8555C3.98115 91.8555 3.63873 91.5074 3.62541 90.5467C3.61019 89.3767 3.62161 88.2049 3.62161 86.8827C2.83403 86.8827 2.08831 86.8961 1.34449 86.8789C0.385702 86.8561 0.0223527 86.5004 0.0109385 85.553C-0.0042803 84.286 -0.00237794 83.0172 0.00903618 81.7483C0.0337668 78.5999 2.22528 76.3551 5.35655 76.26C5.60767 76.2524 5.85878 76.2372 6.24876 76.2181C6.24876 74.7514 6.24686 73.3056 6.24876 71.8598C6.25066 70.239 6.43899 69.9328 8.05219 70.104C9.5931 70.2676 10.2932 69.6322 10.8829 68.312C12.2279 65.3043 13.3312 62.2701 13.1695 58.9048C13.0687 56.7761 12.3534 54.8319 11.5468 52.8915C10.7973 51.088 9.72626 49.2656 9.58929 47.3937C9.27731 43.1685 9.37052 38.9054 9.46944 34.6631C9.52271 32.4012 11.3585 30.8165 13.628 30.7956C17.4327 30.7633 21.2374 30.7633 25.0402 30.7956C27.3021 30.8146 29.1645 32.4031 29.214 34.6574C29.3091 38.9948 29.292 43.3416 29.0979 47.6752C29.0333 49.1077 28.3674 50.5421 27.8272 51.9175C26.8798 54.3315 25.7232 56.6619 25.6357 59.3385C25.512 63.128 26.8988 66.461 28.6566 69.6893C28.7536 69.8681 29.0371 69.9765 29.2558 70.0507C29.427 70.1097 29.6325 70.0659 29.8227 70.0659C32.408 70.0754 32.408 70.0754 32.408 72.7026C32.408 73.8402 32.408 74.9759 32.408 76.1744C33.0891 76.2467 33.715 76.2695 34.3218 76.3836C36.8272 76.8554 38.5831 78.9195 38.6363 81.4534C38.6649 82.8155 38.6573 84.1795 38.6401 85.5435C38.6287 86.487 38.2559 86.8485 37.3104 86.8808C36.6141 86.9037 35.9179 86.9113 35.2216 86.9303C35.1988 86.9303 35.176 86.9645 35.0466 87.0673ZM26.1645 70.0069C26.174 69.8909 26.2006 69.8224 26.1797 69.7749C25.9838 69.343 25.7726 68.9169 25.5786 68.4851C24.0719 65.1141 22.921 61.6176 23.661 57.9099C24.1385 55.5186 25.2057 53.2472 25.9248 50.8978C26.3833 49.4006 26.9426 47.8673 27.0111 46.3302C27.1709 42.6929 27.0681 39.0442 27.0605 35.3993C27.0567 33.7271 26.3566 33.0252 24.6883 33.0214C21.108 33.0119 17.5259 33.0119 13.9457 33.0214C12.2849 33.0252 11.5868 33.7309 11.5792 35.405C11.5677 37.8762 11.7009 40.3569 11.5449 42.8185C11.3299 46.2066 12.0585 49.2884 13.5481 52.336C14.4175 54.1166 14.9254 56.154 15.1955 58.1306C15.7149 61.9543 14.5601 65.5212 12.9431 68.9492C12.791 69.2726 12.654 69.6036 12.4771 70.0069C17.1416 70.0069 21.654 70.0069 26.1645 70.0069ZM2.18723 84.6418C13.628 84.6418 25.0117 84.6418 36.4296 84.6418C36.4296 83.4357 36.5228 82.2924 36.4068 81.17C36.2451 79.591 35.0713 78.5485 33.4676 78.4667C32.2996 78.4077 31.1258 78.4382 29.954 78.4382C22.8525 78.4363 15.751 78.4363 8.65143 78.4382C7.47958 78.4382 6.30583 78.4058 5.13778 78.4686C3.54742 78.5523 2.36986 79.6119 2.21006 81.1909C2.09592 82.3114 2.18723 83.4528 2.18723 84.6418ZM8.43456 76.1877C15.7396 76.1877 22.9743 76.1877 30.188 76.1877C30.188 74.8313 30.188 73.551 30.188 72.2841C22.902 72.2841 15.6901 72.2841 8.43456 72.2841C8.43456 73.5948 8.43456 74.8503 8.43456 76.1877ZM32.8779 86.936C23.8132 86.936 14.8398 86.936 5.84356 86.936C5.84356 87.8834 5.84356 88.7756 5.84356 89.6469C14.8988 89.6469 23.8741 89.6469 32.8779 89.6469C32.8779 88.7242 32.8779 87.8777 32.8779 86.936Z" fill="black"/>
<path d="M84.9528 89.6469C84.6484 89.6792 84.4639 89.7173 84.2813 89.7173C80.9522 89.7211 77.6249 89.7078 74.2958 89.7325C73.6928 89.7363 73.4968 89.5518 73.4207 88.9449C72.7701 83.7914 72.0244 78.6494 71.4423 73.4902C71.3129 72.3488 71.7238 71.1465 71.8836 69.9842C72.1005 69.9994 72.1785 69.9804 72.2204 70.0108C73.8164 71.1693 74.0257 71.1256 75.0168 69.3982C76.8621 66.1852 78.7283 62.9854 80.5374 59.7514C80.897 59.1084 81.268 58.9809 81.9623 59.0951C87.8748 60.0767 92.8704 65.506 93.015 71.4566C93.1577 77.3805 93.0625 83.3102 93.0683 89.2379C93.0683 89.3596 93.0302 89.4814 93.0017 89.6583C91.0708 89.6583 89.157 89.6583 87.1272 89.6583C87.1272 89.2892 87.1272 88.9525 87.1272 88.6139C87.1272 83.3843 87.1291 78.1529 87.1253 72.9233C87.1253 72.6075 87.2052 72.2023 87.0454 71.9988C86.7848 71.6639 86.3491 71.253 85.9991 71.2625C85.6586 71.2721 85.2477 71.7191 85.027 72.0729C84.8672 72.3317 84.9547 72.7502 84.9547 73.0983C84.9509 78.2328 84.9528 83.3691 84.9528 88.5036C84.9528 88.8745 84.9528 89.2455 84.9528 89.6469Z" fill="white"/>
<path d="M48.9242 89.6754C46.8849 89.6754 44.9959 89.6754 43.0422 89.6754C43.0193 89.3634 42.9813 89.0876 42.9813 88.8137C42.9775 83.3292 42.9508 77.8447 42.987 72.3583C43.0288 65.9531 47.4214 60.5808 53.6706 59.175C54.5533 58.9771 55.1126 59.038 55.6262 59.9949C57.3688 63.227 59.254 66.383 61.0841 69.5675C61.9535 71.078 62.2921 71.1465 63.7169 70.1021C63.7873 70.0507 63.8824 70.0317 63.9433 70.0089C64.9592 72.0482 64.5521 74.1427 64.2762 76.2315C63.7169 80.4718 63.1672 84.7122 62.5793 88.9468C62.5413 89.2246 62.2103 89.6811 62.0086 89.683C58.4322 89.7287 54.8539 89.7154 51.1709 89.7154C51.1481 89.2893 51.11 88.9259 51.11 88.5606C51.1062 83.392 51.1081 78.2252 51.1062 73.0565C51.1062 72.7407 51.1956 72.345 51.0435 72.1262C50.7866 71.7591 50.3662 71.2644 50.0181 71.2663C49.6585 71.2702 49.2495 71.761 48.9718 72.1224C48.831 72.305 48.9261 72.6741 48.9261 72.9594C48.9242 78.1586 48.9242 83.3577 48.9242 88.5587C48.9242 88.9069 48.9242 89.2493 48.9242 89.6754Z" fill="white"/>
<path d="M77.1379 29.1368C78.2203 30.5578 78.7073 32.1863 79.0384 33.866C79.8564 38.0132 79.8982 42.1127 78.1576 46.0735C76.1639 50.6106 72.1956 53.2682 67.5976 53.0151C64.0231 52.8173 61.335 50.9777 59.3775 48.0576C57.673 45.5142 56.9805 42.6416 56.8721 39.6131C56.8607 39.2782 56.9463 38.9187 57.0719 38.6048C58.2494 35.6409 59.0256 32.5858 59.1378 29.3879C59.1625 28.705 59.5145 28.5318 60.0452 28.665C60.9622 28.8914 61.8563 29.2148 62.7656 29.4754C64.5253 29.9795 66.264 30.6092 68.0561 30.9307C70.9876 31.4558 73.7802 30.809 76.415 29.4545C76.6376 29.3403 76.8716 29.2528 77.1379 29.1368Z" fill="white"/>
<path d="M55.5048 36.5351C53.7964 33.1983 53.5663 29.991 54.8941 26.7094C57.1579 21.1146 63.8504 16.566 69.8942 16.4899C74.2753 16.4348 77.4313 18.6815 78.7154 22.8647C79.0026 23.8007 79.404 24.5483 80.1345 25.2351C82.0559 27.0404 82.1986 29.4107 81.9304 31.8438C81.8505 32.5763 81.6507 33.2953 81.4662 34.2294C81.0229 32.7684 80.7205 31.5414 80.2734 30.3676C79.9614 29.5496 79.5239 28.7563 79.0179 28.0372C77.9202 26.4792 77.4827 26.4107 75.8124 27.341C72.6088 29.1216 69.2664 29.3651 65.8079 28.2446C64.3031 27.7576 62.8364 27.1469 61.3145 26.7265C60.5498 26.5154 59.6785 26.4678 58.8967 26.5933C57.6849 26.7893 57.0057 27.7062 56.9753 28.9447C56.9125 31.4957 56.4369 33.9612 55.5048 36.5351Z" fill="#3A3838"/>
<path d="M66.7569 73.8478C67.4474 73.8478 67.9839 73.844 68.5204 73.8497C68.7391 73.8516 68.9579 73.8782 69.2832 73.8992C69.97 79.1344 70.6548 84.364 71.3492 89.6602C69.1177 89.6602 66.9509 89.6602 64.6909 89.6602C65.3777 84.3925 66.0625 79.1687 66.7569 73.8478Z" fill="#BE202E"/>
<path d="M74.0316 53.7894C74.0316 54.9232 74.0506 55.9029 74.0183 56.8789C74.0088 57.1357 73.9079 57.4591 73.7291 57.6284C71.764 59.5041 69.776 61.357 67.9365 63.0824C66.1863 61.4122 64.2154 59.5403 62.2655 57.6474C62.1095 57.4971 62.0353 57.2004 62.0296 56.9683C62.0049 55.8953 62.0182 54.8205 62.0182 53.5954C65.9827 55.6575 69.9263 55.7869 74.0316 53.7894Z" fill="white"/>
<path d="M66.62 64.806C65.1476 66.0425 63.97 67.0336 62.7202 68.0818C60.97 65.0323 59.2617 62.0552 57.4868 58.9638C59.1057 58.8725 60.4697 58.6785 61.6815 60.0938C63.1178 61.766 64.8737 63.1642 66.62 64.806Z" fill="white"/>
<path d="M78.5592 58.903C76.7596 62.0362 75.0646 64.9867 73.3163 68.0305C72.0589 66.9804 70.8775 65.9931 69.6353 64.9563C71.5566 62.993 73.4209 61.0641 75.3233 59.175C75.5288 58.9715 75.9492 58.9315 76.2764 58.9144C76.9688 58.8764 77.6632 58.903 78.5592 58.903Z" fill="white"/>
<path d="M69.3708 71.6316C68.4519 71.6316 67.5807 71.6316 66.6828 71.6316C66.5952 71.3006 66.5477 70.9867 66.4297 70.7032C65.6498 68.8332 66.0702 67.4236 68.1799 66.5903C68.6498 66.9841 69.2681 67.4578 69.8254 67.9981C69.9852 68.1541 70.0518 68.5136 70.0062 68.7514C69.8292 69.7064 69.5934 70.65 69.3708 71.6316Z" fill="#BE202E"/>
<path d="M32.1246 2.58178C36.9756 2.58178 41.8247 2.57988 46.6757 2.58368C47.9312 2.58368 48.013 2.66929 48.0149 3.94957C48.0168 10.5127 48.0168 17.0739 48.0149 23.637C48.0149 24.8736 47.8704 25.1152 46.6643 24.9953C44.2635 24.7575 42.5 27.1279 43.7746 29.4982C43.9534 29.8311 44.1399 30.1811 44.214 30.5445C44.2711 30.8165 44.2559 31.2769 44.0942 31.3815C43.8659 31.5299 43.4132 31.5451 43.1658 31.412C42.6693 31.1475 42.2432 30.748 41.7923 30.398C39.8615 28.9047 37.9173 27.4303 36.0111 25.9065C35.2254 25.2788 34.3865 25.0143 33.3858 25.0181C28.1239 25.0429 22.8601 25.0296 17.5982 25.0296C16.2456 25.0296 16.16 24.9421 16.16 23.5571C16.16 17.0264 16.1581 10.4956 16.16 3.96479C16.16 2.63504 16.2133 2.58178 17.5735 2.58178C22.4245 2.57988 27.2736 2.58178 32.1246 2.58178ZM32.0694 17.4696C28.044 17.4696 24.0187 17.4734 19.9933 17.4658C19.2266 17.4639 18.5684 17.6104 18.4809 18.5216C18.4105 19.2483 18.9584 19.6326 20.0047 19.6535C20.0998 19.6554 20.1949 19.6535 20.29 19.6535C28.1506 19.6535 36.013 19.6535 43.8735 19.6516C44.1893 19.6516 44.5812 19.7334 44.8038 19.5812C45.1538 19.3434 45.6009 18.9458 45.6123 18.6034C45.6237 18.2553 45.2128 17.8215 44.8799 17.559C44.6744 17.3973 44.2711 17.4715 43.9572 17.4715C39.9927 17.4677 36.032 17.4696 32.0694 17.4696ZM31.9705 10.0828C35.9312 10.0828 39.8919 10.0828 43.8545 10.0828C44.1399 10.0828 44.4956 10.1798 44.6934 10.0466C45.0682 9.79551 45.5286 9.45308 45.6294 9.065C45.7854 8.47147 45.3383 8.06817 44.7277 7.96164C44.4804 7.91788 44.2217 7.94261 43.9686 7.94261C36.0472 7.94261 28.1239 7.94261 20.2025 7.94261C19.9495 7.94261 19.6128 7.84559 19.4587 7.97115C19.0858 8.27553 18.5855 8.66361 18.5437 9.0612C18.5113 9.35987 19.0668 9.78409 19.4378 10.0428C19.6318 10.1779 19.9914 10.0809 20.2767 10.0809C24.1746 10.0828 28.0726 10.0828 31.9705 10.0828ZM32.077 14.8539C36.0073 14.8539 39.9356 14.8539 43.8659 14.8539C44.1513 14.8539 44.5089 14.9452 44.7048 14.8101C45.0758 14.5533 45.5324 14.2071 45.6294 13.8171C45.7797 13.2197 45.325 12.826 44.7163 12.7194C44.469 12.6757 44.2102 12.7004 43.9572 12.7004C36.0339 12.7004 28.1125 12.7004 20.1892 12.7004C19.9362 12.7004 19.5976 12.6072 19.4454 12.7346C19.0744 13.0447 18.5798 13.4366 18.5418 13.8361C18.5132 14.1367 19.0687 14.5666 19.4473 14.8082C19.6756 14.9547 20.0637 14.8558 20.3813 14.8558C24.2812 14.8558 28.1791 14.8539 32.077 14.8539Z" fill="#F5CF6D"/>
<path d="M26.1643 70.007C21.6538 70.007 17.1414 70.007 12.4731 70.007C12.65 69.6037 12.787 69.2727 12.9391 68.9493C14.5561 65.5212 15.7109 61.9543 15.1915 58.1306C14.9233 56.154 14.4154 54.1166 13.5441 52.336C12.0545 49.2884 11.3259 46.2066 11.5409 42.8185C11.6969 40.3569 11.5637 37.8762 11.5752 35.4051C11.5828 33.731 12.2809 33.0271 13.9417 33.0214C17.5219 33.0119 21.104 33.0119 24.6843 33.0214C26.3526 33.0252 27.0527 33.7272 27.0565 35.3994C27.066 39.0443 27.1669 42.693 27.0071 46.3303C26.9405 47.8674 26.3793 49.4007 25.9208 50.8978C25.2017 53.2472 24.1345 55.5187 23.657 57.9099C22.917 61.6157 24.0679 65.1141 25.5746 68.4851C25.7686 68.9188 25.9798 69.3431 26.1757 69.7749C26.1986 69.8225 26.1719 69.8909 26.1643 70.007ZM24.9734 41.2301C24.9677 38.0798 22.4129 35.5363 19.2873 35.5668C16.1827 35.5972 13.6906 38.1064 13.6792 41.2149C13.6677 44.3614 16.1941 46.92 19.3177 46.9238C22.4433 46.9295 24.981 44.3766 24.9734 41.2301Z" fill="white"/>
<path d="M2.18741 84.6418C2.18741 83.4547 2.0961 82.3114 2.21024 81.1909C2.37004 79.612 3.5476 78.5523 5.13796 78.4686C6.30601 78.4059 7.47976 78.4382 8.65161 78.4382C15.7531 78.4363 22.8546 78.4363 29.9542 78.4382C31.126 78.4382 32.2998 78.4078 33.4678 78.4667C35.0715 78.5485 36.2472 79.5891 36.407 81.17C36.5211 82.2924 36.4298 83.4357 36.4298 84.6418C25.0119 84.6418 13.6282 84.6418 2.18741 84.6418Z" fill="white"/>
<path d="M8.43457 76.1877C8.43457 74.8503 8.43457 73.5948 8.43457 72.2841C15.6901 72.2841 22.9039 72.2841 30.188 72.2841C30.188 73.551 30.188 74.8332 30.188 76.1877C22.9743 76.1877 15.7396 76.1877 8.43457 76.1877Z" fill="white"/>
<path d="M32.8781 86.936C32.8781 87.8777 32.8781 88.7242 32.8781 89.6469C23.8743 89.6469 14.899 89.6469 5.84375 89.6469C5.84375 88.7775 5.84375 87.8834 5.84375 86.936C14.84 86.936 23.8153 86.936 32.8781 86.936Z" fill="#BE202E"/>
<path d="M32.0696 17.4697C36.0322 17.4697 39.9948 17.4678 43.9555 17.4716C44.2694 17.4716 44.6746 17.3993 44.8782 17.5591C45.2111 17.8197 45.622 18.2553 45.6106 18.6035C45.5992 18.9459 45.1502 19.3435 44.8021 19.5813C44.5795 19.7335 44.1876 19.6517 43.8718 19.6517C36.0113 19.6536 28.1489 19.6536 20.2883 19.6536C20.1932 19.6536 20.0981 19.6555 20.003 19.6536C18.9548 19.6326 18.4088 19.2484 18.4792 18.5217C18.5667 17.6104 19.2249 17.464 19.9916 17.4659C24.0188 17.4735 28.0442 17.4697 32.0696 17.4697Z" fill="black"/>
<path d="M31.9706 10.0828C28.0727 10.0828 24.1748 10.0828 20.2769 10.0828C19.9915 10.0828 19.632 10.1798 19.4379 10.0448C19.067 9.78606 18.5115 9.36183 18.5438 9.06316C18.5876 8.66557 19.086 8.27939 19.4589 7.97311C19.613 7.84756 19.9497 7.94458 20.2027 7.94458C28.1241 7.94458 36.0474 7.94458 43.9688 7.94458C44.2218 7.94458 44.4805 7.91985 44.7278 7.9636C45.3385 8.07013 45.7855 8.47343 45.6296 9.06697C45.5287 9.45505 45.0665 9.79557 44.6936 10.0486C44.4958 10.1817 44.1381 10.0847 43.8547 10.0847C39.8921 10.0828 35.9313 10.0828 31.9706 10.0828Z" fill="black"/>
<path d="M32.0774 14.854C28.1794 14.854 24.2815 14.854 20.3836 14.8521C20.0678 14.8521 19.6778 14.9491 19.4495 14.8045C19.071 14.5629 18.5155 14.133 18.544 13.8324C18.5821 13.4329 19.0767 13.041 19.4476 12.7309C19.5998 12.6035 19.9385 12.6967 20.1915 12.6967C28.1148 12.6967 36.0362 12.6967 43.9595 12.6967C44.2125 12.6967 44.4712 12.6739 44.7185 12.7157C45.3273 12.8223 45.7819 13.216 45.6316 13.8134C45.5327 14.2034 45.0781 14.5496 44.7071 14.8064C44.5112 14.9415 44.1535 14.8502 43.8682 14.8502C39.936 14.854 36.0057 14.854 32.0774 14.854Z" fill="black"/>
<path d="M24.9735 41.23C24.9792 44.3746 22.4434 46.9295 19.3178 46.9238C16.1922 46.9181 13.6678 44.3613 13.6792 41.2148C13.6907 38.1083 16.1827 35.5972 19.2874 35.5667C22.4129 35.5363 24.9678 38.0797 24.9735 41.23ZM19.3292 37.7659C17.3907 37.764 15.8194 39.322 15.8175 41.2453C15.8156 43.159 17.4021 44.7456 19.3216 44.7475C21.2411 44.7494 22.8296 43.1685 22.8315 41.251C22.8372 39.3258 21.2715 37.7678 19.3292 37.7659Z" fill="black"/>
<path d="M19.3292 37.7659C21.2696 37.7678 22.8352 39.3258 22.8333 41.2529C22.8314 43.1705 21.243 44.7513 19.3235 44.7494C17.404 44.7475 15.8155 43.1609 15.8193 41.2472C15.8193 39.322 17.3907 37.764 19.3292 37.7659Z" fill="white"/>
</svg>
