<svg width="230" height="230" viewBox="0 0 230 230" fill="none" xmlns="http://www.w3.org/2000/svg">
<rect x="13.3887" y="13.3884" width="202.314" height="202.314" fill="white"/>
<rect x="0.743802" y="0.743802" width="227.603" height="227.603" stroke="#CCCCCC" stroke-width="1.4876"/>
<path d="M82.8982 158.621C83.5053 159.706 84.0937 160.711 84.6401 161.745C85.9804 164.284 85.2426 167.072 82.7908 168.535C80.82 169.714 78.8258 170.846 76.799 171.921C74.3099 173.24 71.5172 172.483 70.1255 170.032C64.2972 159.785 58.4969 149.515 52.7294 139.231C51.3564 136.776 52.169 133.984 54.5787 132.544C56.5495 131.365 58.5436 130.233 60.5658 129.148C63.0269 127.825 65.7963 128.615 67.2627 131C67.7671 131.823 68.2341 132.675 68.7711 133.615C69.2241 133.367 69.6258 133.156 70.0181 132.932C75.7576 129.654 81.4504 126.286 87.2554 123.13C91.3744 120.889 95.6802 120.651 100.21 122.25C106.099 124.331 112.105 126.095 118.069 127.97C118.844 128.213 119.675 128.269 120.45 128.512C124.985 129.934 127.25 134.826 125.424 139.208C125.307 139.493 125.176 139.774 125.186 140.312C126.316 139.774 127.488 139.316 128.567 138.689C135.367 134.756 142.143 130.785 148.933 126.829C151.875 125.117 154.925 123.714 158.367 123.303C162.481 122.816 166.161 124.911 167.427 128.526C168.804 132.469 167.366 136.584 163.821 138.773C151.441 146.41 139.042 154.019 126.685 161.689C122.398 164.35 117.91 165.014 113.053 163.686C104.619 161.38 96.1659 159.159 87.7317 156.862C86.8351 156.619 86.0972 156.643 85.3266 157.176C84.5654 157.7 83.7388 158.13 82.8982 158.621ZM81.0348 155.338C82.2397 154.641 83.3465 154.07 84.3786 153.388C85.3967 152.719 86.3774 152.602 87.5683 152.929C96.3714 155.338 105.193 157.676 114.001 160.066C117.686 161.067 121.146 160.693 124.42 158.672C136.992 150.904 149.582 143.169 162.126 135.359C162.906 134.873 163.607 133.919 163.896 133.039C165.059 129.49 162.575 126.618 158.834 127.035C155.742 127.381 153.057 128.77 150.423 130.304C143.469 134.354 136.52 138.418 129.552 142.44C126.503 144.198 123.164 144.731 119.745 144.095C115.972 143.389 112.24 142.444 108.504 141.546C106.543 141.074 104.6 140.503 102.671 139.914C101.569 139.577 101.102 138.68 101.35 137.651C101.583 136.669 102.489 136.126 103.61 136.322C104.03 136.397 104.437 136.542 104.848 136.65C108.939 137.735 113.02 138.867 117.13 139.877C119.432 140.443 121.305 139.489 122.043 137.59C122.963 135.228 121.646 132.703 119.115 132.053C117.424 131.618 115.678 131.365 114.015 130.832C108.654 129.111 103.344 127.226 97.9686 125.566C96.4928 125.112 94.7649 124.827 93.2985 125.145C91.0988 125.618 88.8992 126.455 86.9191 127.54C81.6699 130.411 76.5328 133.502 71.3584 136.505C71.1342 136.636 70.9381 136.804 70.6672 137.001C74.1231 143.108 77.5416 149.16 81.0348 155.338ZM63.2511 132.165C62.7374 132.343 62.4619 132.394 62.233 132.52C60.3697 133.559 58.5063 134.611 56.6523 135.668C55.7696 136.173 55.6622 136.865 56.1572 137.735C61.8454 147.78 67.5196 157.835 73.1984 167.885C73.7168 168.807 74.3986 169.017 75.328 168.475C77.0092 167.502 78.7091 166.562 80.3903 165.594C81.7073 164.841 81.8334 164.392 81.0955 163.078C79.6104 160.435 78.1207 157.793 76.6262 155.155C72.5539 147.949 68.4863 140.737 64.3953 133.54C64.0964 133.016 63.6107 132.595 63.2511 132.165Z" fill="black"/>
<path d="M126.12 74.0431C124.518 72.3875 123.939 70.5075 124.032 68.389C124.093 67.028 123.99 65.6437 124.224 64.3156C124.77 61.1728 127.451 58.9187 130.636 58.9093C140.868 58.8766 151.1 58.8719 161.332 58.9093C164.952 58.9234 167.819 61.8416 167.917 65.4614C167.95 66.7054 167.931 67.954 167.922 69.2027C167.913 71.0453 167.198 72.6026 166.045 73.8513C168.777 78.4158 168.744 82.868 166.063 87.4511C168.786 91.0101 168.8 96.2947 165.97 100.607C168.702 103.628 168.193 107.276 167.604 110.783C167.109 113.739 164.223 115.68 161.034 115.698C156.989 115.722 152.94 115.722 148.896 115.689C148.205 115.684 147.784 115.867 147.392 116.475C142.358 124.238 133.298 128.059 124.467 126.179C115.561 124.285 108.789 117.181 107.267 108.136C105.473 97.4919 112.091 86.8431 122.468 83.6723C122.982 83.5133 123.495 83.359 124.018 83.2C124.168 80.0011 123.36 76.648 126.12 74.0431ZM128.941 86.469C118.9 86.4643 110.737 94.6204 110.737 104.661C110.732 114.674 118.947 122.905 128.936 122.9C138.944 122.896 147.135 114.688 147.135 104.666C147.131 94.6158 138.991 86.469 128.941 86.469ZM146.005 72.1771C150.909 72.1771 155.808 72.1911 160.711 72.1724C163.009 72.163 164.163 70.9939 164.177 68.721C164.186 67.6687 164.209 66.6165 164.163 65.5642C164.088 63.8993 162.916 62.7395 161.253 62.6554C160.553 62.6179 159.852 62.6413 159.151 62.6413C149.816 62.6413 140.476 62.6366 131.14 62.646C128.997 62.646 127.82 63.8245 127.783 65.9571C127.768 66.7755 127.778 67.5939 127.778 68.4123C127.782 71.0734 128.875 72.1771 131.533 72.1771C136.357 72.1817 141.181 72.1771 146.005 72.1771ZM127.806 82.7277C131.925 82.5686 135.675 83.4011 139.192 85.239C139.42 85.3559 139.715 85.384 139.981 85.384C147.056 85.3887 154.126 85.4074 161.202 85.3747C162.99 85.3653 164.125 84.1307 164.177 82.3114C164.205 81.3013 164.191 80.2864 164.181 79.2763C164.158 77.111 163.028 75.9465 160.884 75.9371C157.657 75.9231 154.435 75.9324 151.208 75.9324C144.483 75.9324 137.758 75.9278 131.038 75.9371C129.207 75.9418 127.96 76.952 127.829 78.6309C127.722 79.9357 127.806 81.2592 127.806 82.7277ZM144.464 89.1487C147.243 92.0483 148.999 95.1583 150.063 98.6564C153.893 98.6564 157.62 98.6892 161.346 98.6424C162.93 98.6237 164.078 97.4031 164.167 95.7896C164.214 94.9385 164.181 94.0779 164.181 93.2221C164.181 90.0887 163.233 89.1534 160.057 89.1487C155.476 89.1487 150.895 89.1487 146.309 89.1487C145.814 89.1487 145.319 89.1487 144.464 89.1487ZM149.993 111.943C153.645 111.943 157.494 111.99 161.332 111.919C162.995 111.887 164.102 110.624 164.167 108.94C164.205 107.93 164.181 106.915 164.177 105.905C164.163 103.567 163.014 102.426 160.641 102.416C157.727 102.407 154.813 102.412 151.899 102.416C151.563 102.416 151.226 102.459 151.128 102.463C150.75 105.667 150.381 108.735 149.993 111.943Z" fill="black"/>
<path d="M93.1722 74.333C91.9393 74.333 90.8932 74.3517 89.8424 74.3284C88.0164 74.2909 87.1244 72.8084 88.1051 71.2979C91.094 66.6913 94.1202 62.1129 97.1698 57.5531C98.0991 56.1641 99.5562 56.1969 100.5 57.6046C103.498 62.1082 106.496 66.6165 109.405 71.1763C109.76 71.7328 109.896 72.7757 109.606 73.3042C109.317 73.8326 108.401 74.1834 107.706 74.2909C106.687 74.4546 105.627 74.333 104.446 74.333C104.446 74.8521 104.446 75.2684 104.446 75.6846C104.446 82.6996 104.446 89.7146 104.446 96.7296C104.446 98.7967 103.89 99.3439 101.812 99.3439C99.7103 99.3439 97.6088 99.3533 95.5072 99.3439C93.826 99.3346 93.1769 98.6938 93.1769 97.0102C93.1722 89.9157 93.1722 82.8259 93.1722 75.7314C93.1722 75.3151 93.1722 74.8942 93.1722 74.333ZM100.7 95.5418C100.7 91.3608 100.7 87.3155 100.7 83.2702C100.7 79.8047 100.691 76.344 100.705 72.8786C100.714 71.3212 101.392 70.6244 102.863 70.587C103.353 70.573 103.839 70.587 104.577 70.587C102.601 67.5893 100.756 64.7926 98.809 61.8369C96.8616 64.7926 95.0029 67.6126 93.0694 70.5496C93.5084 70.5683 93.6999 70.5823 93.896 70.587C96.5113 70.6197 96.9129 71.0266 96.9129 73.6549C96.9129 80.5062 96.9129 87.3529 96.9129 94.2042C96.9129 94.6485 96.9129 95.0975 96.9129 95.5464C98.2579 95.5418 99.4114 95.5418 100.7 95.5418Z" fill="black"/>
<path d="M81.0346 155.338C77.5414 149.16 74.1229 143.108 70.667 136.996C70.9379 136.799 71.134 136.626 71.3582 136.5C76.5373 133.493 81.6697 130.406 86.9189 127.535C88.899 126.45 91.0986 125.613 93.2982 125.14C94.7647 124.827 96.4926 125.108 97.9683 125.561C103.344 127.222 108.653 129.106 114.015 130.827C115.673 131.36 117.419 131.613 119.115 132.048C121.646 132.698 122.963 135.219 122.043 137.585C121.3 139.484 119.432 140.438 117.13 139.872C113.02 138.857 108.938 137.725 104.847 136.645C104.436 136.538 104.03 136.388 103.61 136.318C102.489 136.121 101.588 136.669 101.349 137.646C101.102 138.675 101.574 139.573 102.671 139.909C104.6 140.499 106.543 141.069 108.504 141.542C112.24 142.444 115.972 143.389 119.745 144.09C123.163 144.726 126.503 144.198 129.552 142.435C136.52 138.413 143.469 134.349 150.423 130.299C153.057 128.765 155.742 127.376 158.834 127.03C162.574 126.614 165.059 129.485 163.896 133.035C163.606 133.919 162.906 134.868 162.126 135.354C149.582 143.164 136.992 150.9 124.42 158.668C121.146 160.693 117.685 161.062 114.001 160.061C105.193 157.671 96.3712 155.333 87.568 152.925C86.3772 152.597 85.3965 152.714 84.3784 153.383C83.3463 154.07 82.2395 154.641 81.0346 155.338Z" fill="white"/>
<path d="M63.2507 132.165C63.615 132.595 64.096 133.016 64.3949 133.54C68.4859 140.737 72.5535 147.949 76.6258 155.155C78.1156 157.793 79.61 160.435 81.0951 163.078C81.833 164.392 81.7116 164.841 80.3899 165.594C78.704 166.557 77.0041 167.502 75.3276 168.475C74.3982 169.012 73.7164 168.802 73.198 167.885C67.5192 157.835 61.845 147.78 56.1568 137.735C55.6618 136.865 55.7692 136.173 56.6519 135.668C58.5059 134.606 60.3693 133.558 62.2326 132.52C62.4615 132.394 62.7323 132.343 63.2507 132.165ZM64.0726 138.684C64.082 137.492 63.1246 136.523 61.9571 136.547C60.8456 136.57 59.8976 137.52 59.8836 138.633C59.8696 139.807 60.8409 140.77 62.0225 140.751C63.176 140.737 64.0586 139.844 64.0726 138.684Z" fill="#A76456"/>
<path d="M128.94 86.4691C138.99 86.4737 147.13 94.6158 147.13 104.666C147.13 114.688 138.939 122.896 128.931 122.9C118.941 122.905 110.731 114.674 110.731 104.661C110.736 94.6158 118.899 86.4644 128.94 86.4691ZM130.86 116.348C131.691 116.063 132.48 115.853 133.223 115.535C135.576 114.51 137.131 112.813 137.225 110.147C137.318 107.5 136.132 105.447 133.774 104.25C132.545 103.623 131.168 103.282 129.841 102.865C128.842 102.552 127.796 102.393 126.815 102.042C125.811 101.682 125.064 100.981 125.041 99.8116C125.017 98.6004 125.657 97.7632 126.708 97.2161C129.09 95.9721 131.714 96.7858 133.082 99.2037C133.713 100.317 134.722 100.71 135.693 100.218C136.66 99.7321 136.959 98.6565 136.408 97.492C135.497 95.5839 134.077 94.1762 132.06 93.5075C131.186 93.2175 130.701 92.9182 130.761 91.8613C130.817 90.8418 129.935 90.0654 128.973 90.0888C127.95 90.1122 127.119 90.6827 127.137 91.6742C127.161 92.9135 126.582 93.2502 125.573 93.6337C122.888 94.6532 121.225 97.1085 121.286 99.7321C121.356 102.646 122.925 104.516 125.536 105.569C126.428 105.929 127.39 106.12 128.328 106.378C129.337 106.654 130.379 106.845 131.355 107.201C132.606 107.654 133.484 108.506 133.489 109.96C133.489 111.054 132.648 111.873 131.116 112.35C128.16 113.271 125.325 112.219 124.396 109.848C123.854 108.459 122.93 107.916 121.837 108.337C120.749 108.758 120.394 109.796 120.898 111.195C121.781 113.645 123.56 115.151 125.979 115.965C126.334 116.086 126.689 116.199 127.011 116.306C127.137 118.434 127.632 119.196 128.865 119.243C130.145 119.281 130.705 118.486 130.86 116.348Z" fill="#F5CF6D"/>
<path d="M146.005 72.1771C141.181 72.1771 136.357 72.1818 131.533 72.1771C128.875 72.1724 127.787 71.0734 127.778 68.4124C127.778 67.594 127.764 66.7756 127.783 65.9571C127.82 63.8292 128.997 62.6507 131.14 62.646C140.476 62.6367 149.816 62.6414 159.152 62.6414C159.852 62.6414 160.553 62.618 161.253 62.6554C162.916 62.7443 164.088 63.8994 164.163 65.5643C164.209 66.6119 164.186 67.6688 164.177 68.7211C164.158 70.9939 163.009 72.1631 160.711 72.1724C155.808 72.1911 150.909 72.1771 146.005 72.1771Z" fill="#F5CF6D"/>
<path d="M127.805 82.7277C127.805 81.2592 127.726 79.9404 127.824 78.6309C127.955 76.952 129.202 75.9419 131.032 75.9372C137.757 75.9231 144.482 75.9325 151.202 75.9325C154.429 75.9325 157.656 75.9231 160.879 75.9372C163.022 75.9465 164.153 77.111 164.176 79.2763C164.185 80.2865 164.199 81.3013 164.171 82.3115C164.125 84.1354 162.99 85.37 161.196 85.3747C154.121 85.4074 147.051 85.3934 139.975 85.3841C139.709 85.3841 139.41 85.356 139.186 85.2391C135.67 83.4012 131.924 82.5687 127.805 82.7277Z" fill="#F5CF6D"/>
<path d="M144.464 89.1488C145.323 89.1488 145.818 89.1488 146.309 89.1488C150.89 89.1488 155.471 89.1488 160.057 89.1488C163.233 89.1488 164.181 90.0888 164.181 93.2222C164.181 94.078 164.214 94.9339 164.167 95.7897C164.078 97.4031 162.929 98.6238 161.346 98.6425C157.62 98.6892 153.893 98.6565 150.063 98.6565C148.994 95.1537 147.243 92.0437 144.464 89.1488Z" fill="#F5CF6D"/>
<path d="M149.993 111.943C150.376 108.739 150.745 105.671 151.128 102.463C151.221 102.459 151.558 102.417 151.899 102.417C154.813 102.412 157.727 102.407 160.641 102.417C163.013 102.426 164.162 103.567 164.176 105.905C164.181 106.915 164.204 107.93 164.167 108.94C164.106 110.624 162.995 111.887 161.332 111.92C157.493 111.99 153.65 111.943 149.993 111.943Z" fill="#F5CF6D"/>
<path d="M100.7 95.5418C99.4115 95.5418 98.258 95.5418 96.9177 95.5418C96.9177 95.0928 96.9177 94.6485 96.9177 94.1996C96.9177 87.3482 96.9177 80.5016 96.9177 73.6502C96.9177 71.0219 96.5161 70.6151 93.9008 70.5823C93.7094 70.5777 93.5132 70.5683 93.0742 70.5449C95.0076 67.608 96.8663 64.7926 98.8138 61.8323C100.761 64.7879 102.606 67.5846 104.581 70.5823C103.843 70.5823 103.358 70.573 102.867 70.5823C101.396 70.6198 100.714 71.3166 100.71 72.8739C100.691 76.3393 100.705 79.8001 100.705 83.2655C100.7 87.3155 100.7 91.3608 100.7 95.5418Z" fill="#8FC486"/>
<path d="M64.0726 138.684C64.0633 139.844 63.176 140.737 62.0225 140.751C60.8363 140.765 59.8649 139.802 59.8836 138.633C59.8976 137.52 60.8456 136.566 61.9571 136.547C63.1246 136.523 64.082 137.492 64.0726 138.684Z" fill="#461A10"/>
<path d="M130.86 116.348C130.706 118.481 130.141 119.281 128.861 119.229C127.629 119.182 127.134 118.42 127.007 116.292C126.685 116.185 126.326 116.072 125.975 115.951C123.556 115.137 121.777 113.636 120.894 111.181C120.39 109.782 120.745 108.744 121.833 108.323C122.926 107.902 123.85 108.449 124.392 109.834C125.322 112.205 128.152 113.262 131.112 112.336C132.644 111.859 133.49 111.04 133.485 109.946C133.485 108.496 132.607 107.645 131.351 107.187C130.37 106.831 129.333 106.64 128.324 106.364C127.39 106.106 126.428 105.915 125.532 105.555C122.921 104.502 121.352 102.636 121.282 99.718C121.221 97.0944 122.884 94.6392 125.569 93.6196C126.578 93.2362 127.157 92.8994 127.134 91.6601C127.115 90.6687 127.946 90.0981 128.969 90.0747C129.931 90.0513 130.814 90.8323 130.757 91.8472C130.697 92.9041 131.182 93.2034 132.056 93.4934C134.073 94.1621 135.493 95.5698 136.404 97.4779C136.959 98.6424 136.656 99.718 135.689 100.204C134.718 100.695 133.709 100.303 133.079 99.1896C131.71 96.7764 129.086 95.958 126.704 97.202C125.653 97.7538 125.013 98.5863 125.037 99.7975C125.06 100.962 125.807 101.668 126.811 102.028C127.792 102.379 128.843 102.538 129.837 102.851C131.164 103.268 132.541 103.609 133.77 104.236C136.128 105.433 137.314 107.486 137.221 110.133C137.128 112.799 135.572 114.501 133.219 115.521C132.485 115.857 131.696 116.068 130.86 116.348Z" fill="black"/>
</svg>
