<svg width="89" height="92" viewBox="0 0 89 92" fill="none" xmlns="http://www.w3.org/2000/svg">
<path d="M25.613 89.2944C27.3841 89.2944 29.0767 89.2908 30.7693 89.2944C31.8727 89.298 32.5083 89.8118 32.4904 90.667C32.4726 91.4898 31.8548 91.9928 30.8086 91.9928C21.7922 91.9964 12.7793 92 3.76291 91.9892C1.58469 91.9856 0.0313712 90.4514 0.0278004 88.2632C0.00994611 81.1993 -0.0329041 74.1318 0.0456547 67.0678C0.10993 61.5202 3.39512 56.9462 8.54072 54.9341C9.59412 54.5245 10.6332 54.0754 11.7009 53.7161C12.3437 53.5005 12.5294 53.1556 12.5258 52.4801C12.5044 42.5094 12.5329 32.5422 12.5008 22.5715C12.4829 17.2574 13.9434 12.4284 17.3143 8.34665C23.2562 1.16056 30.8728 -1.45878 39.9035 0.7761C48.3058 2.85647 54.5869 10.1072 55.7903 18.727C55.9652 19.9666 56.0402 21.2313 56.0438 22.4853C56.0724 27.8425 56.0545 33.2034 56.0545 38.5606C56.0545 38.9127 56.0545 39.2648 56.0545 39.6996C58.0328 39.5235 59.8218 39.0385 61.5322 38.2696C61.6965 38.1941 61.7822 37.7845 61.7857 37.5294C61.8322 34.6298 63.8997 32.2404 66.61 31.9853C69.5559 31.7087 72.0412 33.5303 72.6447 36.4012C72.6697 36.5197 72.7268 36.6455 72.7018 36.7533C72.3626 38.2264 73.366 38.5175 74.4337 38.8552C76.7298 39.5846 79.0615 39.9296 81.4683 39.7499C81.6754 39.7355 81.8861 39.7283 82.0932 39.7068C82.7967 39.6385 83.5001 39.6098 83.8786 40.3715C84.2321 41.0865 83.9857 41.7009 83.3858 42.2255C84.5714 44.3418 85.7248 46.4294 86.9174 48.4954C87.0424 48.711 87.3566 48.8547 87.6102 48.9445C88.4922 49.2607 89.0242 49.85 89.0028 50.8057C88.9778 51.7866 89.0099 52.8034 88.7707 53.7376C88.2208 55.8719 86.2568 57.3989 84.0393 57.4636C81.779 57.5319 79.515 57.5355 77.2583 57.4672C74.4587 57.381 72.2983 55.121 72.2091 52.3004C72.1912 51.7615 72.1734 51.2189 72.2198 50.6835C72.2983 49.832 72.7518 49.2535 73.5731 48.9661C73.8338 48.8726 74.173 48.7613 74.2944 48.5493C75.455 46.5408 76.5762 44.5071 77.6689 42.5525C75.7514 41.9632 73.8874 41.3811 72.0162 40.835C71.852 40.7883 71.5949 40.9392 71.427 41.0614C70.5451 41.6937 69.6738 42.3477 68.6561 43.0986C68.6561 47.9744 68.6561 53.116 68.6561 58.2864C71.1057 58.9907 72.8304 60.4746 73.4874 62.9754C73.7017 63.7838 73.8731 64.2796 74.8515 64.4413C76.1227 64.6497 76.9083 65.8893 76.9654 67.3194C77.0012 68.2176 76.9976 69.1159 76.969 70.0141C76.9047 71.9185 75.6764 73.1221 73.7802 73.1365C72.0912 73.1509 70.3986 73.1401 68.5632 73.1401C68.5632 74.1246 68.5668 75.0372 68.5632 75.9499C68.5632 76.3379 68.5811 76.7331 68.5311 77.114C68.4275 77.9045 67.8633 78.3931 67.1385 78.332C66.3779 78.2674 65.9351 77.8147 65.8994 77.0529C65.8565 76.0972 65.8815 75.1378 65.8744 74.1785C65.8744 73.8587 65.8744 73.5353 65.8744 73.1365C64.1568 73.1365 62.557 73.1401 60.9573 73.1365C58.7827 73.1293 57.5864 71.9328 57.5721 69.759C57.5686 69.2201 57.5721 68.6811 57.5721 68.1422C57.5721 65.5444 58.2042 64.7467 60.6823 64.1898C60.9323 63.4137 61.1001 62.6125 61.4429 61.8974C61.7822 61.1824 62.2928 60.55 62.7534 59.8386C61.6822 58.6206 60.3003 57.805 58.7434 57.363C58.1827 57.2049 57.515 57.4636 56.8972 57.4744C55.5617 57.496 54.2262 57.4816 53.1264 57.4816C53.1871 59.1021 53.3121 60.665 53.2692 62.2244C53.2478 62.9466 52.9372 63.676 52.6836 64.3766C50.5161 70.3555 48.32 76.3271 46.174 82.3131C45.899 83.0785 45.7847 83.9336 45.749 84.7528C45.6812 86.2152 45.7312 87.6848 45.7312 89.2154C48.9699 89.2154 52.1623 89.2154 55.4403 89.2154C55.4403 88.8669 55.4403 88.5471 55.4403 88.2273C55.4403 84.1851 55.4368 80.1429 55.4475 76.1008C55.4475 75.7199 55.4189 75.2205 55.6332 74.9869C55.9545 74.6312 56.5152 74.2108 56.9044 74.2719C57.3436 74.3402 57.7542 74.8719 58.0721 75.2851C58.2185 75.4756 58.1256 75.8636 58.1256 76.1618C58.1292 80.1753 58.1256 84.1851 58.1256 88.1986C58.1256 88.5219 58.1256 88.8453 58.1256 89.2621C60.4788 89.2621 62.7606 89.3016 65.0388 89.2405C65.728 89.2226 65.8815 88.5902 65.8815 87.9686C65.8779 86.5314 65.8744 85.0942 65.8887 83.6569C65.8922 83.3336 65.8601 82.8737 66.0458 82.7156C66.4386 82.3778 66.9563 82.0149 67.4348 82.0005C68.0776 81.9826 68.5275 82.5287 68.5347 83.197C68.5525 85.1121 68.6168 87.0344 68.4525 88.9351C68.299 90.7281 66.7064 91.9605 64.8245 91.9749C62.4142 91.9928 60.0039 91.9784 57.5936 91.9784C51.1374 91.9784 44.6813 91.9784 38.2252 91.9784C37.9574 91.9784 37.6896 91.9928 37.4218 91.9713C36.5969 91.9102 36.0756 91.3568 36.097 90.5843C36.1184 89.855 36.6291 89.3088 37.4182 89.2908C38.9358 89.2585 40.4535 89.2801 41.9711 89.2765C42.2924 89.2765 42.6138 89.2765 42.9888 89.2765C42.9888 80.5023 42.9888 71.8107 42.9888 63.3706C41.2033 62.846 39.5179 62.4077 37.8789 61.8364C37.2575 61.6208 36.7612 61.0675 36.1756 60.7189C35.8221 60.5069 35.4221 60.3057 35.0222 60.2482C34.4687 60.1692 33.8938 60.2123 33.3296 60.2375C33.1082 60.2482 32.819 60.277 32.6797 60.4171C30.7979 62.3358 28.4018 62.8855 25.8558 63.0544C25.7987 63.058 25.7451 63.0832 25.6201 63.1155C25.613 71.8035 25.613 80.4951 25.613 89.2944ZM15.3146 25.3921C16.8394 23.671 18.7319 22.9416 20.953 22.9452C22.8241 22.9488 24.6953 22.8877 26.5664 22.8446C29.723 22.7691 31.8477 21.2996 32.7725 18.1952C32.9904 17.4658 33.4939 17.0346 34.2866 17.0454C35.0722 17.0562 35.5507 17.4838 35.7792 18.2203C35.8399 18.4216 35.8899 18.6228 35.9685 18.8168C36.904 21.1631 38.6002 22.5679 41.1141 22.7871C42.9459 22.9452 44.7992 23.053 46.6346 22.9596C49.202 22.8302 51.4731 23.3081 53.2371 25.3993C53.9549 18.4575 52.223 11.2139 45.2241 6.18723C38.9715 1.69592 30.5479 1.4983 24.1561 5.69139C16.9501 10.4198 14.5219 17.8646 15.3146 25.3921ZM22.8563 89.2477C22.8563 87.656 22.8884 86.1038 22.842 84.5588C22.8206 83.9156 22.7242 83.2437 22.5063 82.6401C20.2995 76.5176 18.082 70.395 15.8217 64.2904C14.8397 61.6387 14.9183 59.0913 16.2181 56.5761C16.5501 55.9366 16.8287 55.2719 17.2179 54.4347C14.1505 55.6419 11.2189 56.5833 8.48001 57.9307C4.96986 59.6554 2.8702 62.6735 2.77379 66.6295C2.60239 73.7797 2.71308 80.937 2.70237 88.0908C2.70237 88.9136 3.09159 89.3016 3.90218 89.298C5.12341 89.2908 6.34107 89.298 7.56231 89.298C8.50144 89.298 9.44058 89.298 10.419 89.298C10.419 88.8381 10.419 88.5147 10.419 88.1878C10.419 82.0221 10.419 75.8528 10.419 69.6872C10.419 69.4177 10.3904 69.141 10.4404 68.8823C10.5797 68.1458 11.0082 67.6966 11.7831 67.711C12.5544 67.7254 12.9793 68.1709 13.0864 68.9219C13.1257 69.1877 13.1007 69.4608 13.1007 69.7303C13.1007 75.896 13.1007 82.0652 13.1007 88.2309C13.1007 88.5758 13.1007 88.9208 13.1007 89.2585C16.4109 89.2477 19.5818 89.2477 22.8563 89.2477ZM23.0705 25.7083C23.0705 28.8989 22.8313 31.9674 23.1205 34.9855C23.649 40.5044 28.4768 44.6185 34.1509 44.7191C39.6357 44.8197 44.6778 40.7955 45.3491 35.3879C45.7383 32.2656 45.5169 29.0642 45.5669 25.8987C45.5669 25.852 45.5098 25.8017 45.4312 25.6795C41.2248 25.7478 36.9969 25.6831 34.2759 21.4289C31.537 25.7658 27.2449 25.6723 23.0705 25.7083ZM15.2575 32.4165C15.2575 39.1606 15.2575 45.6856 15.2575 52.3112C17.9356 51.2656 20.5352 50.2524 23.1312 49.2319C23.9847 48.8942 25.1702 48.7613 25.588 48.1253C26.0343 47.4498 25.8094 46.2857 25.7558 45.3407C25.7308 44.9347 25.4916 44.4352 25.1845 44.1693C23.1062 42.3549 21.6386 40.1559 20.8459 37.5078C20.6245 36.7713 20.4852 36.0095 20.3031 35.2298C18.3106 35.0179 16.6501 34.1915 15.2575 32.4165ZM26.8735 50.6584C28.409 53.4646 30.8621 55.2431 32.9047 57.3954C33.0047 57.5031 33.226 57.5247 33.3939 57.5283C33.9866 57.5427 34.583 57.557 35.1757 57.5211C35.3828 57.5067 35.6114 57.3846 35.7721 57.2409C36.2577 56.8061 36.7005 56.321 37.1861 55.8899C38.9037 54.3736 40.4392 52.6992 41.7104 50.6943C39.6893 49.7709 40.1106 47.9384 40.0535 46.5408C38.0753 46.8426 36.1827 47.3672 34.2902 47.36C32.369 47.3528 30.4515 46.8174 28.4732 46.5048C28.4197 47.9564 28.8732 49.7961 26.8735 50.6584ZM56.858 42.5597C57.9578 44.5179 59.0576 46.4976 60.186 48.463C60.3003 48.6642 60.5538 48.8259 60.7788 48.9086C61.8572 49.311 62.2821 49.8356 62.3357 50.9422C62.4106 52.5232 62.2607 54.0538 61.3572 55.2647C62.5428 56.2204 63.6604 57.1438 64.8067 58.0385C65.0352 58.2146 65.353 58.2757 65.628 58.3906C65.728 58.114 65.9172 57.8373 65.9208 57.5606C65.9422 54.1185 65.9351 50.6764 65.9351 47.2342C65.9351 45.7718 65.9351 44.3059 65.9351 43.1489C64.8567 42.3405 63.9675 41.6686 63.0641 41.0147C62.9177 40.9069 62.682 40.7883 62.5356 40.8314C60.6574 41.3811 58.7969 41.9632 56.858 42.5597ZM48.1701 35.2442C47.7023 38.2983 46.6167 41.0362 44.3957 42.9908C42.8852 44.3167 42.5924 45.7323 42.7174 47.5181C42.7567 48.0606 42.9138 48.3193 43.4066 48.4774C44.0814 48.6966 44.7385 48.984 45.4027 49.2391C45.8919 49.426 47.3309 49.0056 47.5916 48.5529C48.7843 46.4581 49.9555 44.3526 51.1446 42.2363C50.5554 41.6901 50.2662 41.0973 50.6447 40.3679C51.0089 39.6637 51.6588 39.6349 52.3444 39.6996C52.6551 39.7283 52.9729 39.7032 53.3228 39.7032C53.3228 37.2779 53.3228 34.9352 53.3228 32.3554C51.9623 34.195 50.2412 35.0107 48.1701 35.2442ZM22.7777 75.3714C22.7777 67.5457 22.7777 59.95 22.7777 52.3723C21.4565 52.5555 20.6531 53.2059 20.1996 54.4419C19.7711 55.6132 19.1712 56.727 18.5927 57.8409C17.6643 59.6266 17.6178 61.4196 18.3177 63.2951C19.6961 66.9852 21.0244 70.6968 22.3778 74.3977C22.4742 74.66 22.5885 74.9151 22.7777 75.3714ZM45.774 75.1989C45.899 75.0049 45.9597 74.9474 45.9847 74.8719C47.4738 70.7831 48.9664 66.6942 50.4376 62.6017C50.9482 61.186 50.7982 59.7847 50.2162 58.4122C49.9555 57.7978 49.6591 57.3235 48.9164 57.1043C48.2629 56.9103 47.638 56.4612 47.1238 55.9905C46.6025 55.5126 46.2347 54.873 45.774 54.2694C45.774 61.2363 45.774 68.1458 45.774 75.1989ZM67.1992 70.4417C69.2203 70.4417 71.2414 70.4094 73.2625 70.4597C74.0231 70.4776 74.3766 70.2836 74.2873 69.468C74.2337 68.965 74.2409 68.4476 74.2873 67.9445C74.3551 67.2116 74.098 66.9565 73.341 66.9636C69.8344 66.9996 66.3243 66.978 62.8177 66.978C60.1789 66.978 60.2038 66.978 60.2324 69.6153C60.2396 70.3195 60.5074 70.4633 61.1358 70.4561C63.157 70.4237 65.1781 70.4417 67.1992 70.4417ZM74.9515 51.6105C74.7837 53.4179 75.7478 54.7221 77.3618 54.7688C79.5257 54.8335 81.6933 54.8335 83.8572 54.7688C85.5391 54.7185 86.5639 53.2813 86.1961 51.6105C82.4717 51.6105 78.7437 51.6105 74.9515 51.6105ZM59.5968 51.6429C55.7724 51.6429 52.0123 51.6429 48.2593 51.6429C48.0772 53.5688 49.1092 54.7652 50.9625 54.7868C52.9264 54.812 54.8904 54.8084 56.8508 54.7868C58.6791 54.7688 59.7254 53.5795 59.5968 51.6429ZM67.3063 40.2637C68.831 40.2457 70.063 38.9774 70.0523 37.4396C70.0451 35.9017 68.7989 34.6585 67.2634 34.6585C65.6815 34.6585 64.4532 35.9233 64.4817 37.5258C64.5103 39.0672 65.7601 40.2817 67.3063 40.2637ZM83.9929 48.8295C82.8609 46.8102 81.779 44.8808 80.6149 42.8076C79.4543 44.8808 78.3724 46.821 77.2475 48.8295C79.5722 48.8295 81.7218 48.8295 83.9929 48.8295ZM57.29 48.8367C56.1474 46.7995 55.0618 44.8628 53.9084 42.804C52.7372 44.9023 51.6552 46.8354 50.5375 48.8367C52.83 48.8367 54.9797 48.8367 57.29 48.8367ZM70.9307 64.2293C70.8057 62.2747 69.1417 60.8555 67.142 60.895C65.2495 60.9345 63.6426 62.4328 63.614 64.2293C66.0351 64.2293 68.4561 64.2293 70.9307 64.2293ZM38.1931 58.9332C39.5465 59.9105 41.1676 60.3632 42.9423 60.3165C42.9423 58.096 42.9423 55.9833 42.9423 54.3736C41.5211 55.7354 39.8928 57.3019 38.1931 58.9332ZM48.3129 32.4416C50.5018 32.1183 51.8516 30.5122 51.6516 28.5755C51.4838 26.9551 49.9555 25.6651 48.3129 25.7873C48.3129 27.9827 48.3129 30.1816 48.3129 32.4416ZM20.2103 25.7586C18.3463 25.7981 16.8787 27.1958 16.8644 28.9204C16.8465 30.7673 18.3749 32.3482 20.2103 32.3698C20.2103 30.1636 20.2103 27.9611 20.2103 25.7586ZM25.5844 60.3632C27.4341 60.2662 29.091 59.9608 30.3087 58.9296C28.6125 57.2876 26.9913 55.7174 25.5844 54.3556C25.5844 56.0192 25.5844 58.1283 25.5844 60.3632Z" fill="black"/>
<path d="M35.6042 74.3869C35.6042 77.4985 35.6077 80.6101 35.6042 83.7217C35.6042 84.8427 35.1078 85.4787 34.2651 85.4715C33.4259 85.4643 32.926 84.8176 32.926 83.7073C32.9224 77.4554 32.9224 71.2035 32.926 64.9516C32.926 63.8629 33.4724 63.2233 34.3258 63.2557C35.115 63.288 35.6042 63.8881 35.6042 64.8761C35.6077 68.0452 35.6042 71.2179 35.6042 74.3869Z" fill="black"/>
<path d="M15.3144 25.3921C14.5217 17.8646 16.9499 10.4198 24.1559 5.69856C30.5513 1.50906 38.9714 1.70309 45.2239 6.1944C52.2228 11.2211 53.9547 18.4647 53.2369 25.4064C51.4729 23.3117 49.1983 22.8338 46.6344 22.9667C44.8026 23.0602 42.9457 22.9524 41.1139 22.7943C38.6 22.5751 36.9038 21.1702 35.9683 18.824C35.8897 18.6299 35.8397 18.4251 35.779 18.2275C35.5505 17.4909 35.072 17.0634 34.2864 17.0526C33.4937 17.0418 32.9902 17.473 32.7724 18.2024C31.8475 21.3104 29.7229 22.7763 26.5662 22.8518C24.6951 22.8949 22.824 22.956 20.9528 22.9524C18.7318 22.9452 16.8392 23.671 15.3144 25.3921Z" fill="#3A3838"/>
<path d="M23.0706 25.7083C27.2449 25.6724 31.5371 25.7694 34.2795 21.4362C37.0005 25.6903 41.2284 25.755 45.4349 25.6867C45.5134 25.8089 45.5741 25.8556 45.5706 25.9059C45.5206 29.0714 45.742 32.2728 45.3527 35.3952C44.6778 40.8027 39.6358 44.8233 34.1545 44.7263C28.4804 44.6221 23.6526 40.5117 23.1242 34.9927C22.8313 31.9674 23.0706 28.8989 23.0706 25.7083Z" fill="white"/>
<path d="M15.2573 32.4165C16.6464 34.1915 18.3104 35.0179 20.3029 35.2299C20.4851 36.0096 20.6279 36.7713 20.8457 37.5079C21.6384 40.1559 23.1061 42.3549 25.1843 44.1694C25.4914 44.4353 25.7306 44.9347 25.7556 45.3407C25.8092 46.2857 26.0342 47.4498 25.5878 48.1253C25.1664 48.7613 23.9845 48.8978 23.1311 49.232C20.535 50.2524 17.939 51.262 15.2573 52.3112C15.2573 45.6856 15.2573 39.1607 15.2573 32.4165Z" fill="#787878"/>
<path d="M26.8735 50.6585C28.8732 49.7961 28.4233 47.9565 28.4768 46.5049C30.4515 46.8175 32.3691 47.3493 34.2938 47.36C36.1828 47.3672 38.0789 46.8462 40.0571 46.5408C40.1143 47.9385 39.6929 49.771 41.714 50.6944C40.4428 52.6993 38.9073 54.3737 37.1897 55.8899C36.7005 56.3211 36.2613 56.8097 35.7757 57.2409C35.615 57.3846 35.3865 57.5068 35.1793 57.5212C34.5866 57.5571 33.9902 57.5427 33.3975 57.5284C33.2297 57.5248 33.0083 57.4996 32.9083 57.3954C30.8622 55.2432 28.409 53.4646 26.8735 50.6585Z" fill="white"/>
<path d="M48.1702 35.2443C50.2377 35.0143 51.9625 34.1987 53.3158 32.3555C53.3158 34.9353 53.3158 37.2815 53.3158 39.7033C52.9659 39.7033 52.6516 39.7284 52.3374 39.6997C51.6518 39.6314 51.0019 39.6637 50.6377 40.368C50.2592 41.0938 50.5484 41.6902 51.1376 42.2364C49.9521 44.3527 48.7808 46.4582 47.5846 48.5529C47.3275 49.0057 45.8849 49.426 45.3957 49.2392C44.7279 48.9877 44.0745 48.7002 43.3996 48.4775C42.9068 48.3158 42.7497 48.0571 42.7104 47.5181C42.5854 45.736 42.8782 44.3203 44.3887 42.9909C46.6169 41.0363 47.7024 38.2984 48.1702 35.2443Z" fill="#787878"/>
<path d="M22.7777 75.3714C22.5884 74.9151 22.4742 74.66 22.3778 74.3977C21.028 70.6969 19.696 66.9852 18.3177 63.2952C17.6178 61.4196 17.6607 59.6267 18.5927 57.8409C19.1711 56.7307 19.771 55.6168 20.1995 54.4419C20.6495 53.2059 21.4565 52.5556 22.7777 52.3723C22.7777 59.9536 22.7777 67.5458 22.7777 75.3714Z" fill="#BE202E"/>
<path d="M45.7739 75.1989C45.7739 68.1458 45.7739 61.2363 45.7739 54.273C46.2346 54.873 46.6059 55.5162 47.1237 55.9941C47.6379 56.4648 48.2628 56.9139 48.9163 57.1079C49.659 57.3271 49.9554 57.8014 50.2161 58.4158C50.7981 59.7883 50.9481 61.1896 50.4375 62.6053C48.9663 66.7014 47.4701 70.7867 45.9846 74.8755C45.9596 74.9438 45.9025 75.0049 45.7739 75.1989Z" fill="#BE202E"/>
<path d="M67.199 70.4418C65.1779 70.4418 63.1568 70.4238 61.1357 70.4526C60.5072 70.4633 60.2394 70.316 60.2323 69.6118C60.2037 66.9745 60.1823 66.9745 62.8176 66.9745C66.3242 66.9745 69.8343 66.996 73.3409 66.9601C74.0979 66.9529 74.355 67.208 74.2872 67.941C74.2407 68.444 74.2336 68.9614 74.2872 69.4645C74.3764 70.2837 74.0229 70.4741 73.2623 70.4561C71.2448 70.4094 69.2237 70.4418 67.199 70.4418Z" fill="#F5CF6D"/>
<path d="M74.9517 51.6106C78.7476 51.6106 82.4755 51.6106 86.1964 51.6106C86.5642 53.2814 85.5393 54.7186 83.8575 54.7689C81.6935 54.8336 79.526 54.8336 77.3621 54.7689C75.7445 54.7222 74.7803 53.4179 74.9517 51.6106Z" fill="#F5CF6D"/>
<path d="M59.5967 51.6429C59.7252 53.5796 58.679 54.7725 56.8507 54.7905C54.8867 54.8084 52.9228 54.812 50.9624 54.7905C49.1091 54.7653 48.0807 53.5724 48.2592 51.6465C52.0122 51.6429 55.7723 51.6429 59.5967 51.6429Z" fill="#F5CF6D"/>
<path d="M67.3065 40.2637C65.7603 40.2817 64.5105 39.0672 64.4819 37.5258C64.4534 35.9233 65.6817 34.6586 67.2636 34.6586C68.7991 34.6586 70.0418 35.9018 70.0525 37.4396C70.0632 38.981 68.8277 40.2458 67.3065 40.2637Z" fill="white"/>
<path d="M83.9928 48.8296C81.7217 48.8296 79.572 48.8296 77.251 48.8296C78.3722 46.8211 79.4578 44.8808 80.6183 42.8076C81.7788 44.8808 82.8608 46.8103 83.9928 48.8296Z" fill="white"/>
<path d="M57.2901 48.8367C54.9797 48.8367 52.8301 48.8367 50.5376 48.8367C51.6553 46.8354 52.7372 44.9024 53.9085 42.804C55.0619 44.8628 56.1474 46.7995 57.2901 48.8367Z" fill="white"/>
<path d="M70.9308 64.2293C68.4562 64.2293 66.0387 64.2293 63.6177 64.2293C63.6462 62.4328 65.2531 60.9345 67.1457 60.895C69.1418 60.8519 70.8022 62.2747 70.9308 64.2293Z" fill="white"/>
<path d="M38.1934 58.9332C39.8931 57.302 41.5214 55.7354 42.9426 54.3737C42.9426 55.9833 42.9426 58.0961 42.9426 60.3166C41.1679 60.3633 39.5467 59.9105 38.1934 58.9332Z" fill="#202020"/>
<path d="M48.313 32.4417C48.313 30.1852 48.313 27.9863 48.313 25.7873C49.9556 25.6616 51.4839 26.9515 51.6517 28.5756C51.8481 30.5086 50.4984 32.1147 48.313 32.4417Z" fill="white"/>
<path d="M20.2103 25.7586C20.2103 27.9611 20.2103 30.1637 20.2103 32.3662C18.3749 32.3447 16.8466 30.7637 16.8644 28.9169C16.8787 27.1958 18.3427 25.7981 20.2103 25.7586Z" fill="white"/>
<path d="M25.5845 60.3632C25.5845 58.1248 25.5845 56.0192 25.5845 54.3557C26.9914 55.7174 28.6126 57.2876 30.3087 58.9296C29.0911 59.9644 27.4342 60.2662 25.5845 60.3632Z" fill="black"/>
</svg>
