<svg width="231" height="231" viewBox="0 0 231 231" fill="none" xmlns="http://www.w3.org/2000/svg">
<rect x="13.6582" y="13.443" width="203.139" height="203.139" fill="white"/>
<rect x="0.962167" y="0.746835" width="228.532" height="228.532" stroke="#CCCCCC" stroke-width="1.49367"/>
<g clip-path="url(#clip0_40_1970)">
<path d="M151.476 103.59C155.388 103.658 159.068 104.153 162.637 105.351C176.895 110.148 186.332 124.072 185.368 138.885C184.371 154.137 173.369 166.81 158.427 169.634C148.235 171.558 139.01 169.162 130.908 162.658C130.195 162.085 129.511 161.869 128.625 161.869C109.319 161.888 90.0123 161.878 70.706 161.893C69.2368 161.893 67.7677 161.729 66.9632 160.43C66.39 159.501 65.9902 158.294 65.9854 157.207C65.9276 140.728 65.942 124.25 65.942 107.776C65.942 90.8983 65.942 74.0205 65.942 57.1428C65.942 53.7797 67.4112 52.3075 70.7782 52.3075C92.0932 52.3075 113.403 52.3171 134.718 52.2834C136.409 52.2786 137.705 52.8078 138.88 54.0106C142.531 57.7345 146.231 61.4103 149.945 65.0716C151.014 66.1253 151.5 67.3137 151.496 68.8196C151.467 79.8854 151.481 90.9512 151.481 102.017C151.476 102.484 151.476 102.96 151.476 103.59ZM126.11 157.933C125.677 157.336 125.267 156.894 125.002 156.379C124.535 155.465 123.851 155.229 122.859 155.268C120.817 155.345 118.765 155.306 116.717 155.287C115.084 155.272 114.376 154.57 114.371 152.92C114.362 139.367 114.367 125.818 114.371 112.265C114.371 110.542 115.07 109.85 116.78 109.845C119.709 109.835 122.642 109.84 125.571 109.84C128.201 109.84 128.557 110.162 128.793 112.712C128.798 112.76 128.895 112.794 128.948 112.837C128.986 112.828 129.029 112.833 129.053 112.809C129.328 112.573 129.598 112.332 129.868 112.092C134.603 107.892 140.094 105.216 146.322 104.148C147.435 103.956 147.637 103.571 147.632 102.565C147.599 91.9423 147.613 81.3143 147.613 70.6912C147.613 70.2678 147.613 69.8492 147.613 69.3681C144.294 69.3681 141.163 69.3729 138.037 69.3681C135.513 69.3584 134.386 68.2182 134.376 65.673C134.367 62.9451 134.376 60.2219 134.376 57.494C134.376 57.0706 134.376 56.6472 134.376 56.2623C112.748 56.2623 91.3032 56.2623 69.863 56.2623C69.863 90.1958 69.863 124.019 69.863 157.928C88.5913 157.933 107.262 157.933 126.11 157.933ZM152.035 166.386C168.307 166.396 181.544 153.194 181.544 136.966C181.544 120.737 168.307 107.497 152.064 107.478C135.85 107.459 122.56 120.728 122.555 136.937C122.551 153.17 135.773 166.377 152.035 166.386ZM121.915 151.375C121.77 150.981 121.66 150.649 121.525 150.326C117.059 139.593 117.763 129.196 123.851 119.299C124.988 117.451 124.81 115.71 124.839 113.785C122.594 113.785 120.455 113.785 118.297 113.785C118.297 126.352 118.297 138.837 118.297 151.375C119.516 151.375 120.662 151.375 121.915 151.375ZM138.292 65.4229C140.479 65.4229 142.531 65.4229 144.208 65.4229C142.281 63.5128 140.214 61.4632 138.292 59.558C138.292 61.2852 138.292 63.3107 138.292 65.4229Z" fill="black"/>
<path d="M126.11 157.933C107.261 157.933 88.591 157.933 69.8628 157.933C69.8628 124.023 69.8628 90.2005 69.8628 56.267C91.303 56.267 112.753 56.267 134.376 56.267C134.376 56.6567 134.376 57.0801 134.376 57.4987C134.376 60.2266 134.371 62.9498 134.376 65.6777C134.381 68.2229 135.513 69.3631 138.037 69.3727C141.163 69.3824 144.294 69.3727 147.613 69.3727C147.613 69.8539 147.613 70.2773 147.613 70.6958C147.613 81.319 147.603 91.947 147.632 102.57C147.637 103.571 147.435 103.961 146.322 104.153C140.089 105.221 134.602 107.896 129.867 112.096C129.598 112.337 129.328 112.578 129.053 112.813C129.029 112.837 128.981 112.833 128.947 112.842C128.894 112.799 128.798 112.765 128.793 112.717C128.557 110.162 128.201 109.845 125.571 109.845C122.642 109.845 119.708 109.835 116.78 109.85C115.07 109.854 114.371 110.547 114.371 112.27C114.366 125.823 114.366 139.371 114.371 152.924C114.371 154.57 115.084 155.277 116.717 155.292C118.764 155.306 120.811 155.349 122.859 155.272C123.851 155.234 124.535 155.474 125.002 156.384C125.267 156.894 125.677 157.336 126.11 157.933ZM75.4986 78.6873C75.4167 87.6843 82.6518 95.0935 91.6112 95.1801C100.754 95.2667 108.162 88.0595 108.278 78.9663C108.393 70.0656 101.048 62.5504 92.1315 62.4542C82.9938 62.3532 75.5805 69.5844 75.4986 78.6873ZM109.28 138.096C109.28 133.165 109.285 128.238 109.275 123.307C109.27 121.507 108.615 120.858 106.799 120.848C103.668 120.838 100.537 120.838 97.4108 120.848C95.5756 120.853 94.9157 121.483 94.9108 123.287C94.9012 133.145 94.9012 143.008 94.9108 152.867C94.9108 154.589 95.6238 155.277 97.3289 155.282C100.417 155.292 103.509 155.287 106.597 155.287C108.634 155.282 109.27 154.661 109.27 152.645C109.285 147.796 109.28 142.946 109.28 138.096ZM119.781 98.5432C118.032 99.9529 116.573 101.175 115.065 102.334C104.27 110.639 92.3579 116.869 79.5304 121.387C78.0612 121.906 77.5024 122.849 77.9119 123.99C78.3358 125.164 79.3377 125.534 80.7924 125.024C95.643 119.814 109.241 112.38 121.327 102.257C121.587 102.041 121.876 101.853 122.29 101.55C122.29 101.916 122.295 102.099 122.29 102.286C122.247 103.778 122.82 104.625 123.967 104.754C125.108 104.884 125.946 104.038 126.153 102.561C126.428 100.617 126.727 98.6779 126.987 96.7342C127.151 95.5073 126.524 94.444 125.441 94.4488C122.998 94.4633 120.551 94.5691 118.119 94.7904C117.098 94.8818 116.544 95.719 116.577 96.7775C116.611 97.7734 117.42 98.4806 118.504 98.5432C118.803 98.5576 119.111 98.5432 119.781 98.5432ZM89.8049 143.268C89.8049 140.103 89.8097 136.937 89.8001 133.771C89.7953 132.029 89.1594 131.361 87.4109 131.346C84.2413 131.322 81.0718 131.322 77.9023 131.346C76.1393 131.361 75.4986 132.005 75.4986 133.752C75.489 140.127 75.4842 146.497 75.4986 152.871C75.5034 154.623 76.1682 155.282 77.8878 155.292C81.0573 155.301 84.2269 155.301 87.3964 155.292C89.1257 155.287 89.8001 154.613 89.8049 152.891C89.8097 149.682 89.8049 146.473 89.8049 143.268ZM127.599 91.8219C130.566 91.8219 133.533 91.8219 136.5 91.8219C138.225 91.8219 139.949 91.846 141.674 91.8027C142.782 91.7738 143.514 91.0329 143.572 90.0225C143.629 88.9448 142.926 88.1221 141.799 87.9826C141.442 87.9393 141.076 87.9633 140.715 87.9633C132.372 87.9633 124.034 87.9633 115.691 87.9633C114.93 87.9633 114.159 87.9104 113.408 87.9874C111.895 88.1461 111.028 89.7819 111.958 90.8837C112.396 91.4033 113.302 91.769 114.005 91.7786C118.538 91.8604 123.071 91.8219 127.599 91.8219ZM127.656 73.2313C123.003 73.2313 118.355 73.2217 113.702 73.2362C112.435 73.241 111.655 73.9723 111.626 75.0837C111.602 76.1999 112.358 76.9697 113.586 77.0803C113.745 77.0948 113.909 77.0899 114.068 77.0899C123.09 77.0899 132.112 77.0948 141.134 77.0851C142.724 77.0851 143.605 76.3346 143.572 75.074C143.538 73.8809 142.695 73.2313 141.125 73.2313C136.64 73.2265 132.151 73.2313 127.656 73.2313ZM127.719 80.5781C123.307 80.5781 118.899 80.5781 114.487 80.5781C112.517 80.5781 111.626 81.1891 111.626 82.517C111.626 83.8449 112.507 84.4367 114.492 84.4415C123.234 84.4415 131.972 84.4415 140.715 84.4367C141.192 84.4367 141.688 84.4463 142.151 84.3453C143.032 84.148 143.519 83.537 143.567 82.6373C143.615 81.6895 143.186 80.9918 142.261 80.7272C141.77 80.5877 141.23 80.5877 140.715 80.5877C136.38 80.5733 132.049 80.5781 127.719 80.5781ZM120.966 69.6662C123.413 69.6662 125.86 69.6759 128.302 69.6614C129.626 69.6518 130.465 68.9012 130.479 67.7706C130.494 66.6496 129.646 65.8221 128.345 65.8173C123.495 65.7932 118.639 65.798 113.788 65.8173C112.444 65.8221 111.645 66.5774 111.635 67.7273C111.621 68.9253 112.444 69.6518 113.87 69.6614C116.231 69.6759 118.596 69.6662 120.966 69.6662Z" fill="white"/>
<path d="M152.035 166.386C135.769 166.377 122.551 153.17 122.556 136.937C122.56 120.728 135.855 107.458 152.064 107.478C168.302 107.497 181.544 120.742 181.544 136.966C181.544 153.194 168.307 166.391 152.035 166.386ZM164.685 126.901C164.54 127.17 164.376 127.521 164.179 127.853C162.979 129.888 161.713 131.89 160.6 133.968C160.253 134.613 160.084 135.522 160.234 136.229C161.048 140.011 164.526 142.749 168.394 142.802C172.406 142.855 175.937 140.3 176.867 136.484C177.064 135.686 176.92 134.613 176.52 133.896C174.607 130.47 172.56 127.122 170.552 123.749C169.704 122.325 169.155 122.065 167.584 122.484C165.735 122.975 164.001 122.801 162.17 122.214C160.605 121.709 158.88 121.719 157.233 121.449C156.819 121.382 156.313 121.228 156.062 120.935C153.803 118.245 150.292 118.231 148.061 120.906C147.811 121.204 147.315 121.392 146.91 121.459C145.224 121.738 143.466 121.743 141.857 122.243C140.06 122.806 138.36 122.97 136.554 122.498C134.945 122.075 134.41 122.315 133.572 123.72C131.563 127.093 129.588 130.485 127.546 133.833C126.992 134.738 126.934 135.609 127.214 136.581C128.23 140.107 131.472 142.686 135.07 142.802C139.001 142.932 142.377 140.67 143.663 137.086C144.107 135.845 144.097 134.738 143.341 133.559C141.939 131.38 140.682 129.114 139.391 126.934C140.932 126.468 142.363 125.986 143.818 125.616C144.622 125.409 145.484 125.27 146.303 125.337C146.78 125.375 147.271 125.828 147.666 126.193C148.244 126.732 148.659 127.487 149.299 127.916C149.969 128.358 150.152 128.83 150.147 129.58C150.118 134.31 150.137 139.039 150.133 143.769C150.133 144.154 150.089 144.543 150.065 144.952C149.636 145.053 149.29 145.13 148.943 145.226C145.282 146.213 142.454 148.296 140.585 151.616C139.468 153.603 140.292 155.022 142.575 155.027C148.914 155.037 155.253 155.041 161.592 155.027C163.793 155.022 164.636 153.593 163.567 151.678C161.688 148.315 158.851 146.16 155.123 145.246C154.246 145.029 153.977 144.707 153.986 143.822C154.03 139.212 154.025 134.603 153.986 129.994C153.977 129.008 154.102 128.252 155.084 127.738C155.581 127.478 156.057 126.934 156.255 126.415C156.66 125.346 157.445 125.197 158.365 125.298C159.155 125.39 159.945 125.549 160.715 125.755C162.016 126.083 163.302 126.492 164.685 126.901Z" fill="#F5CF6D"/>
<path d="M121.914 151.375C120.662 151.375 119.516 151.375 118.302 151.375C118.302 138.837 118.302 126.352 118.302 113.785C120.46 113.785 122.598 113.785 124.843 113.785C124.809 115.714 124.992 117.451 123.856 119.299C117.762 129.195 117.064 139.593 121.529 150.326C121.659 150.654 121.77 150.985 121.914 151.375Z" fill="#8FC386"/>
<path d="M138.292 65.4227C138.292 63.3106 138.292 61.2803 138.292 59.5578C140.214 61.4631 142.28 63.5127 144.207 65.4227C142.531 65.4227 140.479 65.4227 138.292 65.4227Z" fill="white"/>
<path d="M75.4988 78.6873C75.5855 69.5893 82.994 62.3532 92.1269 62.4542C101.043 62.5505 108.389 70.0656 108.273 78.9663C108.158 88.0595 100.749 95.2668 91.6066 95.1802C82.652 95.0936 75.4121 87.6843 75.4988 78.6873ZM91.8234 91.3216C98.755 91.3408 104.42 85.7069 104.4 78.8124C104.386 71.9756 98.7502 66.3369 91.9053 66.3128C84.9882 66.2888 79.3475 71.9227 79.362 78.8461C79.3813 85.7453 84.9304 91.3023 91.8234 91.3216Z" fill="black"/>
<path d="M109.28 138.096C109.28 142.946 109.284 147.796 109.28 152.645C109.28 154.661 108.644 155.287 106.606 155.287C103.519 155.292 100.426 155.296 97.3384 155.282C95.6284 155.277 94.9203 154.589 94.9203 152.867C94.9107 143.008 94.9107 133.145 94.9203 123.287C94.9203 121.483 95.585 120.853 97.4203 120.848C100.551 120.838 103.682 120.838 106.809 120.848C108.624 120.853 109.28 121.507 109.284 123.307C109.289 128.238 109.28 133.165 109.28 138.096ZM105.339 151.399C105.339 142.455 105.339 133.631 105.339 124.808C103.124 124.808 100.99 124.808 98.8846 124.808C98.8846 133.732 98.8846 142.551 98.8846 151.399C101.072 151.399 103.152 151.399 105.339 151.399Z" fill="black"/>
<path d="M119.781 98.5432C119.111 98.5432 118.803 98.5576 118.5 98.5384C117.416 98.4758 116.602 97.7638 116.573 96.7726C116.539 95.7142 117.093 94.8818 118.114 94.7856C120.547 94.5643 122.994 94.4536 125.436 94.444C126.515 94.4392 127.146 95.5025 126.982 96.7293C126.722 98.6731 126.423 100.612 126.149 102.556C125.942 104.033 125.104 104.88 123.962 104.75C122.816 104.62 122.242 103.773 122.286 102.281C122.29 102.094 122.286 101.906 122.286 101.545C121.871 101.848 121.582 102.031 121.322 102.253C109.237 112.375 95.6336 119.804 80.7878 125.019C79.3331 125.529 78.3312 125.159 77.9073 123.985C77.4978 122.845 78.0566 121.902 79.5258 121.382C92.3532 116.859 104.27 110.634 115.06 102.33C116.573 101.175 118.032 99.9529 119.781 98.5432Z" fill="black"/>
<path d="M89.8052 143.268C89.8052 146.473 89.81 149.682 89.8003 152.886C89.7955 154.608 89.1211 155.282 87.3919 155.287C84.2223 155.296 81.0528 155.296 77.8832 155.287C76.1636 155.282 75.4989 154.618 75.494 152.867C75.4844 146.492 75.4844 140.122 75.494 133.747C75.4989 131.996 76.1395 131.351 77.8977 131.341C81.0672 131.317 84.2368 131.317 87.4063 131.341C89.1549 131.356 89.7907 132.02 89.7955 133.766C89.81 136.932 89.8052 140.102 89.8052 143.268ZM79.4632 135.301C79.4632 140.694 79.4632 146.03 79.4632 151.341C81.6742 151.341 83.7792 151.341 85.8697 151.341C85.8697 145.938 85.8697 140.627 85.8697 135.2C83.9622 135.2 82.1221 135.195 80.2821 135.205C80.0123 135.205 79.7426 135.267 79.4632 135.301Z" fill="black"/>
<path d="M127.599 91.8219C123.066 91.8219 118.534 91.8604 114.006 91.7834C113.302 91.769 112.397 91.4081 111.958 90.8885C111.029 89.7868 111.896 88.1509 113.408 87.9922C114.16 87.9104 114.93 87.9681 115.692 87.9681C124.034 87.9681 132.373 87.9681 140.716 87.9681C141.077 87.9681 141.443 87.9441 141.799 87.9874C142.926 88.1221 143.635 88.9496 143.572 90.0273C143.514 91.0377 142.782 91.7786 141.674 91.8075C139.95 91.8508 138.225 91.8267 136.501 91.8267C133.533 91.8219 130.566 91.8219 127.599 91.8219Z" fill="black"/>
<path d="M127.657 73.2314C132.146 73.2314 136.64 73.2265 141.13 73.2314C142.695 73.2314 143.543 73.8809 143.577 75.0741C143.61 76.3298 142.729 77.0803 141.139 77.0851C132.117 77.09 123.095 77.09 114.073 77.09C113.914 77.09 113.75 77.0948 113.591 77.0803C112.358 76.9697 111.602 76.1999 111.631 75.0837C111.655 73.9771 112.435 73.241 113.707 73.2362C118.355 73.2217 123.008 73.2314 127.657 73.2314Z" fill="black"/>
<path d="M127.719 80.5781C132.049 80.5781 136.38 80.5733 140.71 80.5829C141.225 80.5829 141.77 80.5829 142.256 80.7224C143.181 80.987 143.61 81.6846 143.562 82.6325C143.514 83.5322 143.027 84.1432 142.146 84.3404C141.683 84.4463 141.192 84.4319 140.71 84.4319C131.967 84.4367 123.229 84.4367 114.487 84.4367C112.502 84.4367 111.621 83.8401 111.621 82.5122C111.621 81.1843 112.512 80.5733 114.482 80.5733C118.899 80.5781 123.311 80.5781 127.719 80.5781Z" fill="black"/>
<path d="M120.965 69.6662C118.6 69.6662 116.235 69.6758 113.865 69.6614C112.444 69.6518 111.62 68.9253 111.63 67.7273C111.644 66.5726 112.439 65.8221 113.783 65.8172C118.634 65.798 123.489 65.798 128.34 65.8172C129.645 65.8221 130.488 66.6496 130.474 67.7706C130.459 68.9012 129.621 69.6518 128.297 69.6614C125.854 69.6807 123.407 69.6662 120.965 69.6662Z" fill="black"/>
<path d="M164.684 126.901C163.302 126.492 162.011 126.083 160.71 125.736C159.939 125.529 159.149 125.371 158.359 125.279C157.439 125.173 156.654 125.322 156.25 126.395C156.052 126.92 155.575 127.459 155.079 127.718C154.092 128.238 153.971 128.989 153.981 129.975C154.019 134.584 154.024 139.193 153.981 143.802C153.971 144.688 154.241 145.015 155.118 145.226C158.851 146.136 161.688 148.296 163.562 151.659C164.631 153.579 163.793 155.003 161.587 155.008C155.248 155.022 148.909 155.022 142.57 155.008C140.291 155.003 139.463 153.584 140.58 151.597C142.449 148.277 145.277 146.198 148.938 145.207C149.284 145.116 149.631 145.039 150.06 144.933C150.084 144.519 150.127 144.134 150.127 143.749C150.132 139.02 150.113 134.291 150.142 129.561C150.147 128.811 149.959 128.344 149.294 127.896C148.653 127.468 148.244 126.713 147.661 126.174C147.266 125.808 146.775 125.356 146.298 125.318C145.479 125.25 144.617 125.39 143.812 125.597C142.358 125.967 140.927 126.448 139.386 126.915C140.676 129.094 141.934 131.361 143.335 133.54C144.092 134.719 144.101 135.825 143.658 137.067C142.372 140.651 138.995 142.912 135.065 142.782C131.466 142.662 128.225 140.088 127.208 136.561C126.929 135.59 126.992 134.719 127.541 133.814C129.583 130.461 131.558 127.069 133.567 123.701C134.405 122.296 134.939 122.056 136.548 122.479C138.355 122.955 140.055 122.787 141.852 122.224C143.461 121.724 145.224 121.719 146.905 121.44C147.314 121.372 147.806 121.19 148.056 120.886C150.286 118.211 153.798 118.226 156.057 120.915C156.307 121.209 156.813 121.363 157.227 121.43C158.875 121.7 160.599 121.69 162.165 122.195C164 122.787 165.734 122.96 167.579 122.465C169.149 122.046 169.698 122.306 170.546 123.73C172.555 127.103 174.602 130.451 176.514 133.877C176.914 134.594 177.054 135.667 176.861 136.465C175.927 140.281 172.401 142.835 168.388 142.782C164.515 142.729 161.038 139.992 160.228 136.21C160.079 135.508 160.248 134.594 160.594 133.949C161.707 131.866 162.974 129.869 164.173 127.834C164.376 127.521 164.544 127.17 164.684 126.901ZM158.133 151.106C154.54 147.435 147.724 148.532 146.206 151.106C150.113 151.106 154.024 151.106 158.133 151.106ZM165.421 133.323C167.632 133.323 169.607 133.323 171.75 133.323C170.676 131.514 169.674 129.835 168.586 127.997C167.478 129.869 166.486 131.534 165.421 133.323ZM132.367 133.309C134.54 133.309 136.539 133.309 138.682 133.309C137.603 131.495 136.597 129.816 135.518 127.997C134.405 129.869 133.427 131.519 132.367 133.309ZM139.048 137.341C136.635 137.341 134.39 137.341 132.078 137.341C133.933 139.463 136.813 139.487 139.048 137.341ZM172.117 137.336C169.694 137.336 167.454 137.336 165.146 137.336C167.006 139.453 169.935 139.482 172.117 137.336ZM152.054 122.344C151.553 123.032 150.975 123.494 151.042 123.807C151.139 124.24 151.727 124.567 152.107 124.938C152.444 124.567 153.017 124.221 153.056 123.821C153.09 123.456 152.55 123.037 152.054 122.344Z" fill="black"/>
<path d="M91.8233 91.3215C84.9303 91.3023 79.3812 85.7453 79.3667 78.846C79.3523 71.9227 84.9881 66.2936 91.91 66.3128C98.7501 66.3321 104.391 71.9708 104.405 78.8124C104.42 85.7068 98.7597 91.336 91.8233 91.3215ZM98.0227 74.1695C97.6229 72.5722 96.5343 71.302 94.9062 70.5082C94.2703 70.2003 93.8031 69.9308 93.6538 69.1274C93.4803 68.194 92.6663 67.6022 91.7896 67.8187C91.1297 67.9823 90.3108 68.6029 90.1037 69.2044C89.858 69.9164 89.4967 70.1955 88.9091 70.4841C86.8908 71.4704 85.7588 73.0966 85.7925 75.3531C85.8262 77.5903 87.0546 79.1155 89.0873 79.943C89.9688 80.3038 90.937 80.453 91.8522 80.7368C92.5748 80.9582 93.3407 81.1362 93.9717 81.5259C94.8676 82.084 94.7713 83.0174 93.8657 83.5322C92.0642 84.5666 89.9158 83.9026 89.0391 82.0503C88.5382 80.987 87.5892 80.5492 86.5873 80.9149C85.5758 81.2853 85.1181 82.2091 85.4312 83.3493C85.9611 85.2594 87.2376 86.4863 89.015 87.3138C89.4293 87.5062 89.8147 87.9874 89.9929 88.4252C90.3493 89.3056 90.8936 89.8493 91.8522 89.8589C92.806 89.8685 93.3647 89.3345 93.7405 88.4637C93.9283 88.0307 94.3378 87.5736 94.7616 87.386C96.3753 86.6835 97.7 85.7309 98.2347 83.97C98.9813 81.5066 97.8349 78.9519 95.2963 77.8405C93.9572 77.2535 92.4592 77.0226 91.0478 76.5848C90.3542 76.3683 89.6075 76.0844 89.6846 75.1558C89.7617 74.2465 90.4601 73.8857 91.2549 73.7461C92.6759 73.5008 93.7405 73.9578 94.4341 75.305C94.8773 76.1662 95.6672 76.5703 96.6595 76.2624C97.5651 75.9882 98.0227 75.3387 98.0227 74.1695Z" fill="#F5CF6D"/>
<path d="M105.339 151.399C103.153 151.399 101.072 151.399 98.8848 151.399C98.8848 142.551 98.8848 133.732 98.8848 124.808C100.995 124.808 103.128 124.808 105.339 124.808C105.339 133.631 105.339 142.455 105.339 151.399Z" fill="#8FC386"/>
<path d="M79.4629 135.301C79.7423 135.267 80.012 135.205 80.2818 135.205C82.1218 135.195 83.9571 135.2 85.8694 135.2C85.8694 140.627 85.8694 145.939 85.8694 151.342C83.7789 151.342 81.6787 151.342 79.4629 151.342C79.4629 146.03 79.4629 140.694 79.4629 135.301Z" fill="#8FC386"/>
<path d="M158.133 151.106C154.029 151.106 150.113 151.106 146.206 151.106C147.723 148.527 154.539 147.435 158.133 151.106Z" fill="white"/>
<path d="M165.421 133.323C166.486 131.534 167.473 129.864 168.586 127.997C169.68 129.835 170.677 131.514 171.751 133.323C169.612 133.323 167.632 133.323 165.421 133.323Z" fill="white"/>
<path d="M132.367 133.309C133.427 131.519 134.405 129.869 135.513 127.997C136.596 129.811 137.598 131.495 138.677 133.309C136.539 133.309 134.535 133.309 132.367 133.309Z" fill="white"/>
<path d="M139.048 137.341C136.813 139.491 133.933 139.467 132.078 137.341C134.39 137.341 136.635 137.341 139.048 137.341Z" fill="white"/>
<path d="M172.117 137.336C169.935 139.487 167.006 139.453 165.147 137.336C167.454 137.336 169.694 137.336 172.117 137.336Z" fill="white"/>
<path d="M152.054 122.344C152.55 123.032 153.09 123.456 153.056 123.821C153.017 124.221 152.449 124.567 152.107 124.938C151.731 124.567 151.144 124.24 151.043 123.807C150.975 123.494 151.553 123.032 152.054 122.344Z" fill="white"/>
<path d="M98.0231 74.1695C98.0231 75.3387 97.5655 75.9882 96.6551 76.2672C95.6628 76.5703 94.8728 76.171 94.4297 75.3098C93.736 73.9627 92.6667 73.5056 91.2505 73.751C90.4557 73.8905 89.7573 74.2465 89.6802 75.1607C89.6031 76.0844 90.3497 76.3731 91.0434 76.5896C92.4547 77.0274 93.948 77.2583 95.2919 77.8453C97.8304 78.9615 98.9769 81.5115 98.2302 83.9748C97.6956 85.7357 96.3757 86.6932 94.7572 87.3908C94.3333 87.5736 93.9191 88.0355 93.736 88.4685C93.3603 89.3441 92.8064 89.8734 91.8478 89.8637C90.894 89.8541 90.3449 89.3105 89.9885 88.43C89.8102 87.9922 89.4249 87.5111 89.0106 87.3186C87.238 86.4959 85.9615 85.2642 85.4268 83.3542C85.1089 82.2139 85.5713 81.2901 86.5829 80.9197C87.5848 80.554 88.5337 80.9919 89.0347 82.0551C89.9114 83.9123 92.0597 84.5714 93.8613 83.537C94.762 83.0174 94.8632 82.0888 93.9672 81.5307C93.341 81.141 92.5703 80.963 91.8478 80.7417C90.9326 80.4578 89.9644 80.3087 89.0829 79.9478C87.0453 79.1203 85.8218 77.5951 85.7881 75.3579C85.7544 73.0966 86.8912 71.4704 88.9047 70.489C89.4923 70.2003 89.8536 69.9212 90.0993 69.2092C90.3064 68.6078 91.1253 67.9871 91.7852 67.8235C92.6619 67.607 93.4759 68.1988 93.6493 69.1322C93.7987 69.9357 94.2659 70.2003 94.9017 70.513C96.5347 71.3021 97.6233 72.5722 98.0231 74.1695Z" fill="black"/>
</g>
<defs>
<clipPath id="clip0_40_1970">
<rect width="119.494" height="118" fill="white" transform="translate(65.9365 52.2785)"/>
</clipPath>
</defs>
</svg>
