<svg width="231" height="230" viewBox="0 0 231 230" fill="none" xmlns="http://www.w3.org/2000/svg">
<rect x="14.3721" y="13.3884" width="202.314" height="202.314" fill="white"/>
<rect x="1.7272" y="0.743802" width="227.603" height="227.603" stroke="#CCCCCC" stroke-width="1.4876"/>
<path d="M93.8647 122.706C92.6254 123.999 91.4346 125.263 90.2195 126.497C88.7419 127.999 88.3531 127.994 86.8269 126.585C86.7103 126.478 86.579 126.39 86.1416 126.04C85.8743 126.444 85.6653 126.91 85.3299 127.246C76.3236 136.281 67.3076 145.307 58.2818 154.328C56.0071 156.603 53.2075 157.172 50.6413 155.918C46.9279 154.1 45.9315 149.307 48.6242 146.129C49.0957 145.574 49.6352 145.079 50.1504 144.563C58.9428 135.771 67.7353 126.978 76.5277 118.191C76.8145 117.904 77.1499 117.67 77.3734 117.486C77.3248 117.223 77.3345 117.131 77.2908 117.087C75.5362 115.148 75.5313 115.031 77.4026 113.179C78.5496 112.042 79.7259 110.924 80.8146 109.86C79.1669 108.202 77.6116 106.627 76.1437 105.15C75.0793 105.373 73.9857 105.821 72.9164 105.777C71.1181 105.699 69.8155 104.659 69.2031 102.924C68.615 101.252 68.9358 99.711 70.1703 98.4327C71.6868 96.8579 73.2518 95.3268 74.7974 93.7812C79.2058 89.3679 83.6093 84.9546 88.0177 80.5412C89.3397 79.2143 90.9048 78.7769 92.6837 79.3747C94.4286 79.9628 95.4735 81.2606 95.5708 83.059C95.6291 84.1283 95.1916 85.2267 94.9146 86.6168C96.7664 88.4444 98.8758 90.5101 100.966 92.5952C106.181 97.8008 111.391 103.021 116.602 108.236C117.005 108.64 117.292 108.975 118.016 108.606C120.121 107.522 122.332 108.076 123.635 109.869C124.932 111.658 124.694 113.991 122.983 115.712C118.327 120.387 113.651 125.054 108.985 129.72C107.785 130.92 106.594 132.14 105.374 133.321C103.751 134.886 101.447 135.09 99.7118 133.856C97.9037 132.573 97.3934 130.361 98.3509 128.232C98.487 127.931 98.555 127.387 98.3849 127.202C97.233 125.953 96.013 124.767 94.8077 123.566C94.5598 123.313 94.2827 123.085 93.8647 122.706ZM92.6934 88.7068C87.9594 93.4555 83.1962 98.2237 78.5496 102.885C85.9277 110.263 93.4273 117.758 100.82 125.151C105.515 120.456 110.278 115.692 114.988 110.978C107.566 103.565 100.067 96.0753 92.6934 88.7068ZM79.4828 119.406C79.3322 119.542 79.1718 119.663 79.0308 119.804C69.7912 129.044 60.5467 138.289 51.312 147.528C51.1127 147.728 50.9086 147.932 50.7482 148.16C49.9122 149.312 49.7664 150.542 50.4566 151.806C51.1127 153.011 52.1917 153.784 53.5283 153.521C54.5247 153.322 55.6037 152.787 56.3231 152.078C64.4351 144.053 72.4839 135.97 80.557 127.902C81.811 126.653 83.0795 125.418 84.3092 124.203C82.647 122.555 81.1014 121.019 79.4828 119.406ZM73.3442 103.05C73.8837 102.686 74.36 102.457 74.7099 102.102C80.4744 96.3621 86.2242 90.6073 91.9692 84.8476C92.1685 84.6483 92.4893 84.4053 92.4747 84.1963C92.4455 83.6033 92.4552 82.8451 92.1053 82.4854C91.8137 82.1841 91.0263 82.2862 90.4771 82.3493C90.2146 82.3834 89.9813 82.7382 89.7529 82.9618C84.0905 88.6339 78.4233 94.2964 72.7609 99.9686C72.5325 100.197 72.2214 100.425 72.1485 100.703C72.0367 101.14 71.9444 101.699 72.1291 102.054C72.3381 102.452 72.8727 102.681 73.3442 103.05ZM102.541 131.703C102.774 131.537 103.27 131.275 103.649 130.896C109.326 125.243 114.988 119.576 120.65 113.913C120.85 113.714 121.185 113.5 121.195 113.286C121.214 112.664 121.311 111.857 120.976 111.464C120.704 111.143 119.848 111.24 119.26 111.293C119.003 111.318 118.769 111.682 118.541 111.911C112.932 117.515 107.323 123.124 101.719 128.733C101.462 128.991 101.185 129.243 101.005 129.549C100.426 130.536 101.102 131.703 102.541 131.703ZM91.7165 120.752C88.7711 117.811 85.8305 114.871 83.0115 112.061C81.9568 113.043 80.8097 114.103 79.5898 115.24C81.0868 116.723 82.5546 118.166 84.0127 119.619C85.4952 121.097 86.963 122.584 88.3968 124.023C89.5973 122.837 90.6861 121.763 91.7165 120.752Z" fill="black"/>
<path d="M153.123 99.5895C152.855 100.858 152.666 102.059 152.345 103.22C150.104 111.328 142.731 116.985 134.318 117.082C133.671 117.092 132.981 117.223 132.383 117.043C131.795 116.873 131.047 116.485 130.847 115.998C130.682 115.59 131.047 114.71 131.45 114.365C133.637 112.504 135.907 110.735 138.162 108.951C139.431 107.95 140.252 106.7 140.393 105.072C140.641 102.146 138.352 99.643 135.319 99.5992C131.839 99.5506 128.354 99.5895 124.869 99.5846C120.174 99.5749 117.093 96.5177 117.088 91.8468C117.083 79.1706 117.078 66.4945 117.088 53.8184C117.093 49.2106 120.179 46.1194 124.782 46.1194C137.467 46.1145 150.143 46.1145 162.819 46.1194C167.5 46.1194 170.562 49.1961 170.567 53.8913C170.571 66.5285 170.571 79.1609 170.567 91.7982C170.562 96.542 167.49 99.5798 162.707 99.5846C159.509 99.5944 156.316 99.5895 153.123 99.5895ZM136.694 113.884C144.189 112.718 149.813 106.258 150.124 98.7729C150.197 97.0329 150.571 96.6684 152.325 96.6684C155.849 96.6635 159.373 96.6781 162.897 96.6635C165.803 96.6538 167.636 94.8651 167.636 91.9926C167.645 79.2338 167.645 66.4751 167.636 53.7212C167.636 50.8438 165.808 49.0454 162.907 49.0454C150.192 49.0405 137.472 49.0405 124.757 49.0454C121.851 49.0454 120.028 50.8389 120.023 53.7163C120.014 66.4751 120.014 79.2338 120.023 91.9877C120.023 94.8651 121.851 96.6538 124.752 96.6635C128.155 96.6732 131.557 96.6586 134.959 96.6684C138.707 96.6781 141.686 98.6903 142.867 101.986C144.068 105.339 143.018 108.795 140.053 111.196C139.018 112.037 137.973 112.863 136.694 113.884Z" fill="black"/>
<path d="M139.456 160.754C139.796 160.87 140.063 160.963 140.326 161.055C142.401 161.794 143.65 163.826 143.295 165.901C142.931 168.025 141.171 169.556 138.945 169.571C134.129 169.6 129.312 169.58 124.5 169.58C118.551 169.58 112.602 169.58 106.653 169.58C103.805 169.58 101.958 168.253 101.583 165.896C101.224 163.641 102.653 161.376 105.127 160.861C105.204 160.846 105.268 160.788 105.418 160.705C105.418 159.334 105.404 157.925 105.423 156.511C105.477 152.365 108.597 149.186 112.723 149.162C119.197 149.127 125.671 149.127 132.146 149.162C136.267 149.186 139.388 152.36 139.446 156.511C139.475 157.93 139.456 159.344 139.456 160.754ZM108.373 160.739C117.837 160.739 127.154 160.739 136.52 160.739C136.52 159.16 136.583 157.662 136.505 156.175C136.389 153.92 134.581 152.122 132.311 152.107C125.72 152.063 119.129 152.063 112.539 152.107C110.371 152.122 108.558 153.828 108.398 155.966C108.281 157.526 108.373 159.101 108.373 160.739ZM122.444 166.659C127.582 166.659 132.724 166.659 137.861 166.659C138.143 166.659 138.43 166.659 138.712 166.659C139.708 166.654 140.398 166.222 140.389 165.172C140.374 164.2 139.718 163.762 138.77 163.753C138.566 163.753 138.367 163.753 138.163 163.753C127.679 163.753 117.2 163.753 106.716 163.753C106.434 163.753 106.147 163.733 105.865 163.767C105.029 163.86 104.504 164.331 104.485 165.177C104.466 166.027 104.976 166.513 105.807 166.64C106.123 166.688 106.453 166.659 106.779 166.659C112.004 166.659 117.224 166.659 122.444 166.659Z" fill="black"/>
<path d="M144.758 135.654C144.462 136.184 144.316 136.617 144.029 136.913C142.746 138.25 141.429 139.552 140.107 140.85C139.431 141.511 138.653 141.599 137.973 140.899C137.288 140.194 137.419 139.431 138.08 138.765C139.382 137.448 140.656 136.097 142.036 134.862C142.41 134.532 143.164 134.371 143.65 134.493C144.073 134.604 144.369 135.222 144.758 135.654Z" fill="black"/>
<path d="M130.707 134.031C130.707 133.103 130.687 132.179 130.711 131.251C130.736 130.356 131.207 129.773 132.106 129.744C133.069 129.715 133.603 130.303 133.613 131.256C133.642 133.146 133.642 135.042 133.613 136.933C133.599 137.885 133.064 138.473 132.102 138.439C131.202 138.41 130.731 137.822 130.711 136.928C130.687 135.965 130.707 134.998 130.707 134.031Z" fill="black"/>
<path d="M144.777 148.194C143.849 148.194 142.925 148.214 141.997 148.189C141.049 148.165 140.437 147.679 140.451 146.712C140.466 145.745 141.098 145.283 142.041 145.278C143.893 145.268 145.744 145.263 147.596 145.283C148.544 145.293 149.156 145.793 149.142 146.756C149.127 147.723 148.491 148.18 147.552 148.189C146.629 148.204 145.706 148.194 144.777 148.194Z" fill="black"/>
<path d="M92.6931 88.7069C100.071 96.0754 107.571 103.565 114.988 110.978C110.278 115.692 105.515 120.456 100.82 125.151C93.4221 117.758 85.9274 110.263 78.5493 102.885C83.1959 98.2237 87.9542 93.4507 92.6931 88.7069Z" fill="#7D3939"/>
<path d="M79.4833 119.406C81.1019 121.014 82.6426 122.555 84.3049 124.203C83.0752 125.413 81.8066 126.653 80.5526 127.902C72.4844 135.97 64.4307 144.053 56.3187 152.078C55.5994 152.787 54.5204 153.327 53.524 153.521C52.1874 153.789 51.1084 153.016 50.4522 151.806C49.7669 150.542 49.9127 149.312 50.7438 148.16C50.9091 147.932 51.1084 147.728 51.3076 147.528C60.5472 138.284 69.7869 129.044 79.0265 119.804C79.1723 119.668 79.3327 119.542 79.4833 119.406Z" fill="#DEB854"/>
<path d="M73.3439 103.05C72.8724 102.686 72.3378 102.452 72.1288 102.054C71.9392 101.699 72.0364 101.135 72.1482 100.703C72.2211 100.426 72.5322 100.197 72.7606 99.9687C78.423 94.2965 84.0902 88.6341 89.7574 82.9667C89.9859 82.7383 90.2192 82.3835 90.4816 82.3543C91.0309 82.2863 91.8182 82.1891 92.1099 82.4904C92.4598 82.8501 92.4501 83.6083 92.4793 84.2013C92.489 84.4103 92.1682 84.6533 91.9738 84.8526C86.2239 90.6074 80.4741 96.3671 74.7145 102.107C74.3597 102.457 73.8834 102.681 73.3439 103.05Z" fill="#A76456"/>
<path d="M102.541 131.703C101.102 131.703 100.426 130.536 101.01 129.554C101.189 129.248 101.466 128.991 101.724 128.738C107.328 123.129 112.937 117.52 118.546 111.916C118.774 111.687 119.008 111.323 119.265 111.298C119.848 111.245 120.704 111.148 120.981 111.469C121.316 111.862 121.219 112.669 121.2 113.291C121.19 113.505 120.855 113.719 120.655 113.918C114.993 119.586 109.331 125.248 103.654 130.901C103.27 131.275 102.774 131.533 102.541 131.703Z" fill="#A76456"/>
<path d="M91.716 120.752C90.6905 121.763 89.6017 122.837 88.3915 124.023C86.9577 122.584 85.4899 121.097 84.0074 119.619C82.5493 118.166 81.0815 116.723 79.5845 115.24C80.8093 114.103 81.9515 113.043 83.0062 112.061C85.8252 114.876 88.7658 117.811 91.716 120.752Z" fill="#F8D06A"/>
<path d="M136.695 113.884C137.973 112.863 139.018 112.037 140.048 111.196C143.013 108.79 144.063 105.339 142.862 101.986C141.681 98.6854 138.702 96.678 134.955 96.6683C131.552 96.6586 128.15 96.6732 124.748 96.6634C121.846 96.6537 120.019 94.8651 120.019 91.9877C120.009 79.2289 120.009 66.4701 120.019 53.7163C120.019 50.8388 121.841 49.0453 124.753 49.0453C137.467 49.0405 150.187 49.0405 162.902 49.0453C165.803 49.0453 167.631 50.8437 167.631 53.7211C167.641 66.4799 167.641 79.2386 167.631 91.9925C167.631 94.8651 165.799 96.6537 162.892 96.6634C159.368 96.6732 155.844 96.6634 152.321 96.6683C150.566 96.6683 150.192 97.0328 150.119 98.7729C149.813 106.258 144.189 112.718 136.695 113.884ZM158.955 79.015C161.526 79.4039 163.315 78.6311 164.253 76.7549C165.201 74.8545 164.778 73.0318 162.936 71.1897C157.672 65.9209 152.408 60.6522 147.135 55.3931C145.186 53.4538 142.634 53.3274 140.758 55.1841C135.202 60.6765 129.662 66.1834 124.194 71.7632C121.729 74.2809 123.003 78.3249 126.415 79.0588C127.134 79.2143 127.917 79.0831 128.67 79.0831C128.67 82.325 128.67 85.5816 128.67 88.9061C127.819 88.9061 127.027 88.7798 126.303 88.9499C125.798 89.0714 125.214 89.5137 124.996 89.9754C124.83 90.3205 125.049 91.1031 125.36 91.3509C125.783 91.6815 126.463 91.803 127.032 91.803C133.914 91.8321 140.792 91.8224 147.674 91.8224C152.126 91.8224 156.578 91.8176 161.031 91.8224C162.017 91.8224 162.737 91.4239 162.751 90.3788C162.766 89.3338 162.066 88.8964 161.069 88.8964C160.36 88.8964 159.65 88.8964 158.95 88.8964C158.955 85.4746 158.955 82.2473 158.955 79.015Z" fill="white"/>
<path d="M108.373 160.739C108.373 159.106 108.276 157.526 108.398 155.966C108.558 153.828 110.371 152.122 112.539 152.107C119.129 152.063 125.72 152.063 132.311 152.107C134.585 152.122 136.393 153.92 136.505 156.175C136.583 157.662 136.52 159.159 136.52 160.739C127.154 160.739 117.841 160.739 108.373 160.739Z" fill="#A76456"/>
<path d="M122.444 166.659C117.224 166.659 112.003 166.659 106.783 166.659C106.458 166.659 106.132 166.684 105.811 166.64C104.98 166.518 104.47 166.027 104.489 165.177C104.509 164.331 105.034 163.86 105.87 163.767C106.152 163.733 106.433 163.753 106.72 163.753C117.204 163.753 127.683 163.753 138.167 163.753C138.371 163.753 138.57 163.753 138.775 163.753C139.722 163.762 140.378 164.2 140.393 165.172C140.408 166.217 139.713 166.654 138.716 166.659C138.434 166.659 138.148 166.659 137.866 166.659C132.723 166.659 127.581 166.659 122.444 166.659Z" fill="#7D3939"/>
<path d="M158.956 79.0149C158.956 82.252 158.956 85.4794 158.956 88.8914C159.655 88.8914 160.365 88.8914 161.075 88.8914C162.071 88.8914 162.766 89.3289 162.756 90.3739C162.742 91.4189 162.027 91.8174 161.036 91.8174C156.584 91.8126 152.132 91.8174 147.679 91.8174C140.797 91.8174 133.92 91.8272 127.037 91.798C126.469 91.798 125.788 91.6716 125.365 91.346C125.049 91.0981 124.836 90.3156 125.001 89.9705C125.22 89.5136 125.803 89.0664 126.308 88.9449C127.032 88.7748 127.83 88.9012 128.675 88.9012C128.675 85.5766 128.675 82.3201 128.675 79.0781C127.917 79.0781 127.139 79.2094 126.42 79.0538C123.008 78.3199 121.735 74.276 124.199 71.7582C129.667 66.1833 135.208 60.6715 140.763 55.1791C142.639 53.3224 145.191 53.4488 147.14 55.3882C152.413 60.6472 157.677 65.9159 162.941 71.1847C164.778 73.0268 165.206 74.8495 164.258 76.75C163.315 78.631 161.532 79.4038 158.956 79.0149ZM139.451 88.8331C139.451 86.991 139.417 85.2558 139.461 83.5206C139.509 81.591 140.457 80.2009 142.236 79.4767C145.035 78.3345 148.088 80.3516 148.19 83.4137C148.253 85.2169 148.2 87.0201 148.2 88.8282C150.868 88.8282 153.361 88.8282 155.971 88.8282C155.971 88.42 155.971 88.0652 155.971 87.7103C155.971 84.3517 156.01 80.9883 155.937 77.6297C155.923 77.0319 155.607 76.3028 155.189 75.8751C151.913 72.5116 148.564 69.2162 145.264 65.8771C144.817 65.425 144.476 64.8612 144.054 64.3071C143.485 64.8369 143.188 65.0994 142.907 65.3813C139.815 68.4726 136.792 71.6416 133.599 74.6211C132.15 75.9723 131.519 77.3429 131.63 79.3406C131.81 82.4756 131.679 85.63 131.679 88.8282C134.304 88.8331 136.797 88.8331 139.451 88.8331ZM127.621 76.2153C127.907 76.0014 128.432 75.7098 128.845 75.2967C133.327 70.8445 137.784 66.3777 142.25 61.9158C143.606 60.5646 144.068 60.5694 145.449 61.9498C149.857 66.3534 154.265 70.7618 158.674 75.1703C158.902 75.3987 159.121 75.6418 159.369 75.8459C160.025 76.3854 160.72 76.4194 161.337 75.8265C161.954 75.2383 161.954 74.5384 161.444 73.858C161.274 73.6344 161.055 73.4448 160.856 73.2456C155.704 68.0934 150.557 62.9413 145.4 57.7892C144.083 56.472 143.577 56.4672 142.284 57.7601C137.132 62.9073 131.98 68.0594 126.833 73.2164C126.551 73.4983 126.245 73.7948 126.065 74.1399C125.574 75.0731 126.289 76.2104 127.621 76.2153ZM145.264 88.8331C145.264 86.9764 145.356 85.1634 145.201 83.3748C145.162 82.913 144.335 82.2034 143.859 82.1937C143.383 82.184 142.513 82.8742 142.474 83.3165C142.314 85.1391 142.406 86.9861 142.406 88.8331C143.417 88.8331 144.287 88.8331 145.264 88.8331Z" fill="black"/>
<path d="M139.45 88.8333C136.791 88.8333 134.298 88.8333 131.678 88.8333C131.678 85.6351 131.81 82.4806 131.63 79.3456C131.518 77.3479 132.15 75.9773 133.598 74.6261C136.792 71.6466 139.815 68.4776 142.906 65.3863C143.188 65.1044 143.484 64.8419 144.053 64.3121C144.476 64.8662 144.811 65.4252 145.263 65.8821C148.568 69.2212 151.912 72.5166 155.188 75.8801C155.606 76.3127 155.927 77.0369 155.937 77.6347C156.009 80.9933 155.971 84.3519 155.971 87.7153C155.971 88.0702 155.971 88.425 155.971 88.8333C153.361 88.8333 150.867 88.8333 148.199 88.8333C148.199 87.0252 148.247 85.2219 148.189 83.4187C148.087 80.3614 145.035 78.3443 142.235 79.4817C140.456 80.2059 139.508 81.596 139.46 83.5256C139.421 85.2559 139.45 86.9911 139.45 88.8333ZM143.829 70.9175C142.78 70.9175 141.909 71.773 141.89 72.8228C141.871 73.8678 142.716 74.7573 143.766 74.7962C144.855 74.8351 145.783 73.9213 145.769 72.8277C145.749 71.7778 144.879 70.9175 143.829 70.9175Z" fill="#F5CF6D"/>
<path d="M127.62 76.2154C126.293 76.2105 125.579 75.0732 126.07 74.1448C126.255 73.7997 126.556 73.5033 126.838 73.2213C131.985 68.0644 137.137 62.9123 142.289 57.765C143.582 56.4721 144.083 56.477 145.405 57.7942C150.557 62.9414 155.709 68.0984 160.861 73.2505C161.06 73.4498 161.279 73.6393 161.449 73.8629C161.954 74.5434 161.959 75.2384 161.342 75.8314C160.725 76.4244 160.03 76.3904 159.373 75.8509C159.125 75.6467 158.907 75.4037 158.678 75.1753C154.27 70.7668 149.866 66.3583 145.453 61.9548C144.073 60.5744 143.611 60.5695 142.255 61.9207C137.788 66.3827 133.326 70.8494 128.85 75.3016C128.432 75.705 127.907 76.0015 127.62 76.2154Z" fill="#BE202E"/>
<path d="M145.263 88.8332C144.286 88.8332 143.416 88.8332 142.405 88.8332C142.405 86.9863 142.313 85.1393 142.473 83.3166C142.512 82.8743 143.382 82.1841 143.858 82.1938C144.334 82.2035 145.161 82.918 145.2 83.3749C145.355 85.1684 145.263 86.9765 145.263 88.8332Z" fill="white"/>
<path d="M143.83 70.9174C144.88 70.9174 145.75 71.7777 145.765 72.8275C145.779 73.9163 144.851 74.8301 143.762 74.796C142.717 74.762 141.871 73.8726 141.886 72.8227C141.91 71.768 142.78 70.9125 143.83 70.9174Z" fill="black"/>
</svg>
