<svg width="231" height="231" viewBox="0 0 231 231" fill="none" xmlns="http://www.w3.org/2000/svg">
<rect x="13.4429" y="13.443" width="203.139" height="203.139" fill="white"/>
<rect x="0.746835" y="0.746835" width="228.532" height="228.532" stroke="#CCCCCC" stroke-width="1.49367"/>
<g clip-path="url(#clip0_40_1966)">
<path d="M131.922 156.173C131.992 157.927 132.16 159.546 132.1 161.156C131.973 164.501 129.259 167.188 125.903 167.235C121.114 167.305 116.324 167.31 111.539 167.23C108.24 167.174 105.535 164.487 105.404 161.212C105.338 159.602 105.497 157.983 105.563 156.168C105.521 156.149 105.217 156.005 104.918 155.851C102.577 154.642 101.292 152.753 101.212 150.093C101.193 149.393 101.203 148.694 101.212 147.994C101.245 146.053 101.974 144.392 103.507 143.225C104.324 142.605 104.343 141.998 104.161 141.144C103.142 136.423 100.81 132.522 97.1655 129.331C91.7497 124.595 88.3478 118.665 86.8712 111.62C83.3806 94.9772 94.3992 78.2459 111.086 74.8446C120.997 72.8244 130.259 74.2894 138.506 80.2802C154.529 91.9212 155.646 115.53 140.819 128.888C137.044 132.289 134.385 136.213 133.333 141.196C133.16 142.017 133.188 142.586 133.964 143.183C135.525 144.382 136.296 146.067 136.296 148.054C136.296 149.142 136.366 150.252 136.165 151.306C135.67 153.807 134.025 155.37 131.922 156.173ZM116.46 115.917C118.128 115.917 119.581 115.917 121.128 115.917C121.128 114.9 121.1 113.971 121.133 113.048C121.249 109.921 123.221 107.234 126.142 106.46C127.249 106.166 128.455 106.114 129.604 106.161C132.506 106.278 134.632 107.705 135.824 110.351C137.861 114.886 134.553 119.962 129.488 120.116C128.104 120.158 126.717 120.121 125.352 120.121C125.352 127.381 125.352 134.472 125.352 141.56C126.604 141.56 127.946 141.905 128.866 141.438C129.464 141.135 129.464 139.642 129.731 138.686C129.773 138.536 129.815 138.387 129.861 138.238C131.287 133.306 134.174 129.406 137.955 125.962C150.866 114.209 150.043 93.8621 136.301 83.6955C129.885 78.9505 122.586 77.4061 114.754 78.3859C106.357 79.431 99.5533 83.2942 94.8384 90.3955C87.1609 101.952 89.4366 117.102 100.184 126.573C104.007 129.942 106.553 134.067 107.829 138.98C108.049 139.838 108.245 140.701 108.446 141.541C109.792 141.541 111.053 141.541 112.329 141.541C112.329 134.37 112.329 127.283 112.329 120.116C110.885 120.116 109.525 120.153 108.165 120.107C104.754 119.995 101.983 117.587 101.404 114.275C100.843 111.069 102.577 107.789 105.67 106.688C106.946 106.236 108.413 106.142 109.787 106.161C113.352 106.212 116.273 109.133 116.45 112.693C116.502 113.738 116.46 114.783 116.46 115.917ZM118.754 152.38C122.371 152.38 125.988 152.398 129.604 152.37C131.24 152.361 132.128 151.484 132.216 149.869C132.249 149.249 132.259 148.624 132.198 148.008C132.058 146.641 131.198 145.843 129.824 145.759C129.319 145.731 128.815 145.745 128.31 145.745C121.623 145.745 114.932 145.74 108.245 145.75C106.156 145.754 105.31 146.58 105.273 148.605C105.268 148.876 105.268 149.151 105.273 149.421C105.296 151.544 106.119 152.375 108.259 152.38C111.754 152.389 115.254 152.38 118.754 152.38ZM118.689 163.153C120.983 163.148 123.277 163.176 125.567 163.139C126.983 163.115 127.866 162.294 128.048 160.997C128.38 158.608 127.871 157.185 126.478 156.672C126.231 156.579 125.95 156.527 125.684 156.527C121.058 156.518 116.432 156.504 111.806 156.532C110.474 156.541 109.553 157.465 109.436 158.786C109.394 159.285 109.413 159.793 109.418 160.297C109.436 162.271 110.282 163.134 112.268 163.148C114.413 163.167 116.548 163.153 118.689 163.153ZM121.025 141.569C121.025 134.351 121.025 127.264 121.025 120.214C119.474 120.214 118.02 120.214 116.586 120.214C116.586 127.39 116.586 134.468 116.586 141.569C118.119 141.569 119.548 141.569 121.025 141.569ZM125.296 115.968C126.852 115.968 128.254 116.038 129.637 115.95C131.366 115.838 132.534 114.317 132.282 112.656C132.044 111.116 130.787 110.22 128.847 110.211C126.824 110.197 125.483 111.074 125.319 112.651C125.207 113.715 125.296 114.797 125.296 115.968ZM112.413 115.936C112.413 114.993 112.427 114.181 112.408 113.374C112.376 111.9 111.642 110.803 110.436 110.388C108.876 109.851 106.852 110.281 106.021 111.326C104.679 113.01 105.623 115.642 107.764 115.898C109.249 116.08 110.768 115.936 112.413 115.936Z" fill="black"/>
<path d="M79.1098 80.6441C77.6658 79.2211 76.306 77.8867 74.9603 76.5429C72.4276 74.0095 72.4136 70.3095 74.9556 67.8134C77.2032 65.6065 79.4742 63.4183 81.7686 61.2581C84.1424 59.0232 87.7498 59.0418 90.1049 61.2954C91.4834 62.6111 92.7918 64.0015 94.189 65.2986C94.432 65.5225 95.0582 65.6438 95.3245 65.4899C99.3992 63.157 103.703 61.4027 108.446 60.3249C108.446 58.1367 108.432 55.9345 108.451 53.7323C108.469 51.2221 109.675 49.4305 111.922 48.3947C112.675 48.0494 113.563 47.8581 114.394 47.8395C117.586 47.7788 120.777 47.7975 123.974 47.8208C127.212 47.8395 129.67 50.2283 129.745 53.4663C129.796 55.6405 129.754 57.8148 129.754 59.7417C134.38 61.6826 138.866 63.5676 143.651 65.5785C144.688 64.5194 146.001 63.1477 147.347 61.8086C149.997 59.1632 153.656 59.1585 156.263 61.7993C158.422 63.9875 160.567 66.1897 162.684 68.4153C165.039 70.8834 165.015 74.4714 162.641 76.9069C161.366 78.2179 160.076 79.515 158.749 80.7701C158.272 81.2227 158.188 81.5633 158.539 82.1511C160.777 85.9117 162.459 89.9102 163.459 94.1747C163.609 94.8139 163.875 95.0658 164.553 95.0472C166.263 95.0005 167.978 95.0099 169.693 95.0378C173.903 95.1032 176.244 97.4874 176.244 101.677C176.244 104.556 176.253 107.43 176.244 110.309C176.23 114.055 173.707 116.561 169.926 116.584C168.254 116.593 166.576 116.556 164.903 116.612C164.576 116.621 164.048 116.911 163.978 117.167C162.749 121.693 160.894 125.944 158.385 130.026C159.796 131.416 161.193 132.765 162.557 134.137C165.071 136.665 165.062 140.379 162.515 142.871C160.291 145.05 158.048 147.205 155.786 149.342C153.357 151.638 149.749 151.638 147.361 149.328C145.436 147.467 143.558 145.554 141.646 143.655C142.618 142.684 143.516 141.784 144.539 140.762C146.001 142.218 147.45 143.655 148.899 145.096C151.441 147.63 151.679 147.634 154.235 145.176C155.973 143.505 157.716 141.835 159.445 140.151C160.637 138.989 160.651 138.032 159.487 136.857C157.87 135.228 156.23 133.619 154.614 131.99C153.534 130.903 153.431 130.073 154.291 128.776C157.198 124.39 159.23 119.636 160.37 114.499C160.716 112.95 161.375 112.455 163.006 112.45C165.305 112.441 167.599 112.455 169.898 112.446C171.515 112.436 172.174 111.792 172.183 110.187C172.197 107.271 172.202 104.355 172.183 101.439C172.174 99.8482 171.482 99.1577 169.898 99.1483C167.445 99.1297 164.992 99.1483 162.539 99.139C160.838 99.1343 160.188 98.6211 159.889 96.9928C158.955 91.9631 156.997 87.3441 154.305 83.0143C153.109 81.092 153.174 80.5648 154.768 78.9738C156.338 77.4108 157.917 75.8524 159.478 74.2754C160.618 73.1276 160.651 72.1945 159.557 71.0514C157.511 68.9145 155.45 66.7963 153.375 64.692C152.329 63.6282 151.329 63.6376 150.24 64.706C148.6 66.311 146.987 67.9487 145.352 69.5584C144.184 70.7061 143.399 70.8134 142.044 69.9176C137.646 67.0202 132.875 65.0093 127.731 63.8802C126.207 63.5443 125.721 62.9237 125.717 61.356C125.703 59.0232 125.717 56.6903 125.712 54.3575C125.707 52.4259 125.207 51.9173 123.324 51.9126C120.52 51.908 117.717 51.9033 114.913 51.9173C113.119 51.9266 112.535 52.5145 112.525 54.3061C112.516 56.7556 112.535 59.2051 112.516 61.6546C112.502 63.185 111.955 63.8429 110.436 64.1181C105.432 65.0233 100.838 66.9502 96.5161 69.5817C94.3105 70.9254 93.9741 70.8881 92.1143 69.0358C90.5956 67.5288 89.0863 66.0124 87.5629 64.5101C86.4274 63.395 85.4835 63.3763 84.3293 64.4727C82.1845 66.507 80.0537 68.5599 77.9369 70.6268C76.9088 71.6299 76.8995 72.6377 77.9088 73.6689C79.4883 75.2785 81.1051 76.8509 82.7032 78.4466C84.0303 79.7716 84.1237 80.4948 83.1191 82.0205C80.2686 86.3503 78.2733 91.0393 77.1518 96.097C76.8014 97.674 76.1518 98.1825 74.5537 98.1919C72.2547 98.2012 69.9603 98.1872 67.6613 98.1965C65.9744 98.2059 65.3389 98.8357 65.3342 100.525C65.3202 103.403 65.3202 106.278 65.3342 109.156C65.3436 110.841 66.0071 111.489 67.6613 111.498C70.0351 111.508 72.4136 111.494 74.7874 111.503C76.4089 111.508 77.1004 112.04 77.3808 113.584C78.306 118.66 80.292 123.307 83.0022 127.67C84.1658 129.541 84.1003 130.091 82.5677 131.622C80.9695 133.217 79.3621 134.799 77.7733 136.399C76.6659 137.515 76.6518 138.476 77.7593 139.623C79.7826 141.728 81.82 143.818 83.862 145.899C84.9508 147.009 85.9601 147.019 87.0816 145.899C88.7872 144.201 90.4601 142.465 92.1189 140.776C93.1376 141.835 94.0442 142.777 94.8806 143.65C93.0488 145.544 91.2264 147.686 89.133 149.529C86.876 151.516 83.4088 151.222 81.2686 149.09C78.9555 146.781 76.6752 144.443 74.4369 142.059C72.2781 139.763 72.3154 136.189 74.4836 133.913C75.7967 132.532 77.1565 131.192 78.535 129.877C79.0116 129.42 79.0911 129.084 78.7406 128.496C76.5023 124.735 74.8107 120.741 73.8248 116.472C73.6519 115.73 73.2921 115.576 72.6192 115.59C70.9089 115.623 69.194 115.618 67.4791 115.6C63.7361 115.553 61.2829 113.08 61.2735 109.348C61.2688 106.315 61.2595 103.282 61.2735 100.249C61.2922 96.6289 63.8015 94.114 67.4463 94.0767C69.1613 94.058 70.8762 94.1094 72.5865 94.0441C72.9323 94.0301 73.493 93.6941 73.5724 93.4048C74.7593 88.9164 76.6004 84.7033 79.1098 80.6441Z" fill="black"/>
<path d="M116.46 115.917C116.46 114.783 116.506 113.738 116.45 112.698C116.268 109.138 113.352 106.217 109.787 106.166C108.413 106.147 106.946 106.236 105.67 106.693C102.577 107.794 100.843 111.074 101.404 114.279C101.983 117.592 104.754 119.999 108.165 120.111C109.525 120.158 110.885 120.121 112.329 120.121C112.329 127.287 112.329 134.379 112.329 141.546C111.053 141.546 109.792 141.546 108.446 141.546C108.245 140.706 108.049 139.843 107.829 138.984C106.553 134.067 104.011 129.942 100.184 126.578C89.4319 117.107 87.1609 101.952 94.8384 90.3955C99.558 83.2942 106.362 79.4264 114.754 78.3766C122.59 77.3968 129.885 78.9411 136.301 83.6862C150.043 93.8528 150.866 114.2 137.955 125.953C134.174 129.396 131.287 133.301 129.861 138.228C129.819 138.378 129.773 138.527 129.731 138.676C129.464 139.633 129.464 141.126 128.866 141.429C127.941 141.896 126.604 141.55 125.352 141.55C125.352 134.463 125.352 127.371 125.352 120.111C126.717 120.111 128.104 120.149 129.488 120.107C134.548 119.953 137.857 114.876 135.824 110.341C134.637 107.696 132.511 106.268 129.604 106.152C128.45 106.105 127.245 106.156 126.142 106.45C123.226 107.225 121.249 109.912 121.133 113.038C121.1 113.967 121.128 114.895 121.128 115.908C119.581 115.917 118.128 115.917 116.46 115.917Z" fill="#F5CF6D"/>
<path d="M118.754 152.38C115.254 152.38 111.754 152.389 108.254 152.38C106.114 152.375 105.292 151.549 105.268 149.421C105.263 149.151 105.263 148.876 105.268 148.605C105.306 146.58 106.151 145.75 108.24 145.75C114.927 145.74 121.618 145.745 128.305 145.745C128.81 145.745 129.319 145.731 129.819 145.759C131.193 145.838 132.053 146.641 132.193 148.008C132.254 148.624 132.249 149.249 132.212 149.869C132.123 151.484 131.235 152.356 129.6 152.37C125.988 152.398 122.371 152.38 118.754 152.38Z" fill="#8FC386"/>
<path d="M118.688 163.153C116.548 163.153 114.413 163.167 112.273 163.148C110.287 163.129 109.441 162.266 109.422 160.297C109.417 159.793 109.394 159.285 109.441 158.786C109.558 157.465 110.478 156.541 111.81 156.532C116.436 156.504 121.062 156.518 125.688 156.527C125.955 156.527 126.23 156.583 126.483 156.672C127.875 157.185 128.384 158.608 128.053 160.997C127.87 162.294 126.987 163.111 125.571 163.139C123.277 163.181 120.983 163.148 118.688 163.153Z" fill="#8FC386"/>
<path d="M121.025 141.569C119.549 141.569 118.119 141.569 116.586 141.569C116.586 134.472 116.586 127.39 116.586 120.214C118.016 120.214 119.474 120.214 121.025 120.214C121.025 127.264 121.025 134.351 121.025 141.569Z" fill="white"/>
<path d="M125.296 115.968C125.296 114.797 125.207 113.715 125.319 112.651C125.483 111.074 126.824 110.197 128.847 110.211C130.787 110.225 132.044 111.121 132.282 112.656C132.539 114.312 131.371 115.838 129.637 115.95C128.254 116.038 126.857 115.968 125.296 115.968Z" fill="white"/>
<path d="M112.413 115.936C110.764 115.936 109.245 116.08 107.764 115.903C105.623 115.646 104.68 113.015 106.021 111.331C106.852 110.285 108.871 109.856 110.436 110.393C111.642 110.808 112.376 111.9 112.408 113.379C112.427 114.186 112.413 114.993 112.413 115.936Z" fill="white"/>
</g>
<defs>
<clipPath id="clip0_40_1966">
<rect width="115.013" height="119.494" fill="white" transform="translate(61.2407 47.7975)"/>
</clipPath>
</defs>
</svg>
