<svg width="231" height="230" viewBox="0 0 231 230" fill="none" xmlns="http://www.w3.org/2000/svg">
<rect x="14.3555" y="13.3884" width="202.314" height="202.314" fill="white"/>
<rect x="1.7106" y="0.743802" width="227.603" height="227.603" stroke="#CCCCCC" stroke-width="1.4876"/>
<path d="M117.902 159.261C118.191 159.795 118.498 160.348 118.796 160.905C120.041 163.236 119.426 165.558 117.172 166.904C115.797 167.726 114.403 168.509 112.99 169.264C110.668 170.509 108.337 169.86 107.02 167.563C104.592 163.328 102.184 159.079 99.8145 154.81C99.4155 154.089 98.9685 153.815 98.1321 153.82C92.7629 153.858 87.3938 153.844 82.0294 153.839C79.0925 153.834 77.6937 152.44 77.6889 149.494C77.6793 145.129 77.6649 140.76 77.7034 136.395C77.7082 135.598 77.439 135.218 76.7324 134.853C69.8106 131.31 66.0277 125.648 66.0469 117.846C66.0662 110.088 69.8827 104.479 76.7516 100.965C77.5736 100.547 77.6937 100.066 77.6937 99.2921C77.6793 88.1981 77.6841 77.0993 77.6841 66.0052C77.6841 62.5924 79.006 61.261 82.3803 61.261C87.2255 61.261 92.0756 61.2417 96.9208 61.2802C97.7379 61.285 98.1898 61.1216 98.2859 60.2323C98.3532 59.6026 98.5407 58.9778 98.7329 58.3673C99.478 56.012 101.055 54.5988 103.516 54.2094C103.554 54.2046 103.597 54.1902 103.636 54.195C106.371 54.344 108.611 53.349 110.75 51.6378C112.591 50.167 114.792 50.3256 116.85 51.5128C117.263 51.7532 117.672 52.0272 118.022 52.3492C119.354 53.5701 120.873 54.0652 122.709 54.1085C126.66 54.195 128.444 55.738 129.232 59.6267C129.496 60.9293 130.001 61.4052 131.342 61.2898C132.851 61.16 134.385 61.2706 135.908 61.2562C137.134 61.2465 138.172 61.6503 139.042 62.5251C142.268 65.7601 145.493 68.9902 148.733 72.2108C149.675 73.1481 150.007 74.2633 150.002 75.5803C149.973 83.5115 149.987 91.4426 149.987 99.3738C149.987 99.8449 149.987 100.316 149.987 100.768C165.129 102.224 175.718 117.029 170.618 132.656C171.411 132.502 172.132 132.324 172.863 132.228C175.478 131.892 177.852 132.391 179.563 134.559C181.217 136.655 181.491 139.082 180.419 141.462C179.89 142.635 178.943 143.827 177.867 144.505C168.513 150.378 159.087 156.142 149.675 161.919C146.498 163.866 143.095 164.26 139.509 163.294C133.524 161.679 127.521 160.131 121.56 158.439C120.113 158.026 119.008 158.204 117.902 159.261ZM108.697 143.053C111.125 147.34 113.504 151.542 115.912 155.796C116.393 155.531 116.811 155.373 117.148 155.108C118.532 154.032 119.95 153.983 121.637 154.464C127.982 156.262 134.37 157.906 140.739 159.617C143.099 160.251 145.368 160.03 147.449 158.752C156.933 152.945 166.407 147.119 175.848 141.236C176.434 140.871 176.934 140.015 177.059 139.313C177.458 137.03 175.877 135.521 173.464 136.102C171.512 136.573 169.589 137.376 167.83 138.357C162.764 141.173 157.779 144.144 152.775 147.076C150.343 148.499 147.748 149.196 144.96 148.744C142.556 148.355 140.177 147.816 137.807 147.254C135.788 146.773 133.789 146.192 131.794 145.6C130.602 145.245 130.044 144.255 130.352 143.221C130.674 142.144 131.626 141.635 132.808 141.914C133.121 141.986 133.423 142.087 133.736 142.168C136.75 142.962 139.754 143.803 142.782 144.533C144.392 144.923 145.613 144.125 145.897 142.697C146.176 141.313 145.301 140.111 143.816 139.664C139.11 138.261 134.341 137.016 129.737 135.324C126.458 134.117 123.579 134.43 120.681 136.112C117.148 138.155 113.615 140.193 110.082 142.231C109.639 142.481 109.202 142.75 108.697 143.053ZM129.237 83.9489C130.443 86.7416 131.626 89.4911 132.813 92.2309C133.178 93.0769 133.395 93.9181 132.77 94.7257C132.097 95.5957 131.174 95.4995 130.241 95.3121C129.025 95.0669 127.819 94.7689 126.588 94.6055C126.232 94.5574 125.68 94.7929 125.478 95.0814C124.738 96.1244 124.098 97.2396 123.435 98.3307C122.949 99.1286 122.291 99.9073 121.354 99.6045C120.666 99.3834 119.936 98.7105 119.604 98.0471C118.585 96.0091 117.753 93.8845 116.85 91.7887C116.306 90.5342 114.989 89.6882 113.663 89.9285C113.172 90.0198 112.572 90.4476 112.346 90.8899C111.327 92.8847 110.423 94.9372 109.481 96.9656C108.933 98.1481 108.385 99.3353 107.77 100.667C108.395 100.667 108.827 100.667 109.26 100.667C117.273 100.667 125.286 100.667 133.298 100.667C133.697 100.667 134.116 100.628 134.495 100.729C135.505 100.994 136.077 101.667 136 102.743C135.928 103.758 135.322 104.344 134.327 104.488C133.894 104.551 133.447 104.517 133.005 104.517C121.829 104.517 110.649 104.517 99.4732 104.517C99.0598 104.517 98.6512 104.517 97.9783 104.517C100.093 106.743 101.583 109.007 102.458 111.621C102.718 112.405 103.059 112.66 103.891 112.655C111.384 112.621 118.873 112.621 126.367 112.655C127.203 112.66 127.641 112.366 128.073 111.684C130.063 108.56 132.678 106.065 135.856 104.147C138.99 102.258 142.398 101.215 146.056 100.821C146.056 92.6059 146.056 84.4632 146.056 76.1956C145.541 76.1956 145.109 76.1956 144.681 76.1956C142.479 76.1956 140.273 76.2196 138.071 76.186C136.192 76.1571 135.106 75.0612 135.062 73.1817C135.029 71.8214 135.053 70.4563 135.053 69.096C135.053 67.7885 135.053 66.4811 135.053 65.1737C134.341 65.1737 133.803 65.1737 133.077 65.1737C134.942 67.8462 134.385 70.3554 132.899 72.7972C132.169 73.9941 132.044 75.2342 132.299 76.5993C132.851 79.6565 132.251 82.2809 129.237 83.9489ZM81.6257 99.3738C85.3894 98.8402 88.9271 99.2152 92.3159 100.691C92.4938 100.768 92.6956 100.821 92.8879 100.816C96.2863 100.773 99.6847 100.72 103.083 100.662C103.453 100.657 103.818 100.619 104.314 100.59C103.569 99.3017 102.881 98.1769 102.266 97.0137C101.949 96.4128 101.574 96.2638 100.915 96.4032C99.5837 96.6868 98.2426 96.9223 96.8968 97.1002C95.099 97.3357 94.0752 95.985 94.7481 94.3123C94.9692 93.7547 95.2528 93.2259 95.5076 92.678C96.7814 89.9333 98.06 87.1838 99.3578 84.3815C98.9204 84.1556 98.5647 83.9873 98.2186 83.7951C96.1373 82.6511 94.8347 80.3679 95.2625 78.0846C95.7095 75.6909 95.4451 73.5471 94.1617 71.4369C93.061 69.6343 93.2004 67.6876 94.2098 65.8226C94.3155 65.6255 94.3828 65.4092 94.479 65.1737C90.1625 65.1737 85.9325 65.1737 81.6257 65.1737C81.6257 76.5705 81.6257 87.8856 81.6257 99.3738ZM146.503 136.511C145.931 134.713 145.926 134.718 144.359 133.91C142.638 133.026 141.455 131.675 140.912 129.801C140.595 128.705 141.076 127.69 142.042 127.344C143.051 126.984 144.013 127.426 144.503 128.474C145.628 130.877 148.334 131.699 150.617 130.329C151.766 129.642 151.896 128.349 150.785 127.585C150.117 127.123 149.276 126.878 148.488 126.633C147.387 126.287 146.219 126.123 145.142 125.71C142.806 124.811 141.422 123.114 141.335 120.543C141.258 118.192 142.744 116.058 145.152 115.092C145.82 114.823 146.132 114.52 146.219 113.765C146.334 112.727 147.036 112.126 148.118 112.15C149.19 112.174 149.882 112.765 149.944 113.833C149.987 114.525 150.271 114.784 150.867 115.001C152.737 115.678 154.102 116.967 154.737 118.841C154.929 119.404 154.756 120.36 154.366 120.778C153.977 121.201 153.045 121.427 152.463 121.288C151.92 121.153 151.434 120.485 151.074 119.947C150.007 118.336 147.699 117.832 146.108 118.928C144.825 119.812 144.873 121.288 146.248 121.999C146.772 122.268 147.377 122.379 147.945 122.562C149.387 123.018 150.901 123.316 152.256 123.956C154.41 124.975 155.443 126.854 155.366 129.219C155.289 131.598 153.891 133.117 151.79 134.045C151.218 134.3 150.612 134.482 150.06 134.684C149.824 136.588 149.521 136.91 147.603 137.29C147.969 137.732 148.411 138.116 148.651 138.602C149.036 139.38 149.608 139.409 150.334 139.284C158.481 137.938 163.913 130.517 162.706 122.355C161.827 116.395 157.279 111.549 151.261 110.165C145.445 108.824 139.249 111.295 135.817 116.322C132.452 121.245 132.414 127.945 135.769 132.824C136.096 133.3 136.687 133.733 137.245 133.901C140.263 134.8 143.306 135.617 146.503 136.511ZM84.7501 102.998C76.4632 103.017 69.8251 109.699 69.8539 118C69.8779 126.191 76.5882 132.867 84.7933 132.863C93.0273 132.858 99.7279 126.104 99.7039 117.837C99.6751 109.636 92.9696 102.979 84.7501 102.998ZM124.872 130.618C124.646 128.411 124.646 128.411 122.574 128.411C115.528 128.411 108.476 128.421 101.43 128.397C100.67 128.392 100.213 128.633 99.7376 129.238C95.7095 134.381 90.398 136.857 83.8704 136.694C83.1302 136.674 82.3948 136.569 81.6497 136.501C81.6497 141.053 81.6497 145.471 81.6497 149.927C86.7737 149.927 91.7968 149.927 97.0217 149.927C96.0315 148.172 95.0846 146.562 94.2002 144.918C93.0273 142.726 93.6714 140.366 95.796 139.097C97.238 138.236 98.6993 137.405 100.185 136.617C102.333 135.477 104.64 136.122 105.924 138.179C106.217 138.645 106.486 139.131 106.799 139.669C109.986 137.823 113.105 136.03 116.215 134.223C118.945 132.627 121.652 130.988 124.872 130.618ZM99.0502 78.7768C99.0214 79.6901 99.6703 80.3679 100.723 80.7091C103.391 81.5792 105.395 83.1894 106.765 85.6793C107.664 87.3136 108.298 87.5395 110.029 86.8858C112.581 85.9149 115.052 85.8908 117.614 86.8666C119.416 87.554 119.998 87.3232 120.974 85.6409C122.272 83.4057 123.997 81.8003 126.473 80.911C128.621 80.1419 128.886 79.7478 128.487 77.503C128.016 74.8689 128.54 72.5376 129.847 70.264C130.794 68.6201 130.708 68.0289 129.251 66.8416C127.088 65.0823 125.862 62.8808 125.406 60.1506C125.122 58.4394 124.613 57.9395 122.93 57.9827C120.003 58.0597 117.556 57.1079 115.364 55.2044C114.211 54.2046 113.499 54.2046 112.37 55.1756C110.183 57.055 107.75 58.0645 104.813 57.9827C103.088 57.9347 102.612 58.4009 102.304 60.1025C101.824 62.7607 100.718 64.9862 98.5695 66.7263C96.9592 68.0337 96.892 68.5817 97.9302 70.4323C99.1271 72.5665 99.776 74.7584 99.2184 77.2098C99.1271 77.6232 99.1271 78.0702 99.0502 78.7768ZM123.978 124.47C124.459 121.788 124.925 119.178 125.391 116.558C118.186 116.558 110.918 116.558 103.804 116.558C103.429 119.231 103.064 121.821 102.694 124.47C109.731 124.47 116.907 124.47 123.978 124.47ZM110.702 166.13C112.129 165.327 113.47 164.539 114.84 163.818C115.523 163.458 115.662 163.111 115.244 162.415C114.196 160.665 113.216 158.872 112.211 157.098C109.135 151.667 106.049 146.24 103.006 140.789C102.54 139.957 102.127 139.832 101.338 140.342C100.401 140.952 99.4203 141.515 98.4157 141.995C97.512 142.428 97.4351 142.865 97.935 143.735C101.992 150.821 105.996 157.93 110.019 165.034C110.216 165.38 110.433 165.702 110.702 166.13ZM162.153 137.025C164.663 135.881 164.864 135.699 165.835 133.829C172.502 120.942 163.749 105.579 149.218 104.68C135.577 103.834 125.012 116.991 128.804 130.065C129.097 131.084 129.655 131.44 130.655 131.478C127.064 121.245 131.871 112.391 138.812 108.42C146.325 104.123 155.765 105.56 161.702 111.852C167.369 117.856 169.219 128.286 162.153 137.025ZM108.01 90.9812C105.285 90.6543 103.977 88.6691 102.66 86.4628C101.665 88.6066 100.747 90.5726 99.8866 92.428C101.199 92.428 102.593 92.0579 103.573 92.5338C104.564 93.0144 105.145 94.3363 105.962 95.365C106.602 93.995 107.255 92.5963 108.01 90.9812ZM125.733 85.5832C124.137 87.6116 123.243 90.0679 120.618 90.8129C121.051 91.7695 121.416 92.5866 121.757 93.3317C122.623 92.3271 123.252 91.0244 124.257 90.5918C125.247 90.164 126.612 90.6207 127.934 90.6928C127.208 89.02 126.511 87.3905 125.733 85.5832ZM142.792 72.2733C141.532 71.0331 140.177 69.7016 138.985 68.5288C138.985 69.5622 138.985 70.9033 138.985 72.2733C140.393 72.2733 141.725 72.2733 142.792 72.2733ZM149.545 144.447C150.377 143.971 151.083 143.572 151.785 143.168C150.958 143.356 149.646 142.611 149.545 144.447Z" fill="black"/>
<path d="M108.698 143.053C109.207 142.75 109.64 142.481 110.087 142.226C113.62 140.183 117.158 138.15 120.686 136.107C123.584 134.43 126.464 134.112 129.742 135.319C134.347 137.011 139.11 138.256 143.821 139.659C145.306 140.101 146.181 141.303 145.902 142.692C145.614 144.12 144.393 144.918 142.787 144.529C139.759 143.798 136.755 142.957 133.741 142.164C133.433 142.082 133.126 141.981 132.813 141.909C131.631 141.635 130.679 142.144 130.357 143.216C130.045 144.25 130.602 145.24 131.799 145.596C133.794 146.187 135.789 146.768 137.812 147.249C140.182 147.812 142.561 148.35 144.965 148.739C147.758 149.191 150.353 148.494 152.781 147.071C157.784 144.139 162.769 141.169 167.835 138.352C169.595 137.376 171.522 136.569 173.469 136.097C175.882 135.516 177.463 137.025 177.064 139.308C176.939 140.01 176.439 140.861 175.853 141.231C166.413 147.11 156.938 152.936 147.455 158.747C145.373 160.021 143.105 160.242 140.744 159.612C134.375 157.901 127.987 156.257 121.642 154.459C119.955 153.983 118.537 154.027 117.153 155.103C116.816 155.368 116.398 155.526 115.918 155.791C113.5 151.542 111.125 147.34 108.698 143.053Z" fill="white"/>
<path d="M129.237 83.949C132.251 82.281 132.852 79.6565 132.294 76.609C132.044 75.2439 132.169 74.0038 132.895 72.8069C134.38 70.3602 134.938 67.8559 133.073 65.1833C133.803 65.1833 134.342 65.1833 135.048 65.1833C135.048 66.4908 135.048 67.7982 135.048 69.1057C135.048 70.466 135.024 71.8311 135.058 73.1914C135.101 75.0709 136.187 76.1668 138.067 76.1956C140.268 76.2293 142.475 76.2053 144.676 76.2053C145.109 76.2053 145.541 76.2053 146.051 76.2053C146.051 84.4729 146.051 92.6156 146.051 100.83C142.393 101.224 138.985 102.268 135.851 104.157C132.674 106.07 130.059 108.564 128.069 111.694C127.636 112.371 127.199 112.665 126.362 112.665C118.869 112.631 111.38 112.631 103.886 112.665C103.054 112.669 102.718 112.415 102.454 111.631C101.584 109.016 100.089 106.757 97.9736 104.527C98.6418 104.527 99.0552 104.527 99.4685 104.527C110.644 104.527 121.825 104.527 133.001 104.527C133.443 104.527 133.89 104.56 134.322 104.498C135.313 104.354 135.918 103.767 135.995 102.753C136.072 101.676 135.5 101.003 134.491 100.739C134.111 100.638 133.697 100.676 133.294 100.676C125.281 100.672 117.268 100.676 109.255 100.676C108.822 100.676 108.39 100.676 107.765 100.676C108.38 99.345 108.923 98.1626 109.476 96.9753C110.418 94.942 111.322 92.8895 112.341 90.8995C112.567 90.4573 113.168 90.0295 113.658 89.9382C114.985 89.6978 116.302 90.5486 116.845 91.7984C117.749 93.8893 118.585 96.0187 119.599 98.0568C119.931 98.7201 120.657 99.3931 121.349 99.6142C122.291 99.9122 122.95 99.1383 123.43 98.3404C124.094 97.2445 124.733 96.1293 125.473 95.091C125.68 94.8026 126.233 94.5671 126.583 94.6152C127.809 94.7786 129.021 95.0718 130.237 95.3218C131.169 95.5092 132.092 95.6102 132.765 94.7353C133.385 93.9278 133.174 93.0866 132.808 92.2406C131.621 89.4912 130.443 86.7417 129.237 83.949Z" fill="white"/>
<path d="M81.625 99.3739C81.625 87.8857 81.625 76.5706 81.625 65.1882C85.9319 65.1882 90.1618 65.1882 94.4783 65.1882C94.3822 65.4237 94.3149 65.64 94.2091 65.8371C93.1997 67.7021 93.0651 69.6488 94.161 71.4514C95.4493 73.5616 95.7088 75.7054 95.2618 78.0991C94.834 80.3775 96.1414 82.6656 98.218 83.8096C98.564 83.997 98.9149 84.1701 99.3572 84.396C98.0545 87.1983 96.7807 89.943 95.5069 92.6925C95.2522 93.2356 94.9734 93.7692 94.7475 94.3268C94.0745 96.0043 95.0984 97.3502 96.8961 97.1147C98.242 96.9368 99.5879 96.7013 100.915 96.4177C101.573 96.2783 101.948 96.4273 102.265 97.0282C102.881 98.1914 103.568 99.3114 104.313 100.604C103.818 100.633 103.453 100.672 103.082 100.677C99.684 100.734 96.2856 100.782 92.8872 100.83C92.695 100.835 92.4931 100.782 92.3152 100.705C88.9265 99.2153 85.3935 98.8403 81.625 99.3739Z" fill="white"/>
<path d="M146.502 136.511C143.306 135.617 140.268 134.804 137.254 133.896C136.701 133.728 136.11 133.3 135.779 132.819C132.419 127.936 132.462 121.24 135.827 116.318C139.259 111.29 145.455 108.819 151.271 110.16C157.284 111.545 161.836 116.395 162.716 122.35C163.922 130.512 158.491 137.934 150.343 139.28C149.617 139.4 149.045 139.376 148.661 138.597C148.42 138.112 147.978 137.732 147.613 137.285C149.531 136.905 149.838 136.583 150.069 134.68C150.622 134.478 151.223 134.295 151.8 134.04C153.9 133.108 155.294 131.589 155.376 129.214C155.453 126.849 154.419 124.97 152.266 123.951C150.91 123.312 149.396 123.009 147.954 122.557C147.387 122.379 146.776 122.264 146.257 121.994C144.878 121.283 144.83 119.807 146.118 118.923C147.709 117.827 150.016 118.337 151.083 119.942C151.439 120.48 151.925 121.148 152.472 121.283C153.054 121.427 153.982 121.197 154.376 120.774C154.765 120.355 154.934 119.399 154.746 118.836C154.112 116.962 152.746 115.678 150.877 114.996C150.281 114.78 149.997 114.52 149.954 113.828C149.891 112.761 149.199 112.169 148.127 112.145C147.046 112.121 146.344 112.722 146.228 113.76C146.147 114.515 145.834 114.818 145.161 115.087C142.753 116.053 141.268 118.188 141.345 120.538C141.427 123.11 142.816 124.806 145.152 125.705C146.224 126.119 147.392 126.282 148.497 126.628C149.29 126.878 150.127 127.123 150.795 127.58C151.905 128.344 151.776 129.637 150.627 130.325C148.343 131.69 145.637 130.868 144.512 128.469C144.022 127.421 143.061 126.979 142.051 127.34C141.085 127.686 140.605 128.7 140.922 129.796C141.465 131.666 142.647 133.021 144.368 133.906C145.926 134.718 145.926 134.708 146.502 136.511Z" fill="#F5CF6D"/>
<path d="M84.7502 102.998C92.9697 102.979 99.6752 109.636 99.6992 117.837C99.728 126.099 93.0226 132.858 84.7886 132.863C76.5835 132.867 69.8732 126.191 69.8492 118C69.8252 109.699 76.4681 103.013 84.7502 102.998ZM93.3447 108.858C92.8351 108.324 92.4169 107.603 91.7873 107.291C90.8259 106.81 90.028 107.367 89.4368 108.189C85.327 113.914 81.2076 119.634 77.1026 125.359C76.2854 126.498 76.4152 127.652 77.3622 128.32C78.3139 128.988 79.4098 128.734 80.2462 127.575C84.3464 121.894 88.4321 116.202 92.5083 110.502C92.8063 110.093 92.9793 109.598 93.3447 108.858ZM74.6704 111.79C74.6896 114.51 76.968 116.755 79.6646 116.717C82.3852 116.673 84.5771 114.424 84.5579 111.689C84.5387 108.954 82.2891 106.747 79.5589 106.781C76.8142 106.815 74.6511 109.031 74.6704 111.79ZM89.9318 129.041C92.6717 129.041 94.8876 126.83 94.8876 124.095C94.8876 121.36 92.6765 119.149 89.9318 119.149C87.1728 119.149 84.9905 121.336 84.9905 124.095C84.9953 126.854 87.1776 129.041 89.9318 129.041Z" fill="#8FC386"/>
<path d="M124.872 130.618C121.652 130.988 118.946 132.627 116.215 134.218C113.105 136.025 109.991 137.818 106.799 139.664C106.482 139.126 106.217 138.645 105.924 138.174C104.641 136.117 102.333 135.473 100.185 136.612C98.6995 137.4 97.2382 138.232 95.7962 139.092C93.6716 140.361 93.0227 142.721 94.2004 144.913C95.08 146.557 96.0269 148.167 97.0219 149.922C91.797 149.922 86.7739 149.922 81.6499 149.922C81.6499 145.471 81.6499 141.053 81.6499 136.496C82.3998 136.564 83.1352 136.67 83.8706 136.689C90.3982 136.852 95.7097 134.377 99.7378 129.233C100.214 128.628 100.67 128.387 101.43 128.392C108.476 128.421 115.528 128.407 122.575 128.407C124.646 128.412 124.646 128.412 124.872 130.618Z" fill="white"/>
<path d="M99.0503 78.7769C99.1272 78.0703 99.132 77.6233 99.2282 77.1955C99.7858 74.7441 99.1368 72.5522 97.94 70.418C96.9017 68.5674 96.9642 68.0194 98.5793 66.712C100.728 64.9719 101.833 62.7512 102.314 60.0882C102.622 58.3866 103.098 57.9204 104.823 57.9685C107.76 58.055 110.188 57.0456 112.379 55.1613C113.509 54.1903 114.22 54.1903 115.374 55.1901C117.561 57.0936 120.013 58.0454 122.94 57.9685C124.622 57.9252 125.127 58.4251 125.415 60.1363C125.872 62.8665 127.098 65.068 129.261 66.8273C130.717 68.0098 130.804 68.6058 129.857 70.2497C128.549 72.5233 128.025 74.8546 128.497 77.4887C128.896 79.7383 128.631 80.1276 126.483 80.8967C124.007 81.7812 122.277 83.3866 120.984 85.6266C120.008 87.3089 119.426 87.5397 117.624 86.8523C115.062 85.8765 112.591 85.9054 110.039 86.8715C108.308 87.5252 107.678 87.2993 106.775 85.665C105.405 83.1751 103.4 81.5649 100.733 80.6948C99.6704 80.368 99.0215 79.6902 99.0503 78.7769ZM113.889 83.1559C120.7 83.1319 126.165 77.6522 126.165 70.841C126.16 63.9817 120.628 58.4972 113.754 58.5453C106.938 58.5933 101.492 64.1115 101.54 70.9179C101.588 77.7435 107.073 83.1799 113.889 83.1559Z" fill="#BE202E"/>
<path d="M123.978 124.47C116.907 124.47 109.73 124.47 102.693 124.47C103.063 121.821 103.429 119.231 103.804 116.558C110.918 116.558 118.186 116.558 125.391 116.558C124.925 119.178 124.458 121.788 123.978 124.47Z" fill="white"/>
<path d="M110.702 166.13C110.433 165.702 110.211 165.38 110.019 165.039C105.996 157.935 101.992 150.825 97.9349 143.74C97.435 142.87 97.512 142.433 98.4156 142C99.425 141.52 100.401 140.957 101.338 140.347C102.122 139.837 102.54 139.962 103.006 140.794C106.049 146.245 109.135 151.671 112.211 157.103C113.216 158.877 114.196 160.67 115.244 162.419C115.657 163.112 115.523 163.462 114.84 163.823C113.47 164.539 112.134 165.327 110.702 166.13ZM101.578 142.567C100.723 142.534 99.9153 143.284 99.9634 144.139C100.016 145.057 100.521 145.639 101.468 145.668C102.4 145.692 102.968 145.187 103.064 144.25C103.16 143.365 102.453 142.601 101.578 142.567Z" fill="#7D3939"/>
<path d="M162.153 137.025C169.219 128.286 167.363 117.856 161.701 111.852C155.765 105.555 146.324 104.123 138.811 108.42C131.87 112.39 127.063 121.245 130.654 131.478C129.654 131.44 129.102 131.079 128.804 130.065C125.011 116.991 135.576 103.834 149.218 104.68C163.749 105.579 172.502 120.942 165.835 133.829C164.864 135.698 164.662 135.881 162.153 137.025Z" fill="white"/>
<path d="M108.01 90.9812C107.255 92.5915 106.601 93.9951 105.962 95.3602C105.145 94.3364 104.563 93.0145 103.573 92.529C102.592 92.0531 101.198 92.4233 99.8862 92.4233C100.751 90.5679 101.665 88.6019 102.66 86.4581C103.977 88.674 105.284 90.6544 108.01 90.9812Z" fill="#F5CF6D"/>
<path d="M125.733 85.5833C126.511 87.3906 127.208 89.0153 127.934 90.6976C126.612 90.6207 125.242 90.1689 124.257 90.5967C123.252 91.0293 122.623 92.3319 121.757 93.3366C121.421 92.5867 121.051 91.7744 120.618 90.8178C123.243 90.068 124.137 87.6165 125.733 85.5833Z" fill="#F5CF6D"/>
<path d="M142.792 72.2733C141.725 72.2733 140.393 72.2733 138.985 72.2733C138.985 70.9034 138.985 69.5671 138.985 68.5288C140.177 69.7017 141.532 71.0379 142.792 72.2733Z" fill="white"/>
<path d="M149.546 144.447C149.647 142.611 150.959 143.356 151.786 143.168C151.084 143.572 150.382 143.971 149.546 144.447Z" fill="white"/>
<path d="M93.3445 108.857C92.9744 109.598 92.8062 110.093 92.513 110.506C88.4368 116.207 84.3463 121.898 80.2509 127.58C79.4193 128.738 78.3186 128.993 77.3669 128.325C76.4151 127.657 76.2901 126.503 77.1073 125.364C81.2123 119.634 85.3269 113.914 89.4414 108.194C90.0327 107.372 90.8306 106.815 91.792 107.295C92.4168 107.603 92.835 108.324 93.3445 108.857Z" fill="black"/>
<path d="M74.67 111.79C74.6508 109.031 76.8139 106.815 79.5633 106.781C82.2936 106.743 84.5431 108.954 84.5624 111.689C84.5816 114.424 82.3897 116.678 79.6691 116.717C76.9725 116.755 74.6893 114.51 74.67 111.79ZM81.14 111.761C80.4622 111.256 80.0488 110.713 79.6691 110.732C79.2749 110.756 78.9096 111.323 78.5347 111.655C78.8952 112.049 79.2076 112.665 79.6354 112.765C79.9623 112.847 80.4382 112.261 81.14 111.761Z" fill="black"/>
<path d="M89.9316 129.041C87.1773 129.041 84.9902 126.854 84.9902 124.095C84.9902 121.336 87.1725 119.149 89.9316 119.149C92.6762 119.149 94.8874 121.36 94.8874 124.095C94.8874 126.83 92.6714 129.041 89.9316 129.041ZM89.9556 122.557C89.4461 123.249 88.9077 123.662 88.9318 124.042C88.9558 124.436 89.5278 124.797 89.8595 125.176C90.2488 124.811 90.8593 124.499 90.9602 124.066C91.0323 123.739 90.4555 123.263 89.9556 122.557Z" fill="black"/>
<path d="M113.889 83.1557C107.073 83.1798 101.588 77.7433 101.54 70.9177C101.492 64.1113 106.938 58.5932 113.754 58.5451C120.623 58.497 126.161 63.9816 126.165 70.8408C126.165 77.652 120.705 83.1365 113.889 83.1557Z" fill="#5C0E15"/>
<path d="M114.222 83.834C107.222 83.8587 101.59 78.2724 101.54 71.2587C101.491 64.2648 107.084 58.5945 114.084 58.5451C121.138 58.4957 126.824 64.1314 126.829 71.1797C126.829 78.1786 121.222 83.8142 114.222 83.834Z" fill="#5C0E15"/>
<path d="M114.051 80.3305C109.11 80.3479 105.134 76.4047 105.099 71.4538C105.065 66.5169 109.012 62.5144 113.953 62.4795C118.933 62.4447 122.947 66.4228 122.95 71.398C122.95 76.3384 118.992 80.3165 114.051 80.3305Z" fill="#F5CF6D"/>
<g clip-path="url(#clip0_40_1962)">
<path d="M117.628 68.8996C117.628 69.5295 117.391 69.8794 116.919 70.0298C116.405 70.1931 115.995 69.9779 115.766 69.5139C115.406 68.7881 114.852 68.5418 114.118 68.674C113.706 68.7492 113.344 68.941 113.304 69.4336C113.264 69.9313 113.651 70.0868 114.011 70.2034C114.742 70.4393 115.516 70.5638 116.213 70.88C117.528 71.4814 118.122 72.8553 117.735 74.1825C117.458 75.1312 116.774 75.6471 115.935 76.0229C115.716 76.1215 115.501 76.3703 115.406 76.6036C115.211 77.0754 114.924 77.3605 114.428 77.3553C113.933 77.3502 113.649 77.0572 113.464 76.5829C113.372 76.347 113.172 76.0878 112.957 75.9841C112.038 75.5408 111.377 74.8772 111.1 73.8481C110.935 73.2337 111.175 72.736 111.699 72.5364C112.218 72.3394 112.71 72.5753 112.97 73.1482C113.424 74.1488 114.537 74.5039 115.471 73.9466C115.938 73.6666 115.99 73.1663 115.526 72.8656C115.202 72.6557 114.802 72.5598 114.428 72.4405C113.953 72.2876 113.451 72.2072 112.995 72.0128C111.939 71.5669 111.304 70.7452 111.287 69.5398C111.27 68.3215 111.859 67.4453 112.902 66.9165C113.207 66.761 113.394 66.6106 113.521 66.227C113.629 65.903 114.053 65.5686 114.395 65.4804C114.849 65.3638 115.271 65.6826 115.361 66.1855C115.439 66.6184 115.681 66.761 116.01 66.9295C116.854 67.352 117.421 68.0364 117.628 68.8996Z" fill="black"/>
</g>
<path d="M101.578 142.567C102.453 142.601 103.159 143.365 103.068 144.245C102.972 145.182 102.405 145.692 101.472 145.663C100.525 145.639 100.021 145.052 99.9678 144.134C99.9149 143.284 100.722 142.534 101.578 142.567Z" fill="black"/>
<path d="M81.14 111.761C80.4382 112.261 79.9575 112.847 79.6403 112.77C79.2077 112.669 78.9001 112.054 78.5396 111.66C78.9145 111.328 79.2798 110.756 79.6739 110.737C80.0489 110.713 80.4623 111.256 81.14 111.761Z" fill="#3A7C2F"/>
<path d="M89.9552 122.557C90.4551 123.268 91.0319 123.744 90.955 124.066C90.8541 124.499 90.2436 124.811 89.8543 125.177C89.5226 124.802 88.9554 124.441 88.9266 124.042C88.9025 123.662 89.4457 123.249 89.9552 122.557Z" fill="#3A7C2F"/>
<defs>
<clipPath id="clip0_40_1962">
<rect width="6.80047" height="11.9008" fill="white" transform="translate(111.05 65.4545)"/>
</clipPath>
</defs>
</svg>
