<svg width="90" height="90" viewBox="0 0 90 90" fill="none" xmlns="http://www.w3.org/2000/svg">
<path d="M26.1327 36.0872C25.1522 35.1032 24.1898 34.1336 23.1411 33.0777C22.5916 33.6595 22.0206 34.3131 21.4029 34.9165C20.6487 35.6527 19.8766 35.6563 19.126 34.9201C17.7362 33.559 16.332 32.2122 15.0068 30.7901C11.8321 27.3783 11.807 22.2787 15.075 18.946C20.5159 13.3902 26.0213 7.88834 31.5807 2.44752C34.9457 -0.845704 40.0705 -0.784651 43.4894 2.44393C44.8577 3.7368 46.1757 5.08712 47.5009 6.43027C48.3341 7.27423 48.3305 7.98171 47.4865 8.83285C46.9011 9.42542 46.2763 9.97848 45.7376 10.4848C51.2035 15.9508 56.5689 21.3162 62.0349 26.7822C62.4802 26.3368 63.0368 25.7766 63.6007 25.22C64.6134 24.218 65.2742 24.2036 66.2654 25.1876C67.4757 26.3871 68.6896 27.5866 69.8819 28.8077C73.4624 32.4708 73.4732 37.6818 69.8603 41.3233C64.5703 46.6528 59.2552 51.9572 53.9257 57.2472C50.3452 60.8026 45.1773 60.8241 41.5429 57.3369C40.2501 56.0944 38.9931 54.8087 37.7326 53.5302C36.8994 52.6826 36.8958 51.9608 37.7218 51.124C38.3107 50.5278 38.932 49.9712 39.4779 49.454C38.4185 48.391 37.4345 47.3998 36.1919 46.1501C36.0554 46.3763 35.9154 46.7677 35.6496 47.0407C28.0935 54.7584 20.5195 62.4581 12.9598 70.1687C10.7439 72.4312 8.11151 73.347 5.04095 72.4527C-0.266993 70.9049 -1.72506 64.2753 2.31874 60.1202C5.7197 56.6259 9.18531 53.1962 12.6222 49.7342C16.9784 45.3384 21.3383 40.9427 25.6981 36.5469C25.8669 36.3745 26.0249 36.1986 26.1327 36.0872ZM41.5465 47.0443C47.5799 41.0217 53.6456 34.9632 59.6395 28.9765C54.3028 23.6434 48.923 18.26 43.5864 12.9269C37.5889 18.9244 31.5268 24.9865 25.5114 30.9984C30.8516 36.3422 36.2386 41.7328 41.5465 47.0443ZM20.1424 31.7453C28.2407 23.6541 36.3319 15.5737 44.5237 7.39274C43.7228 6.62779 42.8214 5.79461 41.9523 4.93629C39.1763 2.18894 35.8723 2.18894 33.1034 4.95065C30.1585 7.88834 27.2208 10.8296 24.2795 13.7709C21.9308 16.1196 19.5642 18.4468 17.2442 20.8206C15.0319 23.0867 14.9134 26.3871 16.9892 28.682C18.0091 29.8096 19.1691 30.808 20.1424 31.7453ZM64.969 28.1828C56.9137 36.2524 48.8261 44.3508 40.681 52.5102C41.507 53.3111 42.412 54.1802 43.3027 55.0637C45.9961 57.7356 49.3432 57.75 52.0223 55.0852C54.5865 52.5318 57.1435 49.9676 59.7005 47.407C62.4263 44.6776 65.1665 41.959 67.8779 39.2117C70.0974 36.9599 70.3236 33.7098 68.334 31.4257C67.3069 30.2406 66.0679 29.2278 64.969 28.1828ZM28.2443 38.1307C28.1115 38.2564 27.9319 38.4072 27.7667 38.5724C21.7369 44.6381 15.7107 50.7074 9.6845 56.7731C7.85294 58.619 5.97828 60.4291 4.20058 62.3253C1.75491 64.9325 2.78561 68.9548 6.08602 69.7664C7.97145 70.2297 9.53007 69.5474 10.8624 68.1863C18.0415 60.8636 25.2348 53.5517 32.421 46.2326C33.0854 45.5575 33.7426 44.8751 34.3495 44.2467C32.2738 42.1709 30.2734 40.1634 28.2443 38.1307Z" fill="black"/>
<path d="M38.6985 76.9562C38.7811 75.9004 38.7811 74.8769 38.9463 73.8821C39.5927 69.9855 43.0583 66.8719 47.0015 66.8431C55.89 66.7749 64.7785 66.7641 73.6634 66.8467C78.0447 66.8862 81.6971 70.6643 81.8623 75.0493C81.8839 75.6741 81.8659 76.299 81.8659 76.949C84.8539 77.6063 87.0122 79.2403 88.2979 81.9661C89.2963 84.0886 89.088 86.3511 89.0126 88.5849C88.9874 89.2744 88.4452 89.6838 87.7449 89.7772C87.4504 89.8167 87.1487 89.7951 86.847 89.7951C69.1599 89.7951 51.4763 89.7951 33.7892 89.7951C31.9648 89.7951 31.5841 89.418 31.5985 87.5865C31.6056 86.5091 31.5302 85.4173 31.6954 84.3615C32.3347 80.3428 34.7911 77.9762 38.6985 76.9562ZM34.5182 86.8646C51.7636 86.8646 68.9408 86.8646 86.1719 86.8646C86.1719 86.3008 86.1862 85.798 86.1683 85.2952C86.0534 82.2247 83.6364 79.7682 80.5658 79.761C67.0769 79.7359 53.588 79.7467 40.0991 79.7539C38.6015 79.7539 37.2979 80.3213 36.2205 81.3628C34.6726 82.8567 34.3099 84.7386 34.5182 86.8646ZM78.9282 76.8305C79.3879 72.4527 76.9422 69.691 72.6758 69.6874C64.3044 69.6838 55.9295 69.6767 47.5582 69.691C43.6724 69.6982 41.0436 72.9483 41.769 76.8269C54.1303 76.8305 66.5023 76.8305 78.9282 76.8305Z" fill="black"/>
<path d="M41.5464 47.0442C36.2384 41.7291 30.8515 36.3422 25.5112 30.9983C31.5267 24.9829 37.5888 18.9244 43.5862 12.9269C48.9229 18.26 54.3027 23.6433 59.6394 28.9764C53.6455 34.9631 47.5798 41.0216 41.5464 47.0442Z" fill="#7D3939"/>
<path d="M20.1426 31.7453C19.1693 30.808 18.0094 29.8096 16.9894 28.682C14.9137 26.3871 15.0322 23.0867 17.2444 20.8206C19.5644 18.4468 21.9346 16.1196 24.2798 13.7709C27.221 10.8296 30.1587 7.88833 33.1 4.95064C35.8689 2.18894 39.1729 2.18894 41.949 4.93628C42.8181 5.79819 43.7195 6.62778 44.5203 7.39273C36.3322 15.5737 28.2374 23.6541 20.1426 31.7453Z" fill="#A76456"/>
<path d="M64.9689 28.1828C66.0679 29.2279 67.3033 30.2406 68.3376 31.4293C70.3272 33.7134 70.1009 36.9635 67.8815 39.2153C65.1701 41.9626 62.4335 44.6812 59.7041 47.4106C57.1471 49.9712 54.5901 52.5354 52.0259 55.0888C49.3468 57.7536 45.9997 57.7392 43.3062 55.0673C42.4156 54.1838 41.507 53.3147 40.6846 52.5139C48.8296 44.3508 56.9137 36.2525 64.9689 28.1828Z" fill="#A76456"/>
<path d="M28.2445 38.1307C30.2736 40.1634 32.274 42.1709 34.3533 44.2538C33.7428 44.8823 33.0892 45.5647 32.4248 46.2398C25.2386 53.5553 18.0452 60.8708 10.8662 68.1935C9.53386 69.551 7.97523 70.2369 6.0898 69.7736C2.78581 68.9584 1.75869 64.9361 4.20437 62.3324C5.98206 60.4362 7.85672 58.6262 9.68829 56.7803C15.7145 50.711 21.7407 44.6453 27.7705 38.5796C27.9321 38.4072 28.1081 38.2564 28.2445 38.1307Z" fill="#DEB854"/>
<path d="M34.5185 86.8646C34.3103 84.7386 34.673 82.8603 36.2244 81.3628C37.3018 80.3213 38.6054 79.7575 40.103 79.7539C53.5919 79.7431 67.0809 79.7323 80.5698 79.761C83.6404 79.7682 86.0573 82.2211 86.1722 85.2952C86.1902 85.798 86.1758 86.3044 86.1758 86.8646C68.9412 86.8646 51.764 86.8646 34.5185 86.8646Z" fill="#7D3939"/>
<path d="M78.9286 76.8305C66.5027 76.8305 54.1306 76.8305 41.7694 76.8305C41.044 72.9519 43.6728 69.7018 47.5586 69.6946C55.9299 69.6766 64.3048 69.6874 72.6761 69.691C76.9426 69.691 79.3883 72.4527 78.9286 76.8305Z" fill="#A76456"/>
</svg>
