<svg width="17" height="12" viewBox="0 0 17 12" fill="none" xmlns="http://www.w3.org/2000/svg">
<path d="M17 1.54967C17 4.50318 17 7.45709 17 10.4106C16.9867 10.4666 16.9722 10.5226 16.9609 10.5791C16.8249 11.2423 16.4419 11.6853 15.8149 11.907C15.6942 11.9499 15.5652 11.9698 15.4401 12C10.8124 12 6.18472 12 1.55663 12C1.51989 11.9885 1.48355 11.9722 1.44602 11.9662C0.665491 11.8383 0.0952367 11.2605 0.0276193 10.4559C-0.0177196 9.91709 0.00651322 9.37232 0.00612237 8.82993C0.00494981 6.48199 0.0041681 4.13364 0.00651322 1.7857C0.00729492 1.04424 0.322713 0.489536 0.984035 0.16053C1.12787 0.089404 1.28773 0.0528477 1.43977 0C6.14563 0 10.8515 0 15.557 0C15.5925 0.0127152 15.6273 0.0290066 15.6637 0.0381457C16.3399 0.208212 16.7635 0.640132 16.9441 1.32278C16.9644 1.39788 16.9816 1.47377 17 1.54967ZM1.10872 11.1457C1.32642 11.3146 1.55546 11.3325 1.79271 11.3325C6.26289 11.3313 10.7327 11.3317 15.2029 11.3313C15.2806 11.3313 15.3623 11.3416 15.4358 11.3225C15.5925 11.2824 15.7454 11.226 15.9291 11.1672C14.3188 9.29762 12.7432 7.46861 11.1607 5.63166C11.0993 5.68411 11.0497 5.72543 11.002 5.76834C10.266 6.42914 9.53081 7.09073 8.79483 7.75152C8.55563 7.96609 8.44307 7.9653 8.2066 7.75272C7.42724 7.05258 6.64788 6.35205 5.85328 5.63841C4.27345 7.47219 2.69753 9.30159 1.10872 11.1457ZM15.6406 0.727152C15.3701 0.617086 1.60705 0.619868 1.36121 0.728742C3.74189 2.87007 6.11515 5.00503 8.49935 7.14954C10.8855 5.00384 13.2584 2.86927 15.6406 0.727152ZM0.786264 1.0804C0.734672 1.31483 0.658064 1.50278 0.657674 1.69073C0.649857 4.55682 0.651811 7.42252 0.653765 10.2886C0.653765 10.3895 0.676825 10.4901 0.694805 10.6391C2.27307 8.80689 3.81693 7.01444 5.37409 5.20689C3.85211 3.83801 2.34498 2.48265 0.786264 1.0804ZM11.6367 5.19695C13.1943 7.0049 14.7331 8.79099 16.2722 10.5775C16.289 10.5715 16.3058 10.5652 16.3227 10.5592C16.3301 10.4166 16.3445 10.2739 16.3445 10.1313C16.3457 7.37205 16.3457 4.61285 16.3453 1.85364C16.3453 1.76106 16.3547 1.6653 16.3356 1.57669C16.3023 1.42609 16.2496 1.27987 16.1948 1.09788C14.6568 2.48066 13.1548 3.83166 11.6367 5.19695Z" fill="black"/>
</svg>
