<svg width="17" height="16" viewBox="0 0 17 16" fill="none" xmlns="http://www.w3.org/2000/svg">
<path d="M12.8968 15.999C11.6452 15.9857 10.4873 15.6244 9.40843 15.0678C5.59944 13.103 2.66184 10.3279 0.739435 6.64237C0.207961 5.62385 -0.104103 4.53522 0.0317502 3.38343C0.166466 2.24074 0.700214 1.32819 1.86548 0.8374C2.46914 0.583172 3.07792 0.336437 3.69636 0.115392C4.51262 -0.176837 5.3715 0.0982646 5.81999 0.801541C6.36567 1.65682 6.89714 2.52066 7.40986 3.3936C7.86574 4.17074 7.60881 5.08382 6.82723 5.58532C6.72548 5.65061 6.61862 5.70949 6.52255 5.78121C6.06839 6.12053 5.95186 6.67984 6.29632 7.1155C7.18875 8.24535 8.23976 9.2339 9.43856 10.0753C9.90239 10.4007 10.4953 10.292 10.8562 9.86492C10.9386 9.76751 11.0051 9.65832 11.0802 9.55556C11.59 8.85657 12.5473 8.60127 13.3385 9.00482C14.3031 9.49669 15.2529 10.0164 16.1903 10.5537C16.894 10.9568 17.1776 11.7633 16.8872 12.4971C16.6496 13.0971 16.379 13.6864 16.0982 14.2703C15.5821 15.3439 14.6226 15.823 13.4363 15.9771C13.3146 15.9932 13.1907 15.9932 13.0679 15.999C13.0105 16.0012 12.9537 15.999 12.8968 15.999ZM12.7007 14.7145C13.953 14.7359 14.5697 14.3725 15.0097 13.4343C15.2006 13.0275 15.3746 12.6133 15.5497 12.2001C15.694 11.8586 15.6412 11.7253 15.3035 11.5418C14.5089 11.1093 13.7137 10.6779 12.9184 10.2476C12.4967 10.0191 12.371 10.048 12.1062 10.4269C11.245 11.659 9.69833 11.9036 8.46087 10.9964C7.27458 10.1272 6.21902 9.13167 5.30102 8.01092C5.14698 7.82306 5.0134 7.61004 4.91904 7.39007C4.46885 6.34532 4.87925 5.25134 5.95413 4.58821C6.29575 4.37733 6.35032 4.22854 6.16843 3.92882C5.68527 3.13241 5.19756 2.33762 4.70645 1.54549C4.54502 1.28538 4.38927 1.23453 4.08801 1.348C3.56165 1.54656 3.04211 1.76172 2.51689 1.96243C1.77908 2.24395 1.47099 2.80593 1.39085 3.50385C1.28171 4.45012 1.56819 5.33216 2.0036 6.16014C3.76742 9.51435 6.45378 12.0443 9.90182 13.8683C10.813 14.35 11.7918 14.6829 12.7007 14.7145Z" fill="black"/>
</svg>
