<svg width="80" height="79" viewBox="0 0 80 79" fill="none" xmlns="http://www.w3.org/2000/svg">
<path d="M20.7673 69.3573C19.884 67.5268 18.602 66.1619 17.1 64.9948C15.9679 64.1146 14.7848 63.3014 13.6591 62.4117C11.4778 60.6928 9.9088 58.4892 8.92979 55.9189C6.2032 48.7565 3.5404 41.5717 0.874408 34.3869C0.561887 33.545 0.459839 32.6234 0.140941 31.7879C-0.637172 29.7565 1.96823 27.4381 3.99324 28.2481C4.89891 28.6084 5.83647 29.1665 6.45832 29.8936C7.37356 30.9683 8.10703 32.2311 8.76077 33.494C10.3808 36.6255 11.9147 39.805 13.4837 42.9621C13.5985 43.1949 13.7515 43.4117 13.8855 43.6349C16.1624 42.2318 17.776 42.4263 19.919 44.3461C22.2534 46.4381 24.5718 48.5428 26.9125 50.6252C27.6651 51.2949 28.44 51.9454 29.25 52.5482C32.7611 55.1536 34.3938 58.6774 34.6139 63.0017C34.7191 65.0809 35.1401 67.141 35.4111 69.1628C38.0612 69.5263 38.8967 70.483 38.8967 72.9736C38.8967 74.5681 38.9031 76.1626 38.8935 77.7539C38.8903 78.6947 38.5937 78.9976 37.6562 78.9976C31.731 79.0008 25.8091 79.0008 19.884 78.9976C18.956 78.9976 18.653 78.6851 18.6466 77.7475C18.6371 76.1817 18.6913 74.6096 18.6307 73.047C18.5765 71.3696 19.0867 70.0716 20.7673 69.3573ZM33.434 69.2457C33.1533 66.9018 32.7962 64.6217 32.624 62.3288C32.3656 58.8719 30.7839 56.2506 28.1243 54.0725C24.964 51.483 21.9696 48.6927 18.8826 46.0075C18.3469 45.542 17.7601 45.1051 17.1319 44.7894C16.3155 44.3812 15.5852 44.6331 15.0208 45.3506C14.5265 45.9788 14.4627 46.7314 14.772 47.3852C15.2759 48.4535 15.7893 49.5824 16.561 50.453C18.1778 52.2771 19.9637 53.9545 21.6857 55.6829C22.1386 56.139 22.3299 56.6364 21.8547 57.1467C21.386 57.6537 20.8566 57.5421 20.3846 57.0957C19.3418 56.1134 18.248 55.1727 17.2722 54.1267C16.1528 52.9245 15.0686 51.6776 14.0928 50.3605C13.1297 49.0594 12.5461 47.5829 12.7311 45.8927C12.7566 45.6568 12.6418 45.3793 12.527 45.1561C10.8113 41.7758 9.09561 38.3954 7.36081 35.0215C6.80273 33.9404 6.28293 32.8211 5.58454 31.8325C5.11257 31.166 4.41099 30.6143 3.70623 30.1838C3.40646 29.9988 2.79418 30.1583 2.40193 30.3369C1.93953 30.5473 1.9204 31.0353 2.0639 31.5168C2.31264 32.3555 2.47209 33.2261 2.77823 34.0425C5.38363 41.0519 7.99541 48.0581 10.6487 55.0483C11.5288 57.3667 12.9096 59.3726 14.8804 60.9256C15.7351 61.5985 16.6184 62.2331 17.4986 62.8773C19.6735 64.4654 21.5263 66.3278 22.6647 68.8216C22.7604 69.0288 23.1303 69.2234 23.3791 69.2297C25.2383 69.2648 27.0974 69.2489 28.9566 69.2489C30.465 69.2457 31.9766 69.2457 33.434 69.2457ZM20.576 77.0173C26.0929 77.0173 31.5174 77.0173 36.9833 77.0173C36.9833 75.4164 36.9992 73.8793 36.9769 72.3422C36.9674 71.5864 36.54 71.175 35.7619 71.1718C31.1124 71.1591 26.466 71.1623 21.8165 71.1718C21.0352 71.175 20.6015 71.5768 20.5855 72.3326C20.5568 73.8697 20.576 75.4068 20.576 77.0173Z" fill="black"/>
<path d="M59.0317 69.2585C60.9387 70.0717 61.4553 71.3664 61.3915 73.0406C61.331 74.6064 61.3852 76.1754 61.3756 77.7412C61.3692 78.6819 61.0663 78.9912 60.1415 78.9944C54.2163 79.0008 48.2944 78.9976 42.3692 78.9944C41.4317 78.9944 41.1351 78.6915 41.1319 77.7539C41.1255 76.0542 41.1287 74.3545 41.1287 72.6547C41.1319 70.5149 42.2066 69.3765 44.5378 69.2138C44.7769 67.7277 45.048 66.2034 45.268 64.6695C45.5136 62.9379 45.6061 61.1744 45.9632 59.4683C46.4862 56.9617 47.9468 54.9877 49.857 53.3231C53.3202 50.3031 56.7611 47.2608 60.2244 44.2441C61.3947 43.2268 62.6863 42.4136 64.3318 42.7835C64.9568 42.9238 65.5308 43.2842 66.2292 43.5903C67.0297 42.0724 67.9003 40.497 68.6975 38.8866C69.5904 37.0816 70.3622 35.2128 71.2965 33.427C71.9439 32.1897 72.6678 30.9555 73.5639 29.8968C74.1666 29.1857 75.0723 28.6148 75.9525 28.2768C77.5948 27.6486 79.5369 28.7392 79.9515 30.4517C80.0726 30.9555 79.9483 31.571 79.7792 32.0813C78.7301 35.2224 77.6777 38.3636 76.5392 41.476C74.8267 46.1574 73.0537 50.8166 71.2838 55.4788C70.0528 58.7189 68.0342 61.353 65.1769 63.3461C64.0894 64.1051 62.9829 64.8704 62.0357 65.7857C60.9834 66.8029 60.1032 68.002 59.0317 69.2585ZM46.5787 69.1947C46.5787 69.1947 46.6297 69.2329 46.6776 69.2329C50.0515 69.2393 53.4255 69.2489 56.7994 69.2234C57.0035 69.2234 57.265 68.9619 57.3957 68.7578C57.9124 67.9574 58.3333 67.0899 58.8946 66.3214C60.2626 64.4463 62.1314 63.1133 64.0097 61.8122C66.6055 60.0136 68.4265 57.6282 69.5362 54.6912C71.5102 49.4549 73.5001 44.2249 75.4295 38.9727C76.3415 36.4884 77.1611 33.9659 77.9551 31.4403C78.2453 30.5187 77.3779 29.7437 76.4691 30.0977C75.9461 30.3018 75.3944 30.6462 75.0595 31.0831C74.3388 32.0239 73.666 33.022 73.1206 34.0744C71.2009 37.7672 69.3449 41.492 67.4666 45.2103C67.3741 45.3921 67.2688 45.6121 67.2912 45.8003C67.5367 47.8317 66.7363 49.5569 65.483 50.9951C63.6206 53.1318 61.5765 55.1089 59.593 57.1403C59.1593 57.5836 58.6267 57.6314 58.1866 57.1626C57.7115 56.6556 57.8645 56.1453 58.3429 55.7021C59.0604 55.0324 59.8321 54.4074 60.4859 53.6803C61.8858 52.1272 63.2986 50.571 64.5518 48.9032C65.0429 48.2494 65.3012 47.3023 65.3586 46.4668C65.4543 45.0859 64.0926 44.2345 62.8362 44.8181C62.2685 45.0796 61.7487 45.4782 61.2736 45.8928C57.9666 48.766 54.6947 51.6776 51.3781 54.5445C49.6019 56.0784 48.1573 57.8451 47.7714 60.2017C47.2803 63.1739 46.9678 66.1843 46.5787 69.1947ZM59.408 77.0555C59.4239 76.8164 59.4526 76.5899 59.4558 76.3635C59.459 75.1421 59.4622 73.9208 59.4558 72.6994C59.4526 71.529 59.0987 71.1687 57.9443 71.1655C55.5015 71.1623 53.0555 71.1655 50.6128 71.1655C48.5399 71.1655 46.4703 71.1719 44.3974 71.1623C43.7341 71.1591 43.1282 71.3855 43.0963 72.0584C43.0134 73.7167 43.0708 75.3813 43.0708 77.0587C48.5527 77.0555 53.9421 77.0555 59.408 77.0555Z" fill="black"/>
<path d="M47.7779 43.9698C47.7333 44.4801 47.6918 44.7288 47.6918 44.9776C47.6855 46.2787 47.695 47.5798 47.6886 48.8809C47.6791 50.6922 46.6777 51.7031 44.8855 51.7095C43.6099 51.7159 42.3343 51.6936 41.0619 51.7159C40.0319 51.735 39.2283 51.3683 38.8073 50.4052C38.3832 49.4389 38.6734 48.6162 39.4037 47.8795C40.5102 46.7602 40.1371 45.07 38.7308 44.7001C37.9144 44.4833 37.0853 44.8117 36.6611 45.5165C36.2179 46.25 36.3454 47.0217 36.878 47.7328C37.2607 48.2431 37.6912 48.8235 37.7837 49.4198C37.9718 50.6444 37.0279 51.6617 35.7842 51.6967C34.2439 51.7414 32.7036 51.7446 31.1633 51.6936C29.7729 51.6489 28.7971 50.5391 28.762 49.0244C28.7333 47.7233 28.7556 46.4222 28.7556 45.1211C28.7556 44.8372 28.7556 44.5566 28.7556 44.04C26.3256 46.1096 24.0774 46.4062 22.1991 43.7275C21.2041 42.3084 21.5836 40.3376 22.8433 39.1385C24.3548 37.6971 25.9525 37.8023 28.6536 39.5882C28.6919 39.2629 28.7493 38.995 28.7524 38.7303C28.762 37.4834 28.7524 36.2333 28.7588 34.9865C28.7684 33.0284 29.7506 32.0271 31.6831 32.0239C36.0648 32.0175 40.4497 32.0175 44.8313 32.0239C46.7033 32.0271 47.6855 33.0157 47.6918 34.8717C47.6982 36.1728 47.6887 37.4739 47.6982 38.775C47.6982 39.0205 47.7492 39.2693 47.8066 39.7795C48.9674 38.4465 50.2526 37.8215 51.7578 38.2041C52.5104 38.3955 53.2917 38.8579 53.837 39.4128C55.0743 40.666 55.103 42.6942 54.0507 44.0974C53.2821 45.1211 52.2298 45.6281 50.9574 45.6281C49.7232 45.6313 48.7633 44.9903 47.7779 43.9698ZM40.3699 49.6558C40.7685 49.7291 40.9376 49.7897 41.1066 49.7897C42.3567 49.7961 43.6036 49.777 44.8536 49.8025C45.552 49.8152 45.7912 49.4963 45.7784 48.833C45.7529 47.5064 45.788 46.1766 45.7657 44.8468C45.7497 43.7785 46.0399 42.8856 47.0987 42.4487C48.1064 42.0341 48.9037 42.3881 49.7041 43.0865C50.1123 43.4436 50.7915 43.6509 51.34 43.6446C52.1437 43.6318 52.7177 42.9238 52.8389 42.1234C52.9537 41.374 52.5742 40.6246 51.8949 40.2547C51.1615 39.856 50.3164 39.9804 49.6467 40.6629C48.9005 41.4218 48.0554 41.7312 47.054 41.2815C46.091 40.8478 45.7497 40.0282 45.7625 39.011C45.7784 37.6556 45.7434 36.3003 45.7753 34.945C45.7944 34.2275 45.517 33.9405 44.7962 33.9437C40.4114 33.9596 36.0265 33.9596 31.6449 33.9437C30.9146 33.9405 30.6531 34.2594 30.6658 34.9578C30.6882 36.3386 30.6627 37.7226 30.6722 39.1034C30.6818 40.1335 30.2927 40.9243 29.3137 41.3198C28.3666 41.7025 27.5693 41.4091 26.8486 40.7171C26.5584 40.4364 26.1662 40.1877 25.7771 40.092C24.8778 39.8752 24.0646 40.3599 23.7266 41.2018C23.4077 41.999 23.682 42.8983 24.3899 43.3862C25.1489 43.9092 26.0609 43.8391 26.7785 43.1056C27.5279 42.3403 28.3602 42.0341 29.3647 42.4551C30.3916 42.8824 30.6882 43.7402 30.6722 44.783C30.6531 46.1383 30.6786 47.4937 30.6658 48.849C30.6595 49.5123 30.9273 49.8216 31.6193 49.8057C32.8662 49.7802 34.1163 49.8025 35.3664 49.7929C35.5322 49.7929 35.6981 49.7291 35.6981 49.7291C35.2707 48.664 34.684 47.6691 34.499 46.6071C34.2917 45.4017 34.9008 44.3302 35.8671 43.5425C37.2001 42.4551 39.2155 42.3817 40.4975 43.5234C41.097 44.0591 41.6232 44.8372 41.8496 45.6026C42.3088 47.1461 41.6774 48.4886 40.3699 49.6558Z" fill="black"/>
<path d="M27.3971 7.49098C26.3032 6.43223 25.5251 5.20447 25.9174 3.67695C26.1183 2.89565 26.5583 2.07927 27.1196 1.50206C28.3474 0.239221 30.4075 0.108473 31.7851 1.18954C32.4006 1.67426 32.9618 2.3886 33.217 3.11569C33.4625 3.81407 33.4434 4.71018 33.2425 5.43727C33.0384 6.18349 32.4739 6.82767 32.0051 7.62491C32.3464 7.64724 32.6206 7.68231 32.8949 7.67913C34.5691 7.65999 36.2401 7.61535 37.9143 7.60578C39.7576 7.59302 40.7748 8.60712 40.794 10.4535C40.8131 12.2585 40.7972 14.0667 40.8354 15.8716C40.8578 16.8985 40.5229 17.7085 39.5662 18.1486C38.5713 18.6078 37.7262 18.3144 36.9672 17.565C36.1891 16.7996 35.2324 16.7103 34.4447 17.2716C33.7272 17.7818 33.4625 18.7226 33.8101 19.539C34.2885 20.6615 35.6948 21.0442 36.6802 20.3075C36.8492 20.18 36.9927 20.0205 37.1426 19.8706C37.8123 19.2137 38.5872 19 39.4769 19.3381C40.3252 19.6601 40.8386 20.2916 40.8641 21.2004C40.9215 23.3243 40.9821 25.4513 40.9343 27.572C40.9024 28.972 39.7703 29.9223 38.2524 29.9638C36.6611 30.0052 35.0666 29.9988 33.4721 30.018C29.9674 30.0562 26.4627 30.0977 22.9548 30.1423C20.8883 30.1679 19.8997 29.2303 19.8774 27.1798C19.82 21.682 19.7658 16.1842 19.718 10.6863C19.702 8.81759 20.6396 7.84176 22.5211 7.78117C23.8477 7.73972 25.1775 7.74291 26.5041 7.72696C26.7561 7.72377 27.0112 7.72696 27.2631 7.72696C27.3078 7.64724 27.3524 7.5707 27.3971 7.49098ZM38.8264 16.6466C38.8678 16.1586 38.9061 15.9099 38.9061 15.6643C38.9029 14.0188 38.8933 12.3701 38.8806 10.7246C38.871 9.6276 38.7467 9.51279 37.6209 9.52874C35.8702 9.55425 34.1162 9.60527 32.3655 9.59571C30.8922 9.58933 29.8558 8.41259 30.1619 7.03176C30.2735 6.5279 30.6562 6.05593 31.0006 5.63817C31.7851 4.69423 31.7022 3.4601 30.7487 2.76809C29.9674 2.20364 28.8576 2.32801 28.2262 3.0551C27.5214 3.86829 27.5852 4.91746 28.4494 5.75617C29.1956 6.48007 29.4795 7.30601 29.0936 8.27547C28.7045 9.2513 27.92 9.64673 26.8836 9.64354C25.4486 9.64035 24.0167 9.68181 22.5817 9.685C21.9248 9.685 21.6186 9.93374 21.6282 10.6321C21.6951 16.181 21.7525 21.733 21.7908 27.2818C21.7972 27.977 22.097 28.2321 22.7539 28.2226C27.8531 28.1588 32.9491 28.0982 38.0483 28.0504C38.7467 28.044 39.0656 27.7697 39.0464 27.0458C39.005 25.2951 39.0018 23.5411 38.9731 21.7872C38.9699 21.5672 38.9061 21.3471 38.8359 20.9134C37.8952 21.9148 36.9576 22.5781 35.7203 22.6068C34.4798 22.6387 33.4306 22.1986 32.6238 21.2483C31.4407 19.8579 31.3673 17.7882 32.6015 16.4297C33.1404 15.8366 33.9345 15.3423 34.703 15.1158C36.2656 14.663 37.5827 15.3646 38.8264 16.6466Z" fill="black"/>
<path d="M48.1415 18.6876C46.681 18.6844 45.3097 18.3559 44.5316 17.0644C44.1043 16.3532 43.8141 15.438 43.8109 14.6152C43.8045 12.7784 45.2938 11.2509 47.0573 11.0563C48.3201 10.916 49.4203 11.2764 50.3196 12.1916C51.2093 13.0973 51.4613 14.2389 51.356 15.505C51.4294 15.5209 51.5059 15.5368 51.5793 15.5528C51.7674 15.4061 51.9747 15.2754 52.1437 15.1095C53.1355 14.1465 54.1113 13.1706 55.1063 12.2139C56.3755 10.9925 57.8073 10.9957 59.0383 12.249C62.9703 16.2416 66.896 20.2438 70.8152 24.2492C72.0047 25.4642 72.0143 26.9343 70.8088 28.1206C67.0777 31.7911 63.337 35.4457 59.5868 39.0971C58.4356 40.2164 56.9654 40.2037 55.8334 39.0748C54.5163 37.7641 53.2343 36.4151 51.9205 35.1013C51.187 34.3646 50.7852 33.5451 51.2125 32.5214C51.643 31.485 52.4754 31.1087 53.5756 31.1374C54.6407 31.1661 55.3965 30.4932 55.5113 29.5206C55.6325 28.5096 55.0616 27.6741 54.0826 27.435C53.1706 27.2117 52.217 27.7028 51.9077 28.5958C51.8057 28.8891 51.7993 29.2176 51.7865 29.5333C51.7419 30.5315 51.3114 31.2681 50.3642 31.6349C49.4426 31.992 48.6454 31.7433 47.9693 31.0576C46.6268 29.6959 45.2778 28.3406 43.9512 26.963C42.7681 25.7352 42.7904 24.2938 43.9958 23.0979C45.2045 21.9021 46.429 20.7221 47.6409 19.5326C47.8386 19.3381 48.0172 19.1245 48.2053 18.9204C48.1862 18.8406 48.1638 18.7641 48.1415 18.6876ZM52.8708 33.089C53.0239 33.3824 53.0526 33.4908 53.1227 33.561C54.478 34.9482 55.8334 36.3322 57.1919 37.7163C57.6128 38.1468 57.9795 37.9937 58.3558 37.627C62.0168 34.0394 65.6809 30.4517 69.3547 26.8801C69.8745 26.3762 69.8521 25.9872 69.3515 25.4801C65.4896 21.5672 61.6373 17.6416 57.801 13.7064C57.278 13.1674 56.8666 13.1451 56.3372 13.684C55.3167 14.73 54.2612 15.7409 53.212 16.7582C52.52 17.4279 51.7068 17.648 50.8011 17.2685C49.87 16.8762 49.4522 16.13 49.4363 15.1287C49.4299 14.7906 49.4171 14.4271 49.2991 14.1178C48.9707 13.2376 47.9948 12.772 47.086 13.008C46.2122 13.2376 45.635 14.0667 45.7051 14.9947C45.7817 15.9961 46.5215 16.7104 47.6377 16.7232C48.7347 16.7327 49.567 17.1026 49.9561 18.1678C50.3451 19.2361 49.9018 20.0556 49.1237 20.7891C47.8673 21.9722 46.6523 23.2 45.4054 24.3927C44.9493 24.8296 44.9015 25.2122 45.3607 25.6746C46.6714 26.9917 47.9661 28.3247 49.2768 29.6481C49.3789 29.7502 49.5319 29.8012 49.7679 29.9383C49.9178 27.1097 51.1487 25.3175 54.1272 25.5152C55.9928 25.6396 57.3705 27.1256 57.4087 28.9274C57.4247 29.731 57.2078 30.6335 56.8188 31.3351C56.0215 32.7606 54.5801 33.1432 52.8708 33.089Z" fill="black"/>
<path d="M33.4341 69.2456C31.9768 69.2456 30.4652 69.2456 28.9536 69.2456C27.0944 69.2456 25.2352 69.2616 23.3761 69.2265C23.1305 69.2233 22.7574 69.0256 22.6617 68.8183C21.5233 66.3214 19.6705 64.4622 17.4956 62.8741C16.6154 62.2331 15.7321 61.5985 14.8774 60.9224C12.9098 59.3694 11.5258 57.3635 10.6456 55.0451C7.99239 48.0548 5.38061 41.0454 2.77521 34.0392C2.47225 33.2229 2.30962 32.3523 2.06088 31.5136C1.91737 31.032 1.93651 30.5473 2.39891 30.3336C2.79115 30.1551 3.40344 29.9988 3.7032 30.1806C4.40797 30.6111 5.10955 31.1628 5.58152 31.8293C6.2799 32.8179 6.8029 33.934 7.35778 35.0183C9.09259 38.389 10.8083 41.7693 12.5239 45.1529C12.6387 45.3793 12.7535 45.6535 12.728 45.8895C12.5431 47.5797 13.1267 49.0562 14.0897 50.3573C15.0656 51.6775 16.1498 52.9244 17.2692 54.1235C18.245 55.1695 19.3356 56.1102 20.3816 57.0924C20.8536 57.5389 21.3829 57.6505 21.8517 57.1434C22.3269 56.63 22.1355 56.1325 21.6827 55.6797C19.9607 53.9513 18.1748 52.2739 16.558 50.4498C15.7863 49.5792 15.2728 48.4535 14.769 47.382C14.4597 46.725 14.5234 45.9756 15.0177 45.3474C15.5822 44.6299 16.3125 44.3779 17.1288 44.7861C17.7603 45.1018 18.347 45.5387 18.8796 46.0043C21.9633 48.6863 24.961 51.4766 28.1213 54.0693C30.7809 56.2473 32.3626 58.8687 32.6209 62.3256C32.7963 64.6216 33.1535 66.9017 33.4341 69.2456Z" fill="#F8D3AA"/>
<path d="M20.5761 77.0173C20.5761 75.41 20.5569 73.8697 20.5856 72.3326C20.5984 71.5768 21.0321 71.175 21.8166 71.1718C26.4661 71.1623 31.1125 71.1623 35.762 71.1718C36.5401 71.175 36.9675 71.5864 36.977 72.3422C36.9994 73.8793 36.9834 75.4196 36.9834 77.0173C31.5175 77.0173 26.093 77.0173 20.5761 77.0173ZM33.9889 76.7621C35.3793 76.7558 36.521 75.6013 36.5019 74.2173C36.4827 72.862 35.3634 71.7554 33.9985 71.7427C32.6049 71.7299 31.4441 72.8684 31.4409 74.246C31.4346 75.6269 32.5954 76.7685 33.9889 76.7621Z" fill="#D0C8C8"/>
<path d="M46.5791 69.1947C46.9682 66.1843 47.2807 63.177 47.7686 60.1953C48.1545 57.8387 49.5991 56.0752 51.3753 54.5381C54.6919 51.6744 57.9638 48.7628 61.2708 45.8864C61.7459 45.4718 62.2657 45.0732 62.8334 44.8117C64.0898 44.2313 65.4515 45.0795 65.3559 46.4604C65.2985 47.2959 65.0401 48.243 64.549 48.8968C63.2926 50.5646 61.8799 52.1176 60.4831 53.6739C59.8293 54.4009 59.0576 55.026 58.3401 55.6957C57.8649 56.139 57.7087 56.6492 58.1838 57.1562C58.6239 57.625 59.1597 57.5772 59.5902 57.1339C61.5705 55.1025 63.6147 53.1254 65.4802 50.9887C66.7335 49.5537 67.5339 47.8253 67.2884 45.7939C67.2661 45.6057 67.3713 45.3857 67.4638 45.2039C69.3389 41.4887 71.1981 37.764 73.1178 34.068C73.6632 33.0156 74.336 32.0175 75.0567 31.0767C75.3916 30.6398 75.9433 30.2954 76.4663 30.0913C77.3751 29.7405 78.2425 30.5123 77.9523 31.4339C77.1583 33.9595 76.3387 36.482 75.4267 38.9663C73.4973 44.2185 71.5074 49.4485 69.5334 54.6848C68.4237 57.625 66.6027 60.0072 64.0069 61.8058C62.1286 63.1069 60.2567 64.4399 58.8918 66.315C58.3337 67.0835 57.9128 67.951 57.393 68.7514C57.259 68.9555 57.0007 69.2138 56.7966 69.217C53.4227 69.2425 50.0487 69.2297 46.6748 69.2265C46.6301 69.2329 46.5791 69.1947 46.5791 69.1947Z" fill="#F8D3AA"/>
<path d="M59.4084 77.0555C53.9393 77.0555 48.5531 77.0555 43.0712 77.0555C43.0712 75.3749 43.017 73.7103 43.0967 72.0552C43.1286 71.3823 43.7345 71.1559 44.3978 71.1591C46.4707 71.1718 48.5403 71.1623 50.6132 71.1623C53.0559 71.1623 55.5019 71.1591 57.9447 71.1623C59.0959 71.1655 59.4499 71.5258 59.4562 72.6962C59.4594 73.9176 59.4594 75.1389 59.4562 76.3603C59.453 76.5931 59.4243 76.8195 59.4084 77.0555ZM46.0561 71.7459C44.6625 71.7459 43.5177 72.8875 43.5304 74.2747C43.54 75.6237 44.6625 76.7494 46.0179 76.7653C47.4178 76.7813 48.5786 75.6588 48.5946 74.2779C48.6041 72.9067 47.4433 71.7459 46.0561 71.7459Z" fill="#D0C8C8"/>
<path d="M40.3701 49.6557C41.6776 48.4886 42.309 47.146 41.853 45.5993C41.6266 44.834 41.1036 44.0559 40.5009 43.5201C39.2189 42.3785 37.2035 42.4518 35.8705 43.5392C34.9042 44.3269 34.2951 45.3952 34.5024 46.6039C34.6842 47.669 35.2741 48.6608 35.7015 49.7259C35.7015 49.7259 35.5356 49.7897 35.3698 49.7897C34.1197 49.7992 32.8728 49.7769 31.6228 49.8024C30.9339 49.8184 30.6629 49.5058 30.6692 48.8457C30.682 47.4904 30.6565 46.1351 30.6756 44.7798C30.6916 43.737 30.3918 42.8791 29.3681 42.4518C28.3604 42.034 27.5281 42.3402 26.7819 43.1024C26.0643 43.8326 25.1555 43.9028 24.3933 43.383C23.6854 42.8951 23.4111 41.9958 23.73 41.1985C24.068 40.3566 24.8812 39.8719 25.7805 40.0888C26.1664 40.1812 26.5586 40.4332 26.852 40.7138C27.5727 41.4058 28.37 41.6992 29.3171 41.3165C30.2993 40.9211 30.6852 40.1302 30.6756 39.1002C30.6661 37.7193 30.6884 36.3353 30.6692 34.9545C30.6597 34.2561 30.918 33.9404 31.6483 33.9404C36.0331 33.9563 40.418 33.9563 44.7996 33.9404C45.5204 33.9372 45.7946 34.2242 45.7787 34.9417C45.7468 36.2971 45.7818 37.6524 45.7659 39.0077C45.7531 40.025 46.0944 40.8477 47.0574 41.2783C48.0588 41.7279 48.9007 41.4186 49.6501 40.6596C50.3198 39.9803 51.1649 39.8528 51.8983 40.2514C52.5776 40.6213 52.9539 41.3707 52.8423 42.1201C52.7211 42.9206 52.1471 43.6285 51.3434 43.6413C50.7917 43.6509 50.1157 43.4404 49.7075 43.0832C48.9102 42.388 48.1098 42.0309 47.1021 42.4454C46.0402 42.8823 45.75 43.7752 45.7691 44.8435C45.7914 46.1702 45.7563 47.5 45.7818 48.8298C45.7946 49.4931 45.5586 49.8152 44.857 49.7992C43.6102 49.7737 42.3601 49.796 41.11 49.7865C40.9346 49.7865 40.7656 49.7291 40.3701 49.6557Z" fill="#F58484"/>
<path d="M38.8261 16.6465C37.5824 15.3646 36.2653 14.663 34.7059 15.1222C33.9374 15.3486 33.1433 15.8429 32.6044 16.4361C31.3702 17.7946 31.4436 19.8642 32.6267 21.2546C33.4335 22.205 34.4827 22.645 35.7232 22.6131C36.9573 22.5813 37.8981 21.9211 38.8388 20.9198C38.909 21.3535 38.9728 21.5735 38.976 21.7936C39.0047 23.5475 39.0047 25.2983 39.0493 27.0522C39.0653 27.7761 38.7464 28.0504 38.0512 28.0567C32.952 28.1046 27.856 28.1652 22.7568 28.2289C22.0999 28.2385 21.7969 27.9834 21.7937 27.2882C21.7554 21.7394 21.7012 16.1873 21.6311 10.6385C21.6215 9.94011 21.9277 9.69137 22.5846 9.69137C24.0196 9.68818 25.4515 9.64672 26.8865 9.64991C27.9229 9.6531 28.7106 9.25767 29.0965 8.28184C29.4824 7.31239 29.2017 6.48325 28.4523 5.76254C27.5881 4.92384 27.5243 3.87466 28.2291 3.06147C28.8605 2.33438 29.9703 2.20682 30.7516 2.77446C31.7051 3.46647 31.788 4.69742 31.0035 5.64455C30.6591 6.05911 30.2764 6.53427 30.1648 7.03813C29.8587 8.41896 30.8951 9.5957 32.3684 9.60208C34.1191 9.60846 35.8731 9.56062 37.6238 9.53511C38.7496 9.51916 38.8771 9.63397 38.8835 10.731C38.8962 12.3765 38.9058 14.0252 38.909 15.6707C38.9058 15.9131 38.8675 16.1586 38.8261 16.6465Z" fill="#ECAC76"/>
<path d="M52.8708 33.089C54.5801 33.1432 56.0215 32.7605 56.8156 31.3255C57.2047 30.6207 57.4215 29.7214 57.4056 28.9178C57.3673 27.116 55.9897 25.63 54.1241 25.5056C51.1456 25.3079 49.9146 27.1001 49.7648 29.9287C49.5288 29.7916 49.3757 29.7406 49.2736 29.6385C47.9662 28.3183 46.6714 26.9821 45.3576 25.665C44.8984 25.2026 44.943 24.82 45.4022 24.3831C46.6523 23.1904 47.8673 21.9626 49.1206 20.7795C49.8987 20.0461 50.342 19.2265 49.9529 18.1582C49.5638 17.093 48.7347 16.7231 47.6345 16.7136C46.5215 16.704 45.7785 15.9865 45.702 14.9851C45.6318 14.0571 46.209 13.228 47.0828 12.9984C47.9917 12.7592 48.9675 13.2248 49.296 14.1082C49.4108 14.4207 49.4267 14.781 49.4331 15.1191C49.449 16.1204 49.8636 16.8666 50.798 17.2589C51.7037 17.6416 52.5168 17.4215 53.2089 16.7486C54.258 15.7314 55.3136 14.7204 56.3341 13.6745C56.8634 13.1323 57.2748 13.1578 57.7978 13.6968C61.6342 17.632 65.4865 21.5576 69.3483 25.4705C69.849 25.9776 69.8681 26.3666 69.3515 26.8705C65.6778 30.4421 62.0136 34.0298 58.3527 37.6174C57.9796 37.9841 57.6128 38.1372 57.1887 37.7067C55.8302 36.3226 54.4717 34.9386 53.1196 33.5514C53.0526 33.4908 53.0239 33.3824 52.8708 33.089Z" fill="#FFF171"/>
<path d="M33.9889 76.7622C32.5953 76.7686 31.4377 75.6237 31.4409 74.2493C31.4441 72.8716 32.6081 71.7331 33.9985 71.7459C35.3634 71.7555 36.4827 72.8652 36.5018 74.2206C36.521 75.6014 35.3793 76.759 33.9889 76.7622ZM34.8723 74.2652C34.429 73.9814 34.193 73.7135 33.9602 73.7167C33.7625 73.7199 33.3926 74.0739 33.4181 74.2046C33.4659 74.4406 33.737 74.7627 33.9538 74.7946C34.1643 74.8296 34.4226 74.5426 34.8723 74.2652Z" fill="black"/>
<path d="M46.0563 71.7458C47.4435 71.7458 48.6075 72.9066 48.5915 74.2747C48.5756 75.6587 47.4148 76.7781 46.0148 76.7621C44.6595 76.7462 43.5402 75.6237 43.5274 74.2715C43.5178 72.8875 44.6595 71.7458 46.0563 71.7458ZM46.9428 74.2588C46.5027 73.9813 46.2667 73.7135 46.0339 73.7166C45.8394 73.7198 45.4663 74.0802 45.4982 74.2077C45.5524 74.4469 45.8235 74.7626 46.0403 74.7945C46.2508 74.8296 46.5059 74.5362 46.9428 74.2588Z" fill="black"/>
<path d="M34.8718 74.2652C34.4221 74.5426 34.1638 74.8296 33.9533 74.7977C33.7365 74.7626 33.4654 74.4437 33.4176 74.2078C33.3889 74.077 33.762 73.723 33.9597 73.7198C34.1925 73.7135 34.4285 73.9813 34.8718 74.2652Z" fill="white"/>
<path d="M46.9428 74.2588C46.5027 74.5394 46.2476 74.8296 46.0403 74.7977C45.8234 74.7658 45.5524 74.4469 45.4982 74.2109C45.4695 74.0834 45.8394 73.723 46.0339 73.7198C46.2667 73.7135 46.5059 73.9781 46.9428 74.2588Z" fill="white"/>
</svg>
