<svg width="76" height="75" viewBox="0 0 76 75" fill="none" xmlns="http://www.w3.org/2000/svg">
<path d="M63.025 39.6711C64.0268 41.0313 63.8369 42.5447 63.8737 44.1041C64.2076 44.1041 64.4803 44.1041 64.756 44.1041C67.4612 44.1041 70.1664 44.1011 72.8715 44.1041C74.9487 44.1072 75.9934 45.1396 75.9934 47.1953C75.9964 49.3399 75.975 51.4844 75.9995 53.6259C76.0179 55.1056 75.5277 56.3586 74.5749 57.4768C74.3574 57.7342 74.2257 58.1508 74.2226 58.494C74.1981 62.2959 74.1338 66.1009 74.2318 69.9029C74.3053 72.6877 72.2711 74.5749 69.5536 74.5504C59.7286 74.4708 49.9005 74.4738 40.0754 74.5474C37.4315 74.5657 35.2992 72.749 35.431 69.8661C35.4831 68.7479 35.4402 67.6236 35.4402 66.3828C35.1216 66.3828 34.855 66.3828 34.5854 66.3828C32.7718 66.3828 30.9612 66.3644 29.1475 66.392C28.3755 66.4042 27.9006 66.0856 27.6371 65.3687C27.1592 64.0789 26.6843 62.7861 26.1451 61.5208C26.0103 61.2022 25.6672 60.8897 25.3425 60.7488C23.3358 59.8818 21.2985 59.0852 19.2949 58.209C18.8752 58.0252 18.5749 58.0007 18.1705 58.1907C16.9236 58.7758 15.6522 59.3028 14.4053 59.8818C13.7099 60.2035 13.1462 60.0962 12.607 59.554C10.6861 57.6116 8.75294 55.6846 6.81673 53.7576C6.29898 53.2429 6.19788 52.6976 6.51037 52.0236C7.10165 50.7522 7.68068 49.4747 8.20456 48.1757C8.32404 47.8785 8.29034 47.4465 8.16779 47.1402C7.35287 45.0845 6.50731 43.041 5.63724 41.0068C5.51469 40.7219 5.24816 40.4125 4.97243 40.296C3.70715 39.7599 2.42043 39.2667 1.12758 38.7979C0.35555 38.5191 -0.00902143 38.0443 0.000169441 37.1987C0.0277421 34.518 0.0246784 31.8374 0.000169441 29.1598C-0.00595781 28.354 0.324914 27.8761 1.07244 27.6034C2.36529 27.1316 3.65201 26.6445 4.91729 26.1053C5.21446 25.9797 5.50857 25.6611 5.6403 25.3578C6.5165 23.3266 7.36206 21.2832 8.17698 19.2275C8.29646 18.9211 8.31485 18.4892 8.19536 18.192C7.66842 16.893 7.0894 15.6155 6.50118 14.3441C6.19175 13.6731 6.30817 13.1278 6.82592 12.6162C8.7652 10.6922 10.6983 8.76521 12.6192 6.82287C13.1646 6.27142 13.7344 6.19483 14.4206 6.51038C15.6951 7.09554 16.9696 7.67456 18.2686 8.20457C18.5443 8.31792 18.9456 8.28729 19.2305 8.17087C21.3077 7.34063 23.3756 6.48587 25.4313 5.60661C25.6948 5.49326 25.9858 5.24511 26.0931 4.99083C26.6323 3.69798 27.1286 2.38674 27.6126 1.07245C27.8853 0.331053 28.3571 -0.00900959 29.1689 0.00018128C31.8741 0.0277539 34.5793 0.0216267 37.2845 0.0032449C38.0565 -0.00288234 38.5191 0.315735 38.7856 1.03569C39.2697 2.34998 39.766 3.66121 40.3113 4.951C40.4278 5.22672 40.7341 5.4902 41.019 5.61274C43.0747 6.49813 45.1427 7.35288 47.2167 8.18925C47.4833 8.29648 47.8601 8.33324 48.1144 8.22908C49.3858 7.70826 50.648 7.15374 51.8888 6.5594C52.6639 6.1887 53.2643 6.27755 53.8771 6.90253C55.7336 8.80197 57.6116 10.6769 59.508 12.5335C60.1054 13.1186 60.2157 13.713 59.8695 14.4605C59.2997 15.6859 58.736 16.9145 58.2366 18.1675C58.1079 18.4892 58.1324 18.9487 58.2611 19.2765C59.0668 21.3077 59.9063 23.3266 60.7733 25.3364C60.905 25.6397 61.1838 25.9736 61.4779 26.0992C62.7401 26.6415 64.0299 27.1286 65.3228 27.5973C66.0703 27.87 66.4103 28.3418 66.4042 29.1475C66.3828 31.8527 66.3858 34.5579 66.4042 37.263C66.4103 38.029 66.0979 38.5161 65.3748 38.7704C64.6304 39.0369 63.9012 39.3341 63.025 39.6711ZM33.6571 53.7637C27.5697 53.7484 22.3738 51.6498 18.2318 47.226C14.0653 42.7776 12.2393 37.4377 12.7479 31.3748C13.5965 21.2771 21.8928 13.0328 32.5113 12.6621C37.7164 12.4814 42.413 14.0408 46.3589 17.4475C52.6087 22.8426 54.7533 29.7357 53.2919 37.8543C53.6718 37.8543 53.9506 37.8543 54.2263 37.8543C56.04 37.8574 57.8506 37.8605 59.6642 37.8605C60.0901 37.8605 60.5466 37.937 60.9387 37.8176C61.7904 37.5572 62.6237 37.2232 63.4294 36.8495C63.6562 36.7422 63.9104 36.393 63.9166 36.151C63.9564 34.1872 63.9258 32.2203 63.9503 30.2565C63.9564 29.8184 63.7879 29.6285 63.3988 29.4845C62.1795 29.0372 60.9785 28.5378 59.7531 28.0997C59.1097 27.87 58.7605 27.4625 58.6012 26.8069C57.9823 24.2886 56.9989 21.9174 55.6478 19.7054C55.3108 19.1509 55.2925 18.6362 55.5712 18.0449C56.135 16.8471 56.6742 15.6339 57.1674 14.4053C57.2593 14.1756 57.195 13.7405 57.0295 13.5659C55.6693 12.1475 54.257 10.7811 52.8844 9.37181C52.575 9.05319 52.3238 9.05013 51.95 9.22475C50.7491 9.78233 49.5237 10.294 48.3227 10.8485C47.7621 11.1058 47.2627 11.0966 46.7327 10.7719C44.4962 9.40857 42.1066 8.4037 39.5607 7.79404C38.899 7.63473 38.5161 7.24872 38.2893 6.61148C37.8604 5.41054 37.3672 4.23717 36.9322 3.0393C36.782 2.62571 36.5829 2.44495 36.1142 2.45414C34.1749 2.48172 32.2356 2.47559 30.2963 2.45721C29.8766 2.45414 29.6622 2.57975 29.5151 2.98722C29.0648 4.23411 28.5531 5.4565 28.0967 6.70033C27.8822 7.28242 27.5207 7.62554 26.9172 7.77566C24.3744 8.40064 21.9786 9.38406 19.7422 10.7504C19.1907 11.0874 18.6699 11.1242 18.0817 10.8454C16.9543 10.3123 15.7932 9.84667 14.6688 9.30441C14.1664 9.05932 13.8324 9.06851 13.4158 9.50354C12.1321 10.8515 10.8056 12.1628 9.46677 13.4587C9.12058 13.7926 9.04092 14.0592 9.25538 14.5034C9.80683 15.6522 10.2817 16.8348 10.827 17.9867C11.1303 18.624 11.0997 19.1846 10.732 19.7881C9.3963 21.9786 8.42207 24.3284 7.8216 26.8253C7.65923 27.4809 7.2916 27.8792 6.64823 28.1089C5.42585 28.544 4.22491 29.0433 3.00558 29.4937C2.62263 29.6346 2.44801 29.8123 2.45413 30.2596C2.48171 32.2234 2.45107 34.1902 2.48783 36.154C2.49396 36.393 2.74518 36.7484 2.96882 36.8464C4.18508 37.3672 5.42278 37.8451 6.66968 38.2924C7.2824 38.513 7.65004 38.8898 7.80016 39.5148C8.40982 42.0637 9.41469 44.4503 10.7688 46.6898C11.1089 47.2535 11.1089 47.7743 10.8393 48.3534C10.2848 49.5574 9.7333 50.7644 9.237 51.9899C9.14509 52.2166 9.22168 52.6424 9.38711 52.8171C10.7504 54.2325 12.1628 55.6019 13.5322 57.0081C13.8416 57.3237 14.0867 57.342 14.4605 57.1674C15.545 56.6589 16.6632 56.2238 17.7324 55.6846C18.5443 55.2741 19.2122 55.3599 20.024 55.7796C21.6692 56.6313 23.3297 57.6086 25.1066 58.0222C27.2174 58.5154 28.3846 59.5662 28.8534 61.625C29.0311 62.4062 29.2639 63.4172 29.8245 63.7971C30.3913 64.1801 31.3993 63.9166 32.2111 63.9227C33.2711 63.9319 34.3342 63.9258 35.434 63.9258C35.434 61.9222 35.4371 60.035 35.4279 58.1478C35.4279 57.9823 35.382 57.771 35.2747 57.6607C34.2392 56.5884 33.6817 55.317 33.6571 53.7637ZM50.6112 37.8421C52.4586 32.0304 50.7675 23.3971 43.5373 18.3544C36.5768 13.5046 27.1929 14.1388 21.0074 19.8494C14.6719 25.6979 13.281 34.95 17.6191 42.3609C21.6569 49.2571 29.2547 51.7172 33.6541 51.1474C33.6633 51.0984 33.6817 51.0463 33.6817 50.9973C33.6847 49.6952 33.6847 48.3932 33.6908 47.0912C33.7 45.1641 34.7478 44.1072 36.6717 44.1041C39.429 44.098 42.1832 44.1011 44.9405 44.1011C45.2131 44.1011 45.4858 44.1011 45.8105 44.1011C45.8412 42.5141 45.6482 40.9792 46.6347 39.668C47.6395 38.3353 48.9936 37.7839 50.6112 37.8421ZM37.9523 59.5509C37.9278 59.8573 37.9003 60.0534 37.9003 60.2494C37.8972 63.4907 37.8941 66.732 37.9003 69.9734C37.9033 71.4623 38.5038 72.0566 39.9958 72.0566C49.8729 72.0597 59.7531 72.0597 69.6302 72.0566C71.1927 72.0566 71.7441 71.5052 71.7472 69.9335C71.7533 66.7167 71.7502 63.4999 71.7472 60.2862C71.7472 60.0656 71.7227 59.845 71.7074 59.5724C70.8771 59.8542 70.1204 60.1514 69.3422 60.372C66.4594 61.1869 63.503 61.5821 60.5221 61.7874C60.0411 61.8211 59.7071 61.8548 59.557 62.4828C59.0301 64.661 57.0632 66.153 54.8574 66.1683C52.6332 66.1806 50.6848 64.6794 50.1057 62.4522C49.9893 62.0018 49.7902 61.8364 49.3398 61.8027C45.4889 61.5392 41.6746 61.0613 37.9523 59.5509ZM43.2034 46.5642C40.9455 46.5642 38.7795 46.5703 36.6166 46.5611C36.0989 46.5581 36.1448 46.9043 36.1448 47.2382C36.1448 49.202 36.2337 51.175 36.1172 53.1326C36.0131 54.8758 36.7912 56.0063 38.1882 56.8335C38.7336 57.1552 39.3126 57.4401 39.91 57.6515C43.1391 58.8003 46.509 59.1496 49.8974 59.3824C50.0782 59.3947 50.3661 59.2047 50.455 59.0301C52.3759 55.3997 57.4554 55.559 59.217 59.0515C59.3027 59.22 59.6122 59.4008 59.7899 59.3763C62.6145 58.9811 65.4422 58.6073 68.2485 58.111C69.7344 57.8475 71.1253 57.244 72.3017 56.2391C73.1227 55.5376 73.5731 54.692 73.5455 53.5738C73.5057 51.9654 73.5425 50.357 73.5302 48.7516C73.5241 48.0685 73.7416 47.1003 73.3862 46.7787C72.9788 46.408 72.0505 46.5795 71.3489 46.5703C69.7497 46.5489 68.1505 46.5642 66.4747 46.5642C66.4747 47.7223 66.4777 48.7884 66.4747 49.8545C66.4655 52.0052 65.2125 53.2644 63.0465 53.2889C61.9497 53.3011 60.8529 53.2919 59.7531 53.2919C55.3874 53.2919 51.0248 53.2981 46.6592 53.2889C44.4319 53.2827 43.2003 52.042 43.1973 49.827C43.2003 48.7792 43.2034 47.7345 43.2034 46.5642ZM45.6574 46.6071C45.6574 47.6395 45.6574 48.6291 45.6574 49.6156C45.6574 50.7246 45.7585 50.8257 46.892 50.8257C52.1982 50.8257 57.5044 50.8257 62.8106 50.8257C62.9883 50.8257 63.2089 50.8839 63.3375 50.8012C63.5888 50.6388 63.9686 50.4091 63.9809 50.1885C64.0452 49.0029 64.0115 47.8111 64.0115 46.6071C57.8536 46.6071 51.7938 46.6071 45.6574 46.6071ZM52.3973 61.2849C52.4065 62.6084 53.5156 63.7113 54.836 63.7113C56.1441 63.7083 57.2716 62.587 57.2808 61.2788C57.2899 59.9308 56.1595 58.8218 54.79 58.8371C53.4482 58.8555 52.3881 59.94 52.3973 61.2849ZM51.0585 44.0428C53.6044 44.0428 56.0859 44.0428 58.5736 44.0428C58.5736 43.6936 58.5736 43.4056 58.5736 43.1391C56.0277 43.1391 53.5462 43.1391 51.0585 43.1391C51.0585 43.4577 51.0585 43.7089 51.0585 44.0428ZM61.0919 44C61.193 44.003 61.2972 44.0061 61.3983 44.0091C61.3983 43.4485 61.4197 42.8848 61.3952 42.3242C61.34 41.0313 60.6048 40.3205 59.2997 40.3144C56.3188 40.3052 53.3379 40.3175 50.357 40.3083C49.5482 40.3052 48.8925 40.581 48.5249 41.3162C48.0838 42.2016 48.3135 43.1238 48.4391 44.0337C48.5831 43.4822 48.5709 42.9277 48.5831 42.3732C48.6107 41.2335 49.2081 40.6238 50.3447 40.6208C53.3256 40.6116 56.3065 40.6116 59.2874 40.6208C60.4639 40.6238 61.0551 41.2182 61.0919 42.413C61.1042 42.943 61.0919 43.473 61.0919 44Z" fill="black"/>
<path d="M33.657 53.7637C33.6815 55.317 34.2422 56.5914 35.2807 57.6606C35.388 57.7709 35.4308 57.9823 35.4339 58.1478C35.4431 60.035 35.44 61.9221 35.44 63.9258C34.3402 63.9258 33.2802 63.9319 32.2171 63.9227C31.4022 63.9166 30.3942 64.18 29.8305 63.7971C29.2668 63.4172 29.0371 62.4062 28.8594 61.625C28.3906 59.5662 27.2234 58.5154 25.1126 58.0222C23.3387 57.6086 21.6782 56.6313 20.03 55.7796C19.2181 55.3599 18.5533 55.2741 17.7384 55.6846C16.6692 56.2238 15.551 56.6588 14.4665 57.1674C14.0896 57.3451 13.8445 57.3267 13.5382 57.0081C12.1687 55.5988 10.7564 54.2324 9.3931 52.8171C9.22766 52.6455 9.15107 52.2166 9.24298 51.9899C9.73929 50.7614 10.2907 49.5543 10.8453 48.3534C11.1118 47.7743 11.1149 47.2504 10.7748 46.6898C9.42067 44.4503 8.41274 42.0637 7.80614 39.5148C7.65602 38.8868 7.28533 38.513 6.67566 38.2924C5.42877 37.8421 4.19106 37.3672 2.97481 36.8464C2.75116 36.7514 2.49994 36.396 2.49382 36.154C2.45399 34.1902 2.48769 32.2234 2.46012 30.2596C2.45399 29.8123 2.62862 29.6346 3.01157 29.4937C4.23089 29.0464 5.43183 28.547 6.65422 28.1089C7.29145 27.8792 7.65909 27.4809 7.81533 26.8253C8.4158 24.3284 9.39003 21.9817 10.7258 19.7881C11.0934 19.1815 11.124 18.6239 10.8207 17.9867C10.2754 16.8348 9.7975 15.6522 9.24911 14.5034C9.03466 14.0561 9.11431 13.7926 9.4605 13.4587C10.7993 12.1628 12.1259 10.8546 13.4095 9.50353C13.8262 9.06543 14.157 9.05931 14.6625 9.3044C15.7869 9.84666 16.948 10.3123 18.0754 10.8454C18.6667 11.1242 19.1875 11.0874 19.7359 10.7504C21.9723 9.38712 24.3681 8.40369 26.9109 7.77565C27.5144 7.62859 27.8759 7.2824 28.0904 6.70032C28.5469 5.45648 29.0585 4.2341 29.5089 2.9872C29.6559 2.57668 29.8704 2.45107 30.2901 2.4572C32.2294 2.47864 34.1686 2.48171 36.1079 2.45413C36.5766 2.44801 36.7758 2.6257 36.9259 3.03928C37.3609 4.23716 37.8542 5.41359 38.2831 6.61147C38.5098 7.2487 38.8897 7.63472 39.5545 7.79403C42.1034 8.40369 44.493 9.40856 46.7264 10.7719C47.2595 11.0966 47.7589 11.1089 48.3164 10.8485C49.5205 10.2939 50.7428 9.78232 51.9438 9.22474C52.3175 9.05012 52.5688 9.05624 52.8782 9.3718C54.2507 10.778 55.663 12.1474 57.0233 13.5659C57.1887 13.7375 57.253 14.1725 57.1611 14.4053C56.6679 15.6338 56.1318 16.847 55.565 18.0449C55.2862 18.6362 55.3046 19.1509 55.6416 19.7054C56.9957 21.9173 57.9761 24.2886 58.5949 26.8069C58.7573 27.4625 59.1035 27.87 59.7468 28.0997C60.9692 28.5348 62.1702 29.0372 63.3925 29.4845C63.7816 29.6254 63.9471 29.8184 63.944 30.2565C63.9195 32.2203 63.9501 34.1872 63.9103 36.1509C63.9042 36.393 63.653 36.7422 63.4232 36.8494C62.6174 37.2232 61.7841 37.5571 60.9325 37.8176C60.5403 37.937 60.0869 37.8604 59.658 37.8604C57.8443 37.8604 56.0337 37.8543 54.2201 37.8543C53.9413 37.8543 53.6655 37.8543 53.2856 37.8543C54.7501 29.7326 52.6025 22.8426 46.3527 17.4475C42.4067 14.0408 37.7102 12.4814 32.5051 12.6621C21.8866 13.0328 13.5903 21.274 12.7416 31.3748C12.2331 37.4377 14.059 42.7776 18.2255 47.2259C22.3737 51.6467 27.5665 53.7484 33.657 53.7637Z" fill="#FBE187"/>
<path d="M50.6111 37.8421C48.9935 37.7808 47.6394 38.3323 46.6345 39.668C45.648 40.9792 45.8411 42.5141 45.8104 44.1011C45.4857 44.1011 45.213 44.1011 44.9403 44.1011C42.1831 44.1011 39.4289 44.095 36.6716 44.1041C34.7477 44.1103 33.6999 45.1642 33.6907 47.0912C33.6846 48.3932 33.6846 49.6953 33.6815 50.9973C33.6815 51.0463 33.6631 51.0984 33.654 51.1474C29.2577 51.7173 21.6568 49.2602 17.6189 42.364C13.2809 34.9562 14.6748 25.704 21.0073 19.8525C27.1928 14.1388 36.5767 13.5077 43.5372 18.3574C50.7674 23.3971 52.4585 32.0335 50.6111 37.8421ZM30.1798 32.6401C29.2546 31.6628 28.4152 30.661 27.4562 29.7909C25.6548 28.158 22.9221 28.2407 21.2003 29.9012C19.4541 31.5831 19.1783 34.3434 20.8112 36.1295C22.8057 38.3108 24.892 40.4278 27.107 42.3824C29.3342 44.3431 31.8342 44.098 33.9327 41.9994C37.6152 38.32 41.2977 34.6375 44.9771 30.9551C45.2099 30.7222 45.4458 30.4833 45.648 30.2229C46.8643 28.6727 46.9654 26.4975 45.9085 24.8493C44.8638 23.2164 42.9092 22.429 40.9883 22.8457C39.9773 23.0662 39.1777 23.6208 38.4608 24.3407C35.7495 27.0673 33.0259 29.7909 30.1798 32.6401Z" fill="white"/>
<path d="M37.9526 59.5509C41.678 61.0613 45.4891 61.5361 49.3401 61.8057C49.7904 61.8364 49.9896 62.0049 50.106 62.4552C50.6881 64.6825 52.6335 66.1837 54.8577 66.1714C57.0604 66.1591 59.0303 64.6641 59.5573 62.4859C59.7105 61.8578 60.0444 61.8241 60.5223 61.7904C63.5063 61.5851 66.4596 61.1899 69.3425 60.375C70.1206 60.1544 70.8774 59.8573 71.7076 59.5754C71.7229 59.845 71.7474 60.0687 71.7474 60.2892C71.7505 63.506 71.7536 66.7228 71.7474 69.9366C71.7444 71.5082 71.1929 72.0597 69.6305 72.0597C59.7533 72.0627 49.8732 72.0627 39.996 72.0597C38.504 72.0597 37.9036 71.4653 37.9005 69.9764C37.8944 66.7351 37.8974 63.4938 37.9005 60.2525C37.9005 60.0533 37.9281 59.8573 37.9526 59.5509Z" fill="#E5BB82"/>
<path d="M43.2036 46.5642C43.2036 47.7345 43.2005 48.7792 43.2036 49.8209C43.2097 52.0328 44.4382 53.2766 46.6654 53.2828C51.0311 53.292 55.3937 53.2858 59.7594 53.2858C60.8562 53.2858 61.9529 53.295 63.0528 53.2828C65.2188 53.2613 66.4718 52.0022 66.481 49.8484C66.4871 48.7823 66.481 47.7162 66.481 46.5581C68.1568 46.5581 69.756 46.5459 71.3552 46.5642C72.0568 46.5734 72.985 46.4019 73.3925 46.7726C73.7479 47.0942 73.5304 48.0623 73.5365 48.7455C73.5488 50.3539 73.5089 51.9623 73.5518 53.5677C73.5794 54.6859 73.1321 55.5315 72.308 56.233C71.1316 57.2379 69.7376 57.8414 68.2548 58.1049C65.4485 58.6043 62.6208 58.975 59.7961 59.3702C59.6184 59.3947 59.309 59.2139 59.2232 59.0454C57.4617 55.5529 52.3822 55.3936 50.4613 59.024C50.3694 59.1956 50.0845 59.3886 49.9037 59.3763C46.5153 59.1435 43.1423 58.7912 39.9163 57.6454C39.3189 57.434 38.7398 57.1491 38.1945 56.8274C36.8006 56.0033 36.0224 54.8697 36.1235 53.1265C36.2399 51.1689 36.1511 49.199 36.1511 47.2321C36.1511 46.8951 36.1051 46.552 36.6229 46.555C38.7797 46.5704 40.9426 46.5642 43.2036 46.5642Z" fill="#DBA978"/>
<path d="M45.6577 46.6071C51.7942 46.6071 57.854 46.6071 64.0119 46.6071C64.0119 47.8111 64.0456 49.0029 63.9813 50.1885C63.969 50.4091 63.5891 50.6388 63.3379 50.8012C63.2092 50.8839 62.9886 50.8257 62.8109 50.8257C57.5048 50.8257 52.1986 50.8257 46.8924 50.8257C45.7588 50.8257 45.6577 50.7246 45.6577 49.6156C45.6577 48.626 45.6577 47.6396 45.6577 46.6071Z" fill="#BC8B60"/>
<path d="M52.397 61.2849C52.3878 59.9369 53.4479 58.8555 54.7897 58.8371C56.1592 58.8218 57.2896 59.9277 57.2805 61.2788C57.2713 62.5869 56.1438 63.7082 54.8357 63.7113C53.5153 63.7144 52.4093 62.6115 52.397 61.2849Z" fill="white"/>
<path d="M51.0586 44.0429C51.0586 43.7089 51.0586 43.4577 51.0586 43.1391C53.5463 43.1391 56.0278 43.1391 58.5737 43.1391C58.5737 43.4056 58.5737 43.6936 58.5737 44.0429C56.086 44.0429 53.6045 44.0429 51.0586 44.0429Z" fill="#FBE187"/>
<path d="M61.0919 44C61.0919 43.47 61.1042 42.943 61.0888 42.413C61.0521 41.2213 60.4608 40.6239 59.2844 40.6208C56.3035 40.6116 53.3226 40.6116 50.3417 40.6208C49.2081 40.6239 48.6076 41.2335 48.5801 42.3732C48.5678 42.9277 48.577 43.4822 48.4361 44.0337C48.3105 43.1238 48.0807 42.2016 48.5219 41.3162C48.8864 40.584 49.5421 40.3052 50.3539 40.3083C53.3348 40.3175 56.3157 40.3052 59.2966 40.3144C60.6048 40.3206 61.337 41.0283 61.3921 42.3242C61.4167 42.8848 61.3952 43.4485 61.3952 44.0092C61.2972 44.0061 61.193 44.003 61.0919 44Z" fill="#DBA978"/>
<path d="M30.1798 32.64C33.0259 29.7909 35.7494 27.0704 38.4669 24.3376C39.1838 23.6177 39.9803 23.0631 40.9944 22.8426C42.9153 22.4259 44.8698 23.2133 45.9145 24.8462C46.9715 26.4944 46.8673 28.6696 45.6541 30.2198C45.4489 30.4802 45.216 30.7191 44.9832 30.952C41.3038 34.6344 37.6213 38.3169 33.9388 41.9963C31.8372 44.0949 29.3403 44.34 27.1131 42.3793C24.895 40.4278 22.8118 38.3077 20.8173 36.1264C19.1844 34.3403 19.4571 31.58 21.2064 29.8981C22.9312 28.2407 25.6609 28.1549 27.4623 29.7878C28.4151 30.6579 29.2546 31.6627 30.1798 32.64ZM44.3337 27.4227C44.153 26.4944 43.7853 25.8602 43.0531 25.4558C42.1218 24.9411 41.169 25.125 40.2867 26.0042C37.3058 28.979 34.331 31.963 31.3501 34.9347C30.578 35.7036 29.9531 35.7036 29.181 34.9408C28.1455 33.9176 27.1407 32.8637 26.0806 31.868C25.7406 31.5494 25.2994 31.2675 24.8552 31.1511C23.8963 30.8968 22.9772 31.3472 22.5115 32.1774C22.0244 33.0414 22.1286 34.0187 22.873 34.7784C24.6622 36.5982 26.4728 38.3996 28.2895 40.1888C28.5744 40.4706 28.9329 40.6943 29.2913 40.8842C30.3146 41.4204 31.1234 41.3101 31.9383 40.4982C35.7893 36.6595 39.6402 32.8238 43.4606 28.9514C43.8589 28.5532 44.0457 27.9404 44.3337 27.4227Z" fill="black"/>
<path d="M44.3342 27.4227C44.0493 27.9404 43.8624 28.5532 43.4611 28.9576C39.6407 32.8269 35.7897 36.6656 31.9388 40.5044C31.1238 41.3162 30.315 41.4265 29.2918 40.8904C28.9333 40.7035 28.578 40.4768 28.29 40.1949C26.4702 38.4027 24.6627 36.6044 22.8735 34.7846C22.129 34.0248 22.0249 33.0475 22.512 32.1836C22.9777 31.3564 23.8967 30.903 24.8557 31.1572C25.2999 31.2737 25.7441 31.5555 26.0811 31.8741C27.1411 32.8698 28.146 33.9237 29.1815 34.9469C29.9535 35.7098 30.5785 35.7129 31.3505 34.9408C34.3315 31.966 37.3062 28.9851 40.2871 26.0104C41.1695 25.1311 42.1222 24.9442 43.0536 25.462C43.7858 25.8602 44.1534 26.4944 44.3342 27.4227Z" fill="#49CF6F"/>
</svg>
