<svg width="91" height="87" viewBox="0 0 91 87" fill="none" xmlns="http://www.w3.org/2000/svg">
<circle cx="39.5" cy="45.5" r="39.5" fill="#D7EEFF"/>
<g filter="url(#filter0_d_2013_3)">
<circle cx="47.5" cy="39.5" r="39.5" fill="white"/>
</g>
<path d="M50.1 16.5174C50.1 18.824 50.1028 21.1305 50.1 23.4398C50.0973 24.7053 49.7207 25.0818 48.4497 25.1068C41.1036 25.2452 34.926 30.9631 34.1895 38.312C33.4031 46.1454 38.3623 52.9184 46.0352 54.4884C53.7938 56.0778 61.9596 50.5564 63.405 42.7258C63.5628 41.8674 63.6292 40.9896 63.6957 40.1174C63.7649 39.1565 64.1637 38.6969 65.1079 38.6941C69.8594 38.6831 74.6138 38.6831 79.3653 38.6941C80.2542 38.6969 80.7803 39.2147 80.7609 39.9789C80.7443 40.7183 80.232 41.1668 79.3653 41.1724C77.9338 41.1807 76.505 41.1945 75.0734 41.1668C74.4061 41.153 74.1264 41.4105 74.0711 42.0834C73.2376 52.7439 65.3903 62.0394 55.0426 64.6477C54.104 64.8831 53.4671 64.573 53.3065 63.8004C53.1404 63.0085 53.5114 62.4852 54.4695 62.236C56.8314 61.6213 59.0549 60.6853 61.0873 59.3396C67.1126 55.3523 70.5821 49.7507 71.5485 42.5956C71.5817 42.3436 71.5873 42.0889 71.6039 41.8369C71.6344 41.38 71.4267 41.1364 70.9615 41.1364C69.5549 41.1336 68.1454 41.1336 66.7388 41.1364C66.1961 41.1391 66.0798 41.5019 66.0189 41.9615C65.4845 46.0901 63.7345 49.6233 60.708 52.4892C57.9805 55.0726 54.7325 56.6094 50.9999 57.0691C50.2939 57.1549 50.0779 57.4512 50.0806 58.1407C50.1056 62.1086 50.0917 66.0765 50.0917 70.0473C50.0917 71.249 49.6736 71.8415 48.8401 71.8194C48.0427 71.8 47.6522 71.2185 47.6522 70.0528C47.6522 68.8981 47.6522 67.7462 47.6522 66.5916C47.6522 65.4618 47.5913 65.3871 46.4699 65.2763C42.693 64.8997 39.1709 63.7284 35.9478 61.7376C30.0692 58.1047 26.2398 52.9322 24.4925 46.2341C24.2129 45.1597 24.4842 44.5034 25.2485 44.3318C26.0404 44.1518 26.5416 44.5837 26.8351 45.6498C28.9949 53.5109 33.9043 58.88 41.5605 61.6489C43.2523 62.2609 45.0937 62.4713 46.8714 62.8424C47.3864 62.9504 47.6522 62.6624 47.6522 62.1446C47.655 60.713 47.6439 59.2842 47.655 57.8527C47.6606 57.2518 47.2729 57.1466 46.7994 57.0857C43.7618 56.7091 41.0012 55.6098 38.5589 53.7712C34.7876 50.933 32.5641 47.1506 31.822 42.4932C31.7999 42.3575 31.7556 42.2218 31.7528 42.0834C31.7445 41.3773 31.3845 41.1391 30.6923 41.1447C28.0867 41.1696 25.4783 41.1558 22.8699 41.1558C21.4162 41.1558 19.9625 41.1585 18.5088 41.1558C17.5341 41.153 17.0024 40.721 16.9914 39.9346C16.9803 39.1289 17.5341 38.6692 18.5365 38.6637C19.8517 38.6581 21.167 38.6637 22.4823 38.6609C23.6175 38.6609 23.6785 38.6194 23.7726 37.4675C24.0495 34.0672 24.9688 30.8496 26.5665 27.8425C29.9723 21.4379 35.1642 17.1847 42.0921 15.0415C42.7373 14.8422 43.3299 14.8145 43.7729 15.4153C44.3516 16.1962 43.9224 17.1293 42.8204 17.4367C40.8101 18.0016 38.9023 18.8073 37.144 19.9232C30.6009 24.0822 26.9791 30.0466 26.201 37.7499C26.1262 38.4781 26.2979 38.672 27.0289 38.6775C28.275 38.6858 29.521 38.6664 30.767 38.6858C31.3568 38.6941 31.6393 38.4781 31.7196 37.8662C32.7552 29.9857 38.4703 24.085 46.301 22.7753C47.6522 22.5482 47.6522 22.5482 47.6522 21.1471C47.6522 17.3176 47.6495 13.4881 47.6578 9.65587C47.6578 9.35959 47.6744 9.04946 47.7658 8.77257C47.9347 8.25754 48.3417 7.99725 48.8761 8.00002C49.4105 8.00002 49.8176 8.25754 49.9837 8.77534C50.0723 9.055 50.0889 9.36513 50.0917 9.65864C50.1028 11.9486 50.1 14.233 50.1 16.5174Z" fill="black"/>
<circle cx="49" cy="40" r="8" fill="#DE5757"/>
<circle cx="49" cy="40" r="4" fill="#941111"/>
<path d="M58.5252 25.6856C57.9105 23.2212 59.0818 21.5709 60.8373 19.9953C63.1162 17.9491 65.2068 15.6923 67.3721 13.5187C67.829 13.059 68.3219 12.7655 68.9726 13.0701C69.4876 13.311 69.6842 13.7513 69.6787 14.3106C69.6704 15.6951 69.6731 17.0768 69.6787 18.4613C69.6814 19.3391 69.8614 19.5246 70.7226 19.5274C72.0821 19.5329 73.4445 19.5384 74.804 19.5246C75.416 19.5191 75.9089 19.7101 76.1332 20.3055C76.3547 20.8869 76.1442 21.3383 75.6957 21.7785C72.9156 24.5088 70.1522 27.2611 67.4053 30.0218C66.9485 30.4814 66.4667 30.6919 65.816 30.6808C64.2016 30.6504 62.5873 30.6863 60.973 30.6614C60.4248 30.6531 60.0177 30.8303 59.6301 31.2235C56.4568 34.4438 53.2697 37.6476 50.0826 40.854C49.8888 41.0479 49.6922 41.2611 49.4596 41.394C48.9363 41.693 48.4212 41.6044 48.0087 41.178C47.5712 40.7267 47.5186 40.195 47.8619 39.6634C47.9976 39.4529 48.1914 39.2813 48.3714 39.1013C51.6166 35.8256 54.873 32.5554 58.1016 29.2631C58.3425 29.0194 58.4892 28.5958 58.5142 28.2441C58.5668 27.394 58.5252 26.5384 58.5252 25.6856ZM63.4651 28.2303C64.0632 28.2303 64.6641 28.2469 65.2622 28.222C65.4754 28.2137 65.7467 28.1583 65.8879 28.0198C67.5604 26.3695 69.219 24.7054 70.8555 23.0218C71.0106 22.8612 71.1102 22.4902 71.0299 22.3047C70.9469 22.1164 70.6174 21.953 70.3848 21.9336C69.7424 21.8838 69.0944 21.9308 68.452 21.9087C67.649 21.881 67.1811 21.4047 67.1561 20.5962C67.1395 20.0202 67.1949 19.4388 67.134 18.8711C67.1035 18.5942 66.9346 18.2287 66.7159 18.1124C66.5497 18.0238 66.1372 18.1927 65.9572 18.3727C64.3705 19.9455 62.8061 21.5404 61.2582 23.152C61.0727 23.343 60.9426 23.6698 60.9342 23.9356C60.901 25.1096 60.9287 26.2837 60.9149 27.4605C60.9093 27.9894 61.1724 28.222 61.6708 28.2303C62.2689 28.2358 62.867 28.2275 63.4651 28.2303Z" fill="black"/>
<path d="M48.8236 50.1853C43.4712 50.1604 38.966 45.9377 38.6448 40.6268C38.3098 35.1221 42.2556 30.4038 47.7243 29.7752C48.0206 29.742 48.3196 29.7004 48.6187 29.6949C49.4134 29.6838 49.9561 30.149 49.9893 30.8468C50.0226 31.5473 49.5325 32.0485 48.735 32.1344C48.2781 32.1842 47.8129 32.1981 47.3616 32.2839C43.4213 33.0287 40.7714 36.6367 41.1314 40.7514C41.4609 44.5449 44.8113 47.624 48.6851 47.6905C53.0823 47.7652 56.2943 44.6889 56.621 40.0813C56.6819 39.2119 57.0115 38.7578 57.6511 38.6525C58.5095 38.5113 59.1214 39.09 59.1214 40.037C59.1103 44.4618 56.0783 48.5018 51.8224 49.7423C51.2492 49.9084 50.6567 50.0192 50.0669 50.1133C49.6571 50.1743 49.2389 50.1632 48.8236 50.1853Z" fill="black"/>
<path d="M63.4657 28.2301C62.8676 28.2301 62.2667 28.2357 61.6686 28.2274C61.1702 28.219 60.9071 27.9865 60.9127 27.4576C60.9238 26.2835 60.8961 25.1067 60.9321 23.9327C60.9404 23.6641 61.0705 23.3401 61.256 23.149C62.8039 21.5375 64.3684 19.9426 65.955 18.3698C66.135 18.1898 66.5503 18.0209 66.7137 18.1095C66.9324 18.2258 67.1013 18.5913 67.1318 18.8682C67.1955 19.4359 67.1373 20.0173 67.154 20.5933C67.1789 21.4018 67.6441 21.8809 68.4498 21.9058C69.095 21.9279 69.7429 21.8781 70.3826 21.9307C70.6152 21.9501 70.9447 22.1135 71.0278 22.3017C71.1081 22.4845 71.0084 22.8583 70.8533 23.0189C69.2168 24.7024 67.5555 26.3666 65.8858 28.0169C65.7445 28.1554 65.476 28.2107 65.26 28.219C64.6646 28.2467 64.0665 28.2301 63.4657 28.2301Z" fill="#FFC671"/>
<defs>
<filter id="filter0_d_2013_3" x="4" y="0" width="87" height="87" filterUnits="userSpaceOnUse" color-interpolation-filters="sRGB">
<feFlood flood-opacity="0" result="BackgroundImageFix"/>
<feColorMatrix in="SourceAlpha" type="matrix" values="0 0 0 0 0 0 0 0 0 0 0 0 0 0 0 0 0 0 127 0" result="hardAlpha"/>
<feOffset dy="4"/>
<feGaussianBlur stdDeviation="2"/>
<feComposite in2="hardAlpha" operator="out"/>
<feColorMatrix type="matrix" values="0 0 0 0 0 0 0 0 0 0 0 0 0 0 0 0 0 0 0.06 0"/>
<feBlend mode="normal" in2="BackgroundImageFix" result="effect1_dropShadow_2013_3"/>
<feBlend mode="normal" in="SourceGraphic" in2="effect1_dropShadow_2013_3" result="shape"/>
</filter>
</defs>
</svg>
