<svg width="81" height="73" viewBox="0 0 81 73" fill="none" xmlns="http://www.w3.org/2000/svg">
<path d="M78.4835 32.5598C59.7683 52.1253 47.7739 64.7199 40.034 71.0094C35.0324 75.0731 41.2844 59.7558 18.7773 69.759C16.9017 42.8756 -1.85413 40.6874 3.14743 12.241C37.5332 -12.1416 23.4663 16.9299 55.6639 1.61265C70.0434 6.61422 78.4835 6.09218 78.4835 32.5598ZM40.1152 6.13907C39.9121 5.97652 39.7714 5.86398 39.6307 5.74832C33.36 0.587334 26.2359 -1.10382 18.3459 0.696744C6.39845 3.4226 -1.62906 15.4326 0.280909 27.5458C1.07178 32.5598 3.18182 36.8987 6.65478 40.5936C6.85797 40.8093 7.03302 41.2657 6.94237 41.5033C5.79513 44.5292 5.44815 47.6583 5.64821 50.8656C5.71073 51.8627 6.06709 52.9662 5.7545 53.829C5.42627 54.7418 4.45409 55.417 3.77263 56.2047C2.45972 57.7177 2.54099 59.5214 4.02583 60.8405C8.22714 64.5792 12.4378 68.3116 16.661 72.0284C18.1646 73.3507 19.9589 73.2257 21.3 71.7471C22.1377 70.8218 22.938 69.8559 23.8039 68.9556C24.0383 68.7118 24.4478 68.5211 24.7854 68.5117C27.3613 68.4367 29.8589 68.0084 32.2347 66.9893C32.6942 66.7924 32.9661 66.8706 33.3037 67.2238C34.4791 68.4429 35.6857 69.6277 36.8861 70.8249C38.9524 72.8818 41.2531 72.8787 43.3194 70.8124C47.1893 66.9456 51.0562 63.0787 54.923 59.2088C55.1262 59.0056 55.3356 58.8055 55.495 58.5711C55.8983 57.9771 55.8327 57.2207 55.3669 56.6924C54.898 56.1578 54.1446 55.9859 53.5257 56.3266C53.235 56.4861 52.9818 56.7268 52.7442 56.9643C49.5526 60.1466 46.3672 63.3351 43.1818 66.5204C42.4253 67.2769 41.6688 68.0272 40.9186 68.7868C40.5029 69.2088 39.9808 69.412 39.5369 68.9868C38.249 67.7458 37.0205 66.4392 35.7764 65.17C36.5172 64.5542 37.3331 64.0134 37.9865 63.3163C40.1746 60.9781 42.3222 58.6023 44.451 56.211C48.521 51.6408 52.5785 47.0581 56.6235 42.4629C59.0337 39.7246 58.1771 35.7765 54.8699 34.2385C54.7136 34.1666 54.5604 34.0822 54.3603 33.9822C55.0637 32.5129 55.1543 31.0437 54.5666 29.562C53.979 28.0866 52.8473 27.1425 51.4188 26.5423C52.8599 23.8133 52.5629 21.3126 50.6404 19.5683C48.6304 17.7458 46.164 17.7208 43.5226 19.4964C43.4819 19.462 43.4288 19.437 43.4069 19.3932C41.7876 16.2516 37.3019 15.4764 34.5729 18.7555C32.1596 21.6595 29.5838 24.426 27.0862 27.2582C26.9361 27.4301 26.8205 27.6333 26.6985 27.8083C26.5297 27.6739 26.4735 27.652 26.4578 27.6114C24.9668 23.8977 19.6526 23.0068 16.9486 26.9049C14.4728 30.4748 11.8064 33.9165 9.22433 37.4145C9.05865 37.6364 8.88672 37.8552 8.62727 38.1928C8.47097 37.974 8.37719 37.8177 8.26153 37.6802C3.93518 32.5411 2.2409 26.6205 3.57256 20.059C5.19495 12.0503 10.0246 6.57358 17.8176 4.13844C25.5388 1.72519 32.5191 3.48824 38.5054 8.97121C39.862 10.2122 40.3716 10.231 41.7126 8.94932C47.6801 3.24441 56.808 1.64704 64.3634 4.98558C77.8989 10.9656 81.1781 28.3398 70.7623 38.9306C68.2615 41.4751 65.717 43.979 63.1975 46.5079C62.391 47.3176 62.3441 48.2397 63.0412 48.9149C63.6914 49.5433 64.6417 49.4807 65.3981 48.7274C67.999 46.136 70.6373 43.5789 73.1756 40.9249C78.6773 35.1731 80.8749 28.3116 79.7433 20.4342C77.702 6.21722 62.9974 -3.07318 49.2275 1.09374C45.8358 2.11594 42.8161 3.78833 40.1152 6.13907ZM60.6904 52.7474C60.7061 51.8502 60.0308 51.1531 59.1431 51.1563C58.3116 51.1563 57.602 51.8471 57.5801 52.6755C57.5551 53.5226 58.2959 54.276 59.1493 54.276C59.9965 54.2729 60.6748 53.6008 60.6904 52.7474Z" fill="#FF9090"/>
<path d="M40.1154 6.13907C42.8162 3.78521 45.839 2.11594 49.2307 1.08749C63.0007 -3.08256 77.7053 6.21097 79.7465 20.4279C80.8781 28.3023 78.6806 35.1669 73.1788 40.9187C70.6405 43.5727 68.0022 46.1297 65.4014 48.7211C64.6449 49.4745 63.6946 49.5339 63.0444 48.9087C62.3473 48.2335 62.3942 47.3113 63.2007 46.5017C65.7171 43.9728 68.2617 41.4689 70.7656 38.9243C81.1813 28.3335 77.9022 10.9593 64.3667 4.97933C56.8112 1.64079 47.6834 3.23816 41.7159 8.94307C40.3748 10.2247 39.8653 10.2091 38.5086 8.96495C32.5161 3.48199 25.5389 1.71894 17.8147 4.13219C10.0216 6.56733 5.18883 12.0472 3.56958 20.0528C2.24104 26.6174 3.93532 32.5348 8.25854 37.6739C8.3742 37.8115 8.46798 37.9678 8.62428 38.1866C8.88374 37.849 9.05879 37.6302 9.22134 37.4082C11.8034 33.9103 14.4699 30.4686 16.9456 26.8987C19.6496 23.0006 24.9638 23.8915 26.4549 27.6052C26.4705 27.6427 26.5268 27.6646 26.6956 27.8021C26.8175 27.627 26.93 27.4239 27.0832 27.2519C29.584 24.4198 32.1566 21.6533 34.5699 18.7493C37.2989 15.467 41.7847 16.2454 43.4039 19.387C43.4258 19.4307 43.4821 19.4557 43.5196 19.4901C46.161 17.7146 48.6274 17.7396 50.6374 19.562C52.5599 21.3063 52.8569 23.8071 51.4158 26.5361C52.8444 27.1363 53.976 28.0803 54.5636 29.5558C55.1545 31.0375 55.0607 32.5036 54.3573 33.9759C54.5574 34.0759 54.7074 34.1603 54.8669 34.2322C58.171 35.7702 59.0307 39.7183 56.6205 42.4567C52.5755 47.0519 48.518 51.6345 44.448 56.2047C42.3192 58.5961 40.1716 60.9718 37.9835 63.3101C37.3301 64.0072 36.5174 64.548 35.7734 65.1638C37.0175 66.4361 38.2429 67.7427 39.5339 68.9806C39.9778 69.4089 40.4999 69.2025 40.9156 68.7805C41.6659 68.0209 42.4255 67.2676 43.1788 66.5142C46.3642 63.3288 49.5496 60.1403 52.7412 56.9581C52.9788 56.7205 53.232 56.4798 53.5227 56.3204C54.1416 55.9797 54.895 56.1516 55.3639 56.6861C55.8297 57.2175 55.8953 57.974 55.4921 58.5648C55.3326 58.7993 55.1201 58.9994 54.92 59.2025C51.0532 63.0725 47.1863 66.9393 43.3164 70.8062C41.247 72.8756 38.9494 72.8787 36.8831 70.8187C35.6827 69.6245 34.473 68.4398 33.3007 67.2175C32.9631 66.8674 32.6912 66.7862 32.2317 66.9831C29.8559 68.0022 27.3583 68.4304 24.7825 68.5054C24.448 68.5148 24.0353 68.7055 23.8009 68.9493C22.935 69.8496 22.1379 70.8155 21.297 71.7408C19.9559 73.2194 18.1616 73.3476 16.658 72.0222C12.4348 68.3054 8.22416 64.5761 4.02284 60.8343C2.538 59.512 2.45673 57.7114 3.76964 56.1985C4.4511 55.4107 5.42328 54.7324 5.75151 53.8227C6.06411 52.96 5.70775 51.8565 5.64523 50.8593C5.44204 47.6521 5.79215 44.5229 6.93938 41.497C7.03003 41.2594 6.85498 40.7999 6.65179 40.5873C3.18196 36.8987 1.0688 32.5567 0.281049 27.5458C-1.6258 15.4326 6.40171 3.4226 18.3461 0.696744C26.2392 -1.10382 33.3601 0.587334 39.6308 5.74832C39.7684 5.86398 39.9122 5.97652 40.1154 6.13907ZM18.8556 69.7808C19.9528 68.5398 21.0375 67.3488 22.0816 66.1235C22.5818 65.5358 23.1569 65.2951 23.9228 65.3201C29.2714 65.492 33.7353 63.5758 37.2864 59.5683C42.1066 54.1291 46.9238 48.6899 51.7409 43.2476C52.638 42.2347 53.5602 41.2375 54.4105 40.1841C55.1169 39.3088 54.9669 38.1553 54.1541 37.4457C53.3383 36.733 52.2035 36.7674 51.397 37.5333C51.2282 37.6927 51.0751 37.874 50.9188 38.049C48.3117 40.9937 45.7077 43.9384 43.0976 46.8831C42.8725 47.1363 42.6537 47.402 42.3973 47.6145C41.794 48.1147 40.9688 48.0897 40.3936 47.5833C39.7965 47.0581 39.6715 46.1922 40.1373 45.5358C40.4061 45.1544 40.7374 44.8168 41.0469 44.4636C44.3948 40.6811 47.749 36.8987 51.0969 33.1131C52.0472 32.0378 52.0379 30.7499 51.0844 29.9371C50.1373 29.1306 48.9431 29.2869 47.996 30.356C46.3173 32.2441 44.648 34.1385 42.9725 36.0297C41.0719 38.1741 39.1776 40.3248 37.2676 42.4598C36.5736 43.235 35.7578 43.3538 35.0513 42.8412C34.2417 42.2504 34.176 41.2407 34.9263 40.3873C36.905 38.1366 38.8931 35.8984 40.8812 33.6571C43.4195 30.7905 45.9547 27.9209 48.4992 25.0606C49.0057 24.4917 49.3683 23.879 49.1995 23.085C49.0088 22.191 48.4586 21.597 47.574 21.3688C46.6674 21.1344 45.9641 21.5001 45.3639 22.1816C42.0222 25.9703 38.6712 29.7527 35.3201 33.5351C34.1291 34.8793 32.9444 36.2329 31.7409 37.5676C31.0344 38.3523 30.0779 38.4523 29.3964 37.8396C28.7087 37.2238 28.7118 36.2954 29.4027 35.4764C29.4871 35.3763 29.5777 35.2826 29.6621 35.1857C33.0976 31.3063 36.533 27.4239 39.9685 23.5445C40.1248 23.3695 40.2873 23.1975 40.4249 23.01C41.0688 22.1284 40.9469 20.95 40.1498 20.2591C39.3558 19.5683 38.2492 19.587 37.4489 20.3123C37.277 20.4686 37.1238 20.6499 36.9675 20.8249C32.9256 25.3888 28.89 29.9528 24.845 34.5104C24.1323 35.3107 23.2882 35.4545 22.5693 34.9324C21.8378 34.401 21.7315 33.5727 22.2785 32.6442C22.6755 31.9722 23.1069 31.3188 23.4727 30.6311C23.8884 29.8465 23.7978 29.0587 23.2695 28.3554C22.7131 27.6145 21.9159 27.3051 21.0594 27.5864C20.5311 27.7583 19.9903 28.1553 19.6527 28.6023C16.9269 32.2191 14.2292 35.8609 11.5658 39.5245C11.0063 40.2966 10.553 41.1625 10.1623 42.0378C8.51175 45.7421 8.45548 49.612 9.14007 53.5258C9.28074 54.3291 9.10568 54.9387 8.57114 55.5201C7.7115 56.4548 6.88624 57.4176 6.01096 58.4054C10.3217 62.2254 14.5699 65.9859 18.8556 69.7808Z" fill="black"/>
<path d="M60.6906 52.7474C60.6749 53.6008 59.9966 54.276 59.1494 54.276C58.2961 54.276 57.5552 53.5226 57.5802 52.6755C57.6021 51.8471 58.3117 51.1563 59.1432 51.1563C60.031 51.1531 60.7062 51.8502 60.6906 52.7474Z" fill="black"/>
<path d="M18.8557 69.7808C14.57 65.9859 10.3218 62.2254 6.01416 58.4117C6.88631 57.4239 7.71469 56.4611 8.57434 55.5264C9.10888 54.945 9.28393 54.3354 9.14326 53.532C8.45867 49.6183 8.51494 45.7483 10.1655 42.044C10.5562 41.1688 11.0095 40.3029 11.569 39.5308C14.2324 35.8671 16.9301 32.2253 19.6559 28.6086C19.9935 28.1616 20.5343 27.7646 21.0626 27.5926C21.9191 27.3113 22.7163 27.6208 23.2727 28.3616C23.801 29.065 23.8916 29.8527 23.4759 30.6373C23.1101 31.3251 22.6756 31.9784 22.2817 32.6505C21.7347 33.5789 21.8441 34.4073 22.5725 34.9387C23.2883 35.4607 24.1355 35.3169 24.8482 34.5167C28.8932 29.9559 32.932 25.392 36.9707 20.8312C37.127 20.6561 37.2771 20.4748 37.4521 20.3185C38.2524 19.5933 39.359 19.5745 40.153 20.2654C40.9501 20.9562 41.072 22.1347 40.428 23.0162C40.2905 23.2038 40.128 23.3757 39.9717 23.5508C36.5362 27.4332 33.1008 31.3126 29.6653 35.1919C29.5778 35.2888 29.4903 35.3826 29.4059 35.4826C28.715 36.3016 28.7119 37.23 29.3996 37.8459C30.0811 38.4585 31.0376 38.3585 31.7441 37.5739C32.9445 36.236 34.1292 34.8856 35.3233 33.5414C38.6712 29.759 42.0254 25.9765 45.3671 22.1878C45.9673 21.5064 46.6675 21.1406 47.5772 21.3751C48.4618 21.6033 49.012 22.1972 49.2027 23.0912C49.3715 23.8852 49.0089 24.4979 48.5024 25.0669C45.9579 27.9303 43.4227 30.7968 40.8844 33.6633C38.8994 35.9046 36.9082 38.1428 34.9295 40.3935C34.1792 41.2469 34.2449 42.2566 35.0545 42.8474C35.761 43.3601 36.5768 43.2413 37.2708 42.466C39.1808 40.331 41.0751 38.1803 42.9757 36.0359C44.6512 34.1447 46.3236 32.2504 47.9992 30.3623C48.9463 29.2932 50.1405 29.1369 51.0876 29.9434C52.041 30.7561 52.0536 32.044 51.1001 33.1194C47.7522 36.9049 44.4012 40.6842 41.0501 44.4698C40.7406 44.8199 40.4093 45.1606 40.1405 45.542C39.6747 46.1985 39.7997 47.0644 40.3968 47.5895C40.972 48.0959 41.7941 48.1209 42.4005 47.6208C42.66 47.4051 42.8788 47.1425 43.1008 46.8893C45.7078 43.9446 48.3149 41 50.922 38.0553C51.0782 37.8802 51.2314 37.7021 51.4002 37.5395C52.2067 36.7736 53.3415 36.7424 54.1573 37.452C54.9701 38.1616 55.1201 39.3151 54.4137 40.1903C53.5665 41.2438 52.6444 42.2379 51.7441 43.2538C46.927 48.6961 42.1098 54.1353 37.2896 59.5745C33.7353 63.582 29.2746 65.5014 23.926 65.3263C23.157 65.3013 22.5818 65.542 22.0848 66.1297C21.0376 67.352 19.9529 68.543 18.8557 69.7808Z" fill="#F8DDC5"/>
</svg>
