<svg width="81" height="73" viewBox="0 0 81 73" fill="none" xmlns="http://www.w3.org/2000/svg">
<path d="M27.7664 56.6574L4.66453 33.215C4.66453 33.215 -5.25925 14.0706 9.83612 5.40507C24.9315 -3.2605 34.0732 6.83041 34.0732 6.83041C34.0732 6.83041 71.6556 42.7194 72.5732 46.062C73.4909 49.4046 71.0753 52.3215 71.0753 52.3215L66.4177 51.7917L68.1837 56.9665L64.3428 59.8108L59.4456 58.0292L57.4053 66.1177L51.7292 67.0637L27.7664 56.6574Z" fill="#F8D3AA"/>
<path d="M70.0219 40.5751C65.6071 40.5751 59.9309 30.7995 56.7775 29.5381C41.3258 7.46426 41.0105 38.3677 29.0275 25.4387C36.9111 15.9785 50.7861 0.211417 59.6156 1.47278C86.7349 4.31085 80.1128 32.6915 70.0219 40.5751ZM33.4991 49.0325C33.6946 46.9828 33.1553 45.2326 31.7269 43.8041C30.3015 42.3788 28.5293 41.89 26.5206 42.0351C26.5206 41.6661 26.5269 41.354 26.5206 41.0449C26.4733 38.9227 25.5556 37.2482 23.8213 36.0531C21.4594 34.4259 18.3122 34.675 16.2026 36.6711C15.1588 37.655 14.216 38.7461 13.1375 39.8845C12.3712 39.074 11.7721 38.4181 11.1445 37.7843C10.4634 37.0968 9.74128 37.0243 9.22097 37.5636C8.68174 38.1217 8.76057 38.7524 9.48901 39.4777C10.1197 40.1052 10.7693 40.7138 11.4977 41.417C9.18943 43.2996 7.7231 45.507 8.47046 48.5153C9.21151 51.4922 11.2991 52.9869 14.3232 53.2991C13.6294 55.7619 13.9668 57.9819 15.8021 59.8045C17.628 61.6178 19.8543 61.9394 22.3108 61.2457C22.4306 63.3994 23.3136 65.0676 25.0353 66.2343C26.7508 67.398 28.6365 67.5241 30.6263 66.9313C30.8628 69.6022 32.0895 71.5605 34.5428 72.5317C36.9804 73.4935 39.2225 72.9322 41.1587 71.2293C44.7315 74.613 51.2622 72.9038 51.7415 66.9912C56.5032 67.8615 59.0417 66.124 60.0508 61.3056C65.1814 62.8381 69.5804 58.4044 68.0888 53.4473C69.0979 53.0783 70.1764 52.8513 71.0782 52.3247C74.3546 50.4105 75.0106 45.9232 72.4847 43.0505C71.7499 42.2148 70.9363 41.4454 70.1259 40.6161C71.5071 39.2412 72.8126 37.9136 74.1497 36.6112C77.9653 32.8902 80.2137 28.4029 80.6583 23.0799C81.1219 17.5205 79.5672 12.5412 76.1237 8.15801C75.6318 7.53363 74.9349 7.45164 74.3956 7.88997C73.8753 8.30937 73.8154 8.94636 74.238 9.57704C74.342 9.72841 74.4587 9.87031 74.5691 10.0185C78.227 15.0261 79.2235 20.5131 77.6342 26.5109C76.212 31.8843 72.1504 35.2553 68.2843 39.0709C67.8428 38.5663 67.4518 38.0713 67.0103 37.6298C66.0612 36.6838 65.1025 35.7472 64.1187 34.839C63.5574 34.3218 62.9015 34.3534 62.4284 34.8422C61.9775 35.3089 61.9996 35.9963 62.4884 36.5387C62.665 36.7342 62.8636 36.9076 63.0497 37.0905C65.5093 39.4997 67.969 41.9058 70.4286 44.315C71.5197 45.384 71.9013 46.6738 71.5008 48.1338C70.7219 50.9592 67.2815 51.8043 65.1404 49.6884C61.9617 46.5508 58.8178 43.3753 55.6581 40.2187C55.4531 40.0138 55.2544 39.793 55.0148 39.6416C54.5165 39.3232 54.0025 39.3515 53.5705 39.7615C53.1133 40.1966 53.0471 40.7264 53.4002 41.2562C53.5579 41.4927 53.7786 41.6914 53.9805 41.8963C57.547 45.466 61.1072 49.0388 64.6831 52.5959C65.7616 53.668 66.2062 54.9231 65.8278 56.3957C65.0868 59.2716 61.6117 60.1703 59.4485 58.0292C55.9167 54.5384 52.4195 51.0128 48.9066 47.5031C48.7017 47.2981 48.5061 47.0774 48.2665 46.9229C47.7336 46.5791 47.2006 46.6422 46.7686 47.0995C46.3587 47.5315 46.3303 48.0455 46.6551 48.5437C46.8096 48.7834 47.0303 48.982 47.2322 49.1839C50.2784 52.2332 53.3309 55.2731 56.3676 58.3288C57.9853 59.9559 58.0263 62.302 56.5 63.8157C54.9738 65.3293 52.6529 65.2568 51.0099 63.6359C49.8526 62.4913 48.7017 61.3371 47.557 60.1798C47.3205 59.9401 47.0745 59.691 46.9168 59.4009C45.8573 57.4584 44.2301 56.3547 42.0448 56.0898C41.5623 56.0299 41.0672 56.0804 40.5753 56.0804C40.9222 52.0062 37.8855 48.6762 33.4991 49.0325ZM40.3735 10.9488C38.9355 9.50451 37.5544 8.1044 36.1637 6.72005C31.2097 1.79443 25.2497 -0.381424 18.3154 0.507837C3.69619 2.38412 -4.44276 18.2426 2.53259 31.222C3.34301 32.7325 4.47824 34.079 5.52202 35.4539C5.96034 36.031 6.71716 36.031 7.20279 35.6021C7.69472 35.167 7.7294 34.4984 7.28162 33.9087C7.18702 33.7826 7.0735 33.6722 6.97259 33.5493C3.29887 29.2196 1.79154 24.2215 2.58304 18.6116C4.56969 4.54105 21.3017 -2.19148 32.449 6.6223C34.6816 8.38821 36.6146 10.5388 38.8126 12.6327C38.4878 12.8787 38.2323 13.03 38.0305 13.235C34.9969 16.2591 31.9634 19.2801 28.9455 22.32C27.4193 23.8588 27.3846 25.9968 28.8226 27.46C32.0107 30.7017 37.3904 30.9099 40.7456 27.8321C42.6976 26.0378 44.5297 24.1143 46.4028 22.2317C46.6015 22.0299 46.7087 21.7366 46.8632 21.478C47.27 21.8564 47.4655 22.033 47.6516 22.2128C51.1865 25.6279 54.7184 29.043 58.2533 32.455C58.4804 32.6726 58.7011 32.9154 58.966 33.0699C59.4737 33.3695 59.9909 33.3128 60.404 32.8839C60.8171 32.455 60.858 31.9442 60.5427 31.4396C60.4071 31.222 60.2053 31.0391 60.0161 30.8562C56.068 27.0406 52.1168 23.2282 48.1656 19.4157C47.2511 18.5327 46.7528 18.5422 45.8384 19.4535C43.7193 21.5695 41.6222 23.7106 39.4748 25.7982C37.1255 28.0876 33.5779 28.2673 31.0615 26.2807C29.8884 25.3536 29.8443 24.7639 30.8912 23.7232C36.1006 18.5296 41.3038 13.3296 46.529 8.1517C53.025 1.71875 62.7911 0.842098 70.3593 5.99162C70.5327 6.10829 70.6998 6.25335 70.8922 6.32272C71.4693 6.53085 72.0022 6.44255 72.3522 5.90647C72.6959 5.37985 72.6234 4.85008 72.1788 4.4023C72.0148 4.23517 71.8098 4.10588 71.6143 3.97659C65.2255 -0.185913 58.4835 -0.841822 51.4199 2.01201C48.4178 3.22608 45.9645 5.22849 43.754 7.55571C42.6723 8.69093 41.5403 9.78201 40.3735 10.9488Z" fill="#ECAC76"/>
<path d="M33.4992 49.0325C37.8824 48.6762 40.9192 52.0062 40.5754 56.0804C41.0674 56.0804 41.5625 56.0299 42.0449 56.0899C44.2302 56.3547 45.8574 57.4584 46.9169 59.4009C47.0746 59.6911 47.3237 59.9402 47.5571 60.1798C48.7018 61.3371 49.8528 62.4913 51.0101 63.636C52.6498 65.2568 54.9708 65.3293 56.5002 63.8157C58.0296 62.3021 57.9854 59.9559 56.3677 58.3288C53.331 55.2731 50.2753 52.2332 47.2323 49.1839C47.0273 48.9789 46.8097 48.7803 46.6552 48.5438C46.3304 48.0455 46.3619 47.5315 46.7687 47.0995C47.2008 46.6422 47.7337 46.5792 48.2666 46.9229C48.5063 47.0774 48.7018 47.3013 48.9067 47.5031C52.4196 51.0129 55.9168 54.5384 59.4486 58.0292C61.6118 60.1704 65.0869 59.2748 65.8279 56.3957C66.2063 54.9231 65.7617 53.668 64.6833 52.5959C61.1073 49.0388 57.5439 45.466 53.9806 41.8964C53.7756 41.6914 53.558 41.4927 53.4004 41.2562C53.0472 40.7233 53.1134 40.1967 53.5706 39.7615C54.0027 39.3484 54.5167 39.3232 55.0149 39.6417C55.2546 39.7962 55.4532 40.0169 55.6582 40.2188C58.8179 43.3753 61.9619 46.5476 65.1405 49.6884C67.2817 51.8044 70.722 50.9561 71.5009 48.1338C71.9046 46.6738 71.5198 45.384 70.4288 44.315C67.9691 41.909 65.5094 39.4998 63.0498 37.0906C62.8606 36.9077 62.6619 36.7342 62.4885 36.5387C61.9966 35.9932 61.9776 35.3089 62.4286 34.8422C62.9016 34.3534 63.5575 34.3219 64.1188 34.839C65.1027 35.7472 66.0644 36.6838 67.0105 37.6298C67.4519 38.0713 67.843 38.5664 68.2844 39.0709C72.1474 35.2553 76.209 31.8843 77.6343 26.5109C79.2236 20.5131 78.224 15.0262 74.5692 10.0185C74.462 9.87034 74.3421 9.72844 74.2381 9.57707C73.8155 8.94954 73.8754 8.31256 74.3958 7.89C74.935 7.45167 75.635 7.53366 76.1238 8.15804C79.5673 12.5413 81.122 17.5205 80.6584 23.08C80.2138 28.4029 77.9654 32.8902 74.1498 36.6112C72.8159 37.9136 71.5072 39.2412 70.126 40.6161C70.9333 41.4454 71.7469 42.2149 72.4848 43.0505C75.0107 45.9201 74.3548 50.4074 71.0784 52.3247C70.1765 52.8513 69.098 53.0784 68.0889 53.4473C69.5837 58.4045 65.1815 62.8382 60.0509 61.3056C59.0418 66.124 56.5033 67.8584 51.7417 66.9912C51.2623 72.9038 44.7316 74.613 41.1588 71.2294C39.2195 72.9322 36.9774 73.4935 34.543 72.5317C32.0896 71.5636 30.8629 69.6054 30.6264 66.9313C28.6366 67.521 26.7477 67.398 25.0354 66.2344C23.3168 65.0676 22.4307 63.3995 22.3109 61.2457C19.8544 61.9394 17.6281 61.6209 15.8023 59.8046C13.967 57.9819 13.6264 55.7619 14.3233 53.2991C11.296 52.9869 9.20848 51.4922 8.47058 48.5154C7.72322 45.5102 9.19271 43.2996 11.4979 41.417C10.7694 40.717 10.1198 40.1084 9.48913 39.4777C8.76069 38.7524 8.68186 38.1217 9.22109 37.5636C9.7414 37.0275 10.4635 37.0969 11.1447 37.7843C11.769 38.415 12.3713 39.0741 13.1376 39.8845C14.2161 38.7461 15.1621 37.6582 16.2027 36.6712C18.3124 34.6751 21.4595 34.4291 23.8214 36.0531C25.5557 37.2451 26.4734 38.9195 26.5207 41.0449C26.527 41.354 26.5207 41.6662 26.5207 42.0351C28.5294 41.8901 30.3016 42.3788 31.727 43.8042C33.1555 45.2327 33.6979 46.986 33.4992 49.0325ZM20.113 59.2023C21.1063 59.218 21.9829 58.8932 22.683 58.1995C25.1805 55.7241 27.6843 53.2549 30.1377 50.7354C31.5661 49.269 31.5188 46.9891 30.125 45.5417C28.7029 44.0659 26.4292 43.9839 24.8746 45.3746C24.348 45.8444 23.8624 46.3647 23.361 46.8661C21.3901 48.8339 19.4098 50.789 17.4641 52.7756C16.3005 53.9613 16.0577 55.3866 16.6537 56.9192C17.2024 58.3288 18.5773 59.2023 20.113 59.2023ZM14.44 50.8678C15.4049 50.871 16.269 50.5682 16.9501 49.8934C19.044 47.8279 21.1473 45.7719 23.1844 43.6465C24.5687 42.2022 24.4773 39.9318 23.0961 38.5096C21.7181 37.0937 19.4098 36.9171 17.9655 38.2826C15.7707 40.3543 13.6359 42.4955 11.5641 44.6903C10.4761 45.8444 10.3626 47.295 11.0438 48.7298C11.7091 50.1394 12.8854 50.83 14.44 50.8678ZM28.479 64.9036C29.4439 64.9068 30.3048 64.6009 30.9859 63.9292C33.0798 61.8638 35.1831 59.8077 37.2171 57.6823C38.5982 56.2412 38.5036 53.9613 37.1225 52.5454C35.7413 51.1295 33.4393 50.9593 31.9919 52.3247C29.8002 54.3996 27.6622 56.5376 25.5904 58.7324C24.4994 59.8866 24.3921 61.3403 25.0733 62.7719C25.745 64.1752 26.9243 64.8658 28.479 64.9036ZM37.3085 70.6113C37.7153 70.4189 38.6392 70.2014 39.2542 69.6401C41.0011 68.0539 42.6598 66.37 44.2744 64.6482C45.6114 63.2197 45.5074 60.9776 44.1577 59.5775C42.7797 58.149 40.5029 57.9661 39.0397 59.319C37.2707 60.9556 35.5615 62.6679 33.9249 64.4369C32.8496 65.6005 32.7361 67.0448 33.4235 68.4733C34.1015 69.8766 35.2809 70.5545 37.3085 70.6113ZM47.4373 63.5288C46.8318 66.2785 44.4415 67.5683 42.8995 69.5045C44.4794 71.0244 46.898 70.933 48.3297 69.3279C49.8402 67.6313 49.5027 65.1748 47.4373 63.5288Z" fill="black"/>
<path d="M40.3735 10.9488C41.5403 9.78202 42.6723 8.69094 43.754 7.55571C45.9677 5.22849 48.421 3.22608 51.4199 2.01201C58.4835 -0.841822 65.2255 -0.185913 71.6143 3.97659C71.813 4.10588 72.0148 4.23517 72.1788 4.4023C72.6234 4.85008 72.6991 5.3767 72.3522 5.90647C71.999 6.44571 71.4693 6.534 70.8922 6.32272C70.6998 6.25335 70.5327 6.11145 70.3593 5.99162C62.7911 0.845252 53.025 1.71875 46.529 8.1517C41.3038 13.3296 36.1006 18.5296 30.8912 23.7232C29.8443 24.767 29.8884 25.3567 31.0615 26.2807C33.5811 28.2673 37.1255 28.0876 39.4748 25.7982C41.6191 23.7075 43.7161 21.5695 45.8384 19.4535C46.7528 18.539 47.2511 18.5327 48.1656 19.4157C52.1168 23.2282 56.068 27.0438 60.0161 30.8563C60.2053 31.0392 60.404 31.2189 60.5427 31.4396C60.8581 31.9442 60.8171 32.455 60.404 32.8839C59.9909 33.3128 59.4737 33.3695 58.966 33.0699C58.7011 32.9123 58.4804 32.6726 58.2533 32.455C54.7184 29.043 51.1865 25.6279 47.6516 22.2128C47.4624 22.0299 47.27 21.8564 46.8632 21.478C46.7087 21.7366 46.6015 22.033 46.4028 22.2317C44.5297 24.1111 42.6976 26.0378 40.7456 27.8321C37.3904 30.9099 32.0107 30.7017 28.8226 27.46C27.3846 25.9968 27.4193 23.8557 28.9455 22.32C31.9634 19.2801 34.9969 16.2591 38.0305 13.235C38.2355 13.0332 38.4878 12.8818 38.8126 12.6327C36.6146 10.5357 34.6816 8.38821 32.449 6.6223C21.3048 -2.19148 4.57284 4.54105 2.58304 18.6116C1.79154 24.2215 3.29887 29.2196 6.97259 33.5493C7.0735 33.6691 7.18702 33.7826 7.28162 33.9088C7.72941 34.4984 7.69472 35.167 7.20279 35.6021C6.71716 36.031 5.96034 36.031 5.52202 35.4539C4.47824 34.079 3.34301 32.7325 2.53259 31.222C-4.44276 18.2426 3.69619 2.38412 18.3154 0.507837C25.2498 -0.381424 31.2065 1.79443 36.1605 6.72005C37.5544 8.1044 38.9355 9.50452 40.3735 10.9488Z" fill="black"/>
<path d="M20.1127 59.2023C18.577 59.2023 17.2021 58.3288 16.6534 56.916C16.0574 55.3835 16.3002 53.9613 17.4638 52.7724C19.4126 50.7858 21.3898 48.8338 23.3575 46.8661C23.8589 46.3647 24.3445 45.8476 24.8712 45.3745C26.4289 43.9839 28.6994 44.0659 30.1216 45.5417C31.5154 46.9891 31.5658 49.269 30.1342 50.7353C27.6808 53.2518 25.177 55.724 22.6795 58.1995C21.9826 58.8964 21.106 59.2212 20.1127 59.2023Z" fill="#ECAC76"/>
<path d="M14.4398 50.8678C12.8851 50.8299 11.7089 50.1393 11.0404 48.7329C10.3592 47.3012 10.4728 45.8475 11.5607 44.6934C13.6325 42.4986 15.7673 40.3574 17.9621 38.2857C19.4064 36.9202 21.7147 37.0968 23.0927 38.5127C24.4739 39.9317 24.5685 42.2053 23.181 43.6496C21.1471 45.7718 19.0437 47.831 16.9467 49.8965C16.2687 50.5682 15.4047 50.8709 14.4398 50.8678Z" fill="#ECAC76"/>
<path d="M28.4787 64.9036C26.9241 64.8689 25.7447 64.1783 25.0762 62.7719C24.395 61.3402 24.5023 59.8865 25.5933 58.7324C27.6651 56.5376 29.8031 54.3996 31.9948 52.3246C33.4422 50.9561 35.7442 51.1295 37.1254 52.5454C38.5065 53.9613 38.6011 56.2412 37.22 57.6823C35.186 59.8045 33.0827 61.8637 30.9888 63.9292C30.3045 64.5977 29.4468 64.9036 28.4787 64.9036Z" fill="#ECAC76"/>
<path d="M37.3082 70.6113C35.2806 70.5545 34.0981 69.8765 33.4232 68.4733C32.7358 67.0448 32.8493 65.6005 33.9246 64.4369C35.5612 62.6647 37.2704 60.9556 39.0395 59.3189C40.5026 57.9661 42.7794 58.149 44.1574 59.5775C45.5071 60.9776 45.6143 63.2229 44.2741 64.6482C42.6596 66.37 41.0009 68.0539 39.2539 69.64C38.639 70.2013 37.715 70.4189 37.3082 70.6113Z" fill="#ECAC76"/>
<path d="M47.4372 63.5287C49.4995 65.1748 49.8401 67.6313 48.3296 69.3279C46.9011 70.933 44.4793 71.0244 42.8994 69.5045C44.4414 67.5683 46.8317 66.2817 47.4372 63.5287Z" fill="#F8D3AA"/>
</svg>
