<svg width="91" height="87" viewBox="0 0 91 87" fill="none" xmlns="http://www.w3.org/2000/svg">
<circle cx="39.5" cy="45.5" r="39.5" fill="#D7EEFF"/>
<g filter="url(#filter0_d_2013_2)">
<circle cx="47.5" cy="39.5" r="39.5" fill="white"/>
</g>
<path d="M45.0447 12.8784C46.9699 14.2114 47.3366 15.6609 46.2811 17.7075C47.4952 18.7432 47.9214 20.0267 47.3515 21.6422C47.6191 21.6546 47.8346 21.6744 48.0502 21.6744C50.2802 21.6769 52.5101 21.6546 54.7376 21.6868C56.3977 21.7091 57.6465 22.9034 57.8373 24.5659C58.0132 26.0897 56.9973 27.6259 55.4364 27.9208C54.4577 28.1041 53.4244 28.0472 52.4185 27.9976C51.9427 27.9753 51.6801 27.5491 51.7197 27.0536C51.7619 26.5258 52.1038 26.2285 52.6142 26.1963C53.2113 26.1591 53.811 26.1839 54.4106 26.1814C55.3967 26.174 56.0038 25.6586 55.9914 24.841C55.979 24.0456 55.3893 23.5426 54.4329 23.5426C50.8005 23.5377 47.1656 23.5401 43.5333 23.5401C43.3673 23.5401 43.2037 23.5476 43.0377 23.5377C42.3712 23.5005 41.9698 23.1264 41.9872 22.5664C42.0045 22.0238 42.3861 21.6942 43.0352 21.6769C43.4887 21.6645 43.9446 21.6942 44.398 21.662C45.2008 21.6075 45.7508 21.0475 45.7484 20.3265C45.7484 19.5757 45.1686 19.0232 44.3311 18.9935C43.8157 18.9761 43.2979 19.0009 42.7825 18.9836C42.2052 18.9662 41.8137 18.5946 41.8038 18.0817C41.7939 17.5688 42.1755 17.1748 42.7453 17.1352C43.0328 17.1153 43.3227 17.1376 43.6126 17.1252C44.4104 17.0955 44.9827 16.5628 45.005 15.8393C45.0298 15.096 44.4575 14.5137 43.6274 14.4815C42.946 14.4542 42.2647 14.479 41.5833 14.4691C40.7954 14.4592 40.3915 14.1297 40.3989 13.5201C40.4063 12.9354 40.7978 12.6257 41.5511 12.6034C41.8385 12.5959 42.1309 12.6108 42.4158 12.5711C43.1393 12.4745 43.5977 11.917 43.568 11.2034C43.5382 10.532 43.0402 10.0141 42.3514 9.94721C42.1457 9.92739 41.9401 9.9373 41.7319 9.9373C36.8805 9.9373 32.0291 9.94969 27.1777 9.92987C25.53 9.92244 23.9913 10.2644 22.5467 11.0622C22.2891 11.2034 21.9645 11.2802 21.6696 11.2852C20.1607 11.3149 18.6542 11.3075 17.1477 11.3001C16.4118 11.2976 16.0055 10.9606 16.0005 10.3759C15.9956 9.78616 16.397 9.44423 17.1254 9.44175C18.4882 9.4368 19.851 9.45166 21.2137 9.43184C21.4887 9.42689 21.7861 9.35503 22.0314 9.23362C23.5725 8.46304 25.1979 8.07651 26.9224 8.07899C31.8978 8.08642 36.8731 8.08147 41.8484 8.08147C44.6904 8.08147 46.1299 10.2198 45.0447 12.8784Z" fill="black"/>
<path d="M49.953 66.7323C48.003 65.3249 47.6338 63.8754 48.7042 61.9279C47.3315 60.3545 47.1729 59.797 47.609 57.9536C47.3835 57.9412 47.1729 57.9214 46.9598 57.9214C44.71 57.9164 42.4603 57.9412 40.2105 57.904C38.6842 57.8793 37.4428 56.7643 37.1975 55.2875C36.9448 53.7786 37.6906 52.2176 39.1401 51.8286C40.2427 51.5338 41.4568 51.5982 42.6213 51.6081C43.0524 51.6106 43.3101 52.0516 43.2779 52.5224C43.2407 53.0501 42.9062 53.3599 42.3983 53.3946C41.7813 53.4367 41.1594 53.4069 40.5425 53.4119C39.6034 53.4218 39.0038 53.9372 39.0063 54.735C39.0063 55.5279 39.6034 56.0507 40.5474 56.0532C44.2219 56.0581 47.8964 56.0532 51.5709 56.0581C51.8162 56.0581 52.0714 56.0557 52.3068 56.1151C52.7925 56.234 53.0378 56.5785 53.0006 57.074C52.9609 57.5696 52.6711 57.8743 52.1656 57.9065C51.6923 57.9363 51.2166 57.909 50.7409 57.9263C49.8464 57.9561 49.2592 58.4863 49.2518 59.2544C49.2443 60.0448 49.8539 60.5899 50.7756 60.6073C51.2513 60.6147 51.7246 60.5998 52.2003 60.6122C52.7825 60.6296 53.1765 60.9888 53.1963 61.4993C53.2162 62.032 52.8148 62.4334 52.2077 62.4631C51.898 62.4805 51.5883 62.4557 51.2786 62.4755C50.5377 62.5226 49.9876 63.0999 49.9926 63.8011C49.9976 64.4849 50.5105 65.0573 51.2315 65.0994C51.9723 65.1416 52.7181 65.1143 53.459 65.1267C54.2023 65.1416 54.5963 65.4686 54.5963 66.0583C54.5963 66.6505 54.2122 66.9676 53.459 66.9899C53.1716 66.9999 52.8792 66.9825 52.5942 67.0197C51.8683 67.1114 51.4024 67.6639 51.4272 68.375C51.4495 69.049 51.9401 69.5718 52.6314 69.6461C52.8148 69.6659 53.0031 69.656 53.1889 69.656C58.0824 69.656 62.9735 69.6461 67.8671 69.6634C69.4925 69.6684 71.0113 69.324 72.4385 68.5385C72.6962 68.3973 73.0208 68.3131 73.3156 68.3106C74.8221 68.2883 76.3286 68.2957 77.8375 68.3007C78.5809 68.3032 78.9847 68.6253 78.9996 69.2075C79.0145 69.8171 78.6032 70.154 77.8276 70.159C77.2701 70.1639 76.7126 70.1763 76.1551 70.1565C74.5867 70.0995 73.0926 70.2333 71.5911 70.8825C70.5133 71.3483 69.2274 71.4771 68.0306 71.492C63.0355 71.554 58.0403 71.5218 53.0427 71.5168C50.3023 71.5118 48.8429 69.2695 49.953 66.7323Z" fill="black"/>
<path d="M61.1845 51.4719C61.4025 51.5487 61.6552 51.5611 61.7692 51.6924C61.9699 51.9253 62.2251 52.2474 62.1979 52.5051C62.1681 52.7925 61.8981 53.1122 61.6453 53.3005C61.4595 53.4368 61.1324 53.412 60.8698 53.412C56.1621 53.4169 51.4543 53.4169 46.7466 53.4169C46.6649 53.4169 46.5806 53.4194 46.4989 53.4169C45.7877 53.3922 45.3715 53.0254 45.3913 52.4432C45.4111 51.8857 45.81 51.5586 46.5063 51.5561C50.4905 51.5512 54.4772 51.5537 58.4614 51.5537C58.7067 51.5537 58.9495 51.5537 59.2642 51.5537C59.2766 51.2737 59.2989 51.0358 59.2989 50.798C59.3014 48.2384 59.2766 45.6765 59.3088 43.1169C59.341 40.4955 61.7097 38.7586 64.1033 39.5564C65.5552 40.0396 66.5537 41.38 66.5785 42.9212C66.5983 44.222 66.5959 45.5228 66.5785 46.8236C66.5736 47.1978 66.6603 47.4084 67.0319 47.5769C68.8209 48.3822 70.2654 49.6161 71.4349 51.187C71.5761 51.3777 71.8933 51.5314 72.1336 51.5363C74.0316 51.5636 75.932 51.5487 77.8325 51.5537C78.5906 51.5561 78.9797 51.8609 78.9945 52.4481C79.0094 53.0577 78.5931 53.412 77.8225 53.4145C75.6966 53.4194 73.5682 53.407 71.4423 53.4219C70.8873 53.4268 70.5132 53.2088 70.2183 52.7455C69.086 50.964 67.5275 49.6904 65.5403 48.9619C64.9531 48.7464 64.7128 48.3598 64.7202 47.7379C64.74 46.1893 64.7351 44.6408 64.7227 43.0922C64.7153 42.0391 64.0165 41.2859 63.0353 41.2462C62.0665 41.2041 61.2266 41.8607 61.2092 42.8716C61.1523 45.7334 61.1845 48.6002 61.1845 51.4719Z" fill="black"/>
<path d="M35.6939 28.0471C35.6939 28.7879 35.6939 29.4446 35.6939 30.1012C35.6939 32.2271 35.7187 34.3554 35.6865 36.4814C35.6469 39.0805 33.3277 40.8125 30.9491 40.0592C29.455 39.586 28.4391 38.2455 28.4143 36.6771C28.3945 35.3763 28.3945 34.0755 28.4168 32.7746C28.4218 32.4005 28.3326 32.1825 27.9658 32.0189C26.172 31.2186 24.7349 29.9822 23.5629 28.4113C23.4217 28.223 23.102 28.0669 22.8642 28.0644C20.9662 28.0372 19.0658 28.0521 17.1653 28.0471C16.4047 28.0446 16.0181 27.7399 16.0058 27.1526C15.9909 26.5431 16.4047 26.1913 17.1777 26.1888C19.3036 26.1838 21.432 26.1962 23.5579 26.1814C24.1129 26.1764 24.4871 26.392 24.7819 26.8578C25.9143 28.6418 27.4802 29.9054 29.4599 30.6413C30.0472 30.8593 30.2875 31.2459 30.2801 31.8653C30.2602 33.3718 30.2702 34.8807 30.2751 36.3872C30.2801 37.5691 30.9813 38.3545 32.0269 38.3644C33.07 38.3744 33.8232 37.5864 33.8282 36.4244C33.8406 33.7806 33.8332 31.1393 33.8307 28.4956C33.8307 28.3742 33.8133 28.2528 33.8009 28.109C33.6473 28.0719 33.4565 28.0843 33.3872 27.9975C33.1542 27.7151 32.8445 27.4178 32.7875 27.0882C32.7132 26.6397 33.0576 26.33 33.5086 26.226C33.7068 26.1814 33.9174 26.1888 34.123 26.1888C38.8308 26.1863 43.5385 26.1863 48.2462 26.1913C48.4915 26.1913 48.7492 26.1987 48.9771 26.2706C49.4256 26.4118 49.6437 26.7587 49.5941 27.2245C49.5446 27.6854 49.2646 27.9728 48.7987 28.0372C48.5956 28.0644 48.3874 28.0521 48.1793 28.0521C44.2769 28.0521 40.3744 28.0521 36.472 28.0521C36.2465 28.0471 36.0235 28.0471 35.6939 28.0471Z" fill="black"/>
<path d="M55.7857 40.7553C55.5527 42.3163 55.0076 43.7014 54.0388 44.9006C52.7578 46.4839 51.1225 47.4973 49.1106 47.8516C48.677 47.9284 48.5358 48.087 48.5333 48.5231C48.5283 49.1425 48.1715 49.4869 47.6438 49.4993C47.0888 49.5142 46.7072 49.1623 46.7047 48.5107C46.7022 48.0597 46.5387 47.9235 46.1175 47.8491C42.7998 47.2718 40.1461 44.6058 39.5614 41.2682C39.492 40.8792 39.3755 40.7058 38.9444 40.7083C38.2779 40.7083 37.9236 40.3564 37.9161 39.8088C37.9087 39.2563 38.2581 38.8797 38.9147 38.8772C39.3755 38.8747 39.4945 38.6914 39.5663 38.2801C40.1337 35.0243 42.78 32.3508 46.0382 31.7537C46.4916 31.6719 46.7196 31.5604 46.7097 31.0376C46.6997 30.433 47.0912 30.0862 47.6239 30.0886C48.1542 30.0911 48.5333 30.4355 48.5308 31.045C48.5308 31.5183 48.6968 31.6694 49.1502 31.7438C52.3961 32.2814 55.0944 34.9971 55.6766 38.285C55.741 38.6493 55.8154 38.8673 56.2713 38.8698C56.9774 38.8747 57.3367 39.2439 57.3243 39.8138C57.3119 40.3738 56.9428 40.6761 56.2242 40.7182C56.1028 40.7306 55.9789 40.7405 55.7857 40.7553ZM53.9571 39.851C53.9818 36.335 51.1969 33.4931 47.6908 33.4609C44.1724 33.4286 41.3255 36.2062 41.2834 39.7097C41.2437 43.2504 44.0486 46.1147 47.5793 46.1345C51.0903 46.1544 53.9298 43.3545 53.9571 39.851Z" fill="black"/>
<path d="M73.7448 39.7395C73.7027 42.2742 73.3558 44.7569 72.6397 47.1876C72.4043 47.9879 71.9781 48.3422 71.4157 48.1961C70.8062 48.0375 70.608 47.5097 70.8433 46.6822C72.553 40.6563 72.1739 34.7617 69.3592 29.167C65.6153 21.7263 59.5547 17.2837 51.3162 15.8714C50.7686 15.7772 50.2136 15.7202 49.6611 15.6558C48.9847 15.5765 48.5932 15.2098 48.6254 14.6672C48.6601 14.0923 49.1308 13.738 49.8197 13.8C53.9327 14.1691 57.7881 15.3659 61.2792 17.581C68.1946 21.9691 72.2656 28.2428 73.4722 36.3475C73.6358 37.4674 73.6556 38.6072 73.7448 39.7395Z" fill="black"/>
<path d="M21.4937 39.8115C21.5457 37.3188 21.8727 34.8758 22.5839 32.4848C22.8093 31.729 23.2256 31.4218 23.8079 31.5928C24.3852 31.7637 24.571 32.237 24.3654 33.0026C22.4352 40.141 23.3198 46.8953 27.4056 53.0798C31.5533 59.3534 37.4603 62.9239 44.9406 63.853C45.1239 63.8753 45.3098 63.9026 45.4906 63.9348C46.068 64.0364 46.4173 64.4403 46.3628 64.9408C46.3058 65.4735 45.845 65.8328 45.2553 65.7733C42.8221 65.533 40.436 65.0473 38.1813 64.0983C28.8749 60.1835 23.3941 53.2285 21.7736 43.2605C21.5878 42.1281 21.5804 40.9636 21.4937 39.8115Z" fill="black"/>
<path d="M65.4759 36.7267C65.4636 37.252 65.2133 37.5915 64.6955 37.6881C64.1801 37.7847 63.7737 37.4676 63.6251 36.8928C63.4021 36.0379 63.2286 35.1633 62.9412 34.3332C62.1954 32.185 61.0185 30.2871 59.4501 28.6369C59.3361 28.518 59.2147 28.399 59.1329 28.2603C58.8876 27.8391 58.905 27.4253 59.2741 27.0834C59.6409 26.7439 60.0497 26.734 60.4536 27.0264C60.57 27.1106 60.6666 27.2196 60.7657 27.3237C63.1964 29.8857 64.7351 32.9061 65.4264 36.365C65.4512 36.4839 65.4586 36.6078 65.4759 36.7267Z" fill="black"/>
<path d="M30.7236 41.9449C31.2142 41.9994 31.5313 42.272 31.6205 42.7502C32.2152 45.9192 33.6374 48.6596 35.8302 51.0134C36.2267 51.4396 36.1994 51.9897 35.8327 52.3465C35.4536 52.7132 34.8763 52.6934 34.4575 52.2523C32.0071 49.6705 30.4609 46.6204 29.7969 43.1268C29.6705 42.4553 30.1165 41.9226 30.7236 41.9449Z" fill="black"/>
<path d="M53.9563 39.8511C53.9315 43.3547 51.0896 46.152 47.5786 46.1322C44.0478 46.1124 41.243 43.2481 41.2826 39.7074C41.3223 36.2039 44.1717 33.4263 47.6901 33.4585C51.1961 33.4932 53.9811 36.3352 53.9563 39.8511ZM43.7579 39.7768C43.7505 41.9225 45.4477 43.6445 47.5836 43.6569C49.7342 43.6693 51.4588 41.982 51.4786 39.8462C51.4984 37.6657 49.7937 35.9388 47.6232 35.9363C45.4775 35.9338 43.7653 37.636 43.7579 39.7768Z" fill="#F8AEAE"/>
<path d="M43.7588 39.7768C43.7662 37.636 45.4759 35.9338 47.6216 35.9363C49.7921 35.9388 51.4968 37.6658 51.477 39.8462C51.4572 41.982 49.7351 43.6693 47.582 43.6569C45.4486 43.6446 43.7514 41.9225 43.7588 39.7768ZM47.6315 37.7995C46.5042 37.7946 45.627 38.6593 45.6221 39.7842C45.6171 40.9091 46.4843 41.7887 47.6068 41.7962C48.7292 41.8011 49.6113 40.9314 49.6162 39.8115C49.6212 38.6841 48.754 37.8045 47.6315 37.7995Z" fill="black"/>
<path d="M47.6315 37.7997C48.754 37.8047 49.6212 38.6843 49.6162 39.8092C49.6113 40.9291 48.7292 41.8013 47.6068 41.7938C46.4843 41.7889 45.6171 40.9093 45.6221 39.7819C45.627 38.6595 46.5042 37.7947 47.6315 37.7997Z" fill="#E03F3F"/>
<defs>
<filter id="filter0_d_2013_2" x="4" y="0" width="87" height="87" filterUnits="userSpaceOnUse" color-interpolation-filters="sRGB">
<feFlood flood-opacity="0" result="BackgroundImageFix"/>
<feColorMatrix in="SourceAlpha" type="matrix" values="0 0 0 0 0 0 0 0 0 0 0 0 0 0 0 0 0 0 127 0" result="hardAlpha"/>
<feOffset dy="4"/>
<feGaussianBlur stdDeviation="2"/>
<feComposite in2="hardAlpha" operator="out"/>
<feColorMatrix type="matrix" values="0 0 0 0 0 0 0 0 0 0 0 0 0 0 0 0 0 0 0.06 0"/>
<feBlend mode="normal" in2="BackgroundImageFix" result="effect1_dropShadow_2013_2"/>
<feBlend mode="normal" in="SourceGraphic" in2="effect1_dropShadow_2013_2" result="shape"/>
</filter>
</defs>
</svg>
